<?xml version="1.0" encoding="UTF-8"?>
<svg width="22px" height="22px" viewBox="0 0 22 22" version="1.1" xmlns="http://www.w3.org/2000/svg" xmlns:xlink="http://www.w3.org/1999/xlink">
    <title>add question paper</title>
    <g id="add-question-paper" stroke="none" stroke-width="1" fill="none" fill-rule="evenodd">
        <g id="8468586_paper_texture_background_cardboard_pattern_icon" transform="translate(4.000000, 1.000000)" fill="#FFFFFF" fill-rule="nonzero" stroke="#FFFFFF" stroke-width="0.4">
            <path d="M13.9999166,6.42868732 C14.00277,6.23984824 13.9322989,6.05750625 13.8038305,5.92154879 L8.20389925,0.207311873 C8.07008674,0.0718358407 7.88838321,-0.00284418027 7.69990544,8.29136085e-05 L2.09997421,8.29136085e-05 C0.940190479,8.29136085e-05 0,0.959552414 0,2.14300963 L0,17.8571612 C0,19.0406184 0.940190479,20 2.09997421,20 L11.8998539,20 C13.0596376,20 13.9999166,19.0406184 13.9999166,17.8571612 L13.9999166,6.42868732 Z M8.39989684,2.43586427 L11.6128574,5.7144077 L9.09988824,5.7144077 C8.71329367,5.7144077 8.39989684,5.39461383 8.39989684,5.00012809 L8.39989684,2.43586427 Z M11.8998539,18.5714408 L2.09997421,18.5714408 C1.71337963,18.5714408 1.39998281,18.2516469 1.39998281,17.8571612 L1.39998281,2.14300963 C1.39998281,1.74852389 1.71337963,1.42873001 2.09997421,1.42873001 L6.99991403,1.42873001 L6.99991403,5.00012809 C6.99991403,6.1835853 7.94010451,7.14296693 9.09988824,7.14296693 L12.5998453,7.14296693 L12.5998453,17.8571612 C12.5998453,18.2516469 12.2864484,18.5714408 11.8998539,18.5714408 Z" id="Shape"></path>
            <path d="M3.49995702,10.0000854 L6.29992263,10.0000854 C6.68651721,10.0000854 6.99991403,9.68029152 6.99991403,9.28580578 C6.99991403,8.89132004 6.68651721,8.57152616 6.29992263,8.57152616 L3.49995702,8.57152616 C3.11336244,8.57152616 2.79996561,8.89132004 2.79996561,9.28580578 C2.79996561,9.68029152 3.11336244,10.0000854 3.49995702,10.0000854 Z" id="Path"></path>
            <path d="M10.499871,11.4286446 L3.49995702,11.4286446 C3.11336244,11.4286446 2.79996561,11.7484385 2.79996561,12.1429242 C2.79996561,12.53741 3.11336244,12.8572039 3.49995702,12.8572039 L10.499871,12.8572039 C10.8864656,12.8572039 11.1998625,12.53741 11.1998625,12.1429242 C11.1998625,11.7484385 10.8864656,11.4286446 10.499871,11.4286446 Z" id="Path"></path>
            <path d="M10.499871,14.2857631 L3.49995702,14.2857631 C3.11336244,14.2857631 2.79996561,14.605557 2.79996561,15.0000427 C2.79996561,15.3945284 3.11336244,15.7143223 3.49995702,15.7143223 L10.499871,15.7143223 C10.8864656,15.7143223 11.1998625,15.3945284 11.1998625,15.0000427 C11.1998625,14.605557 10.8864656,14.2857631 10.499871,14.2857631 Z" id="Path"></path>
        </g>
    </g>
</svg>