<?xml version="1.0" encoding="UTF-8"?>
<svg width="23px" height="20px" viewBox="0 0 23 20" version="1.1" xmlns="http://www.w3.org/2000/svg" xmlns:xlink="http://www.w3.org/1999/xlink">
    <title>Add homework</title>
    <g id="Add-homework" stroke="none" stroke-width="1" fill="none" fill-rule="evenodd">
        <g id="7699812_book_home_learn_study_from_icon" transform="translate(1.000000, 1.000000)" fill="#FFFFFF">
            <path d="M10.7427402,1.39874825 C10.5826772,1.42941476 10.4186457,1.42941476 10.2585827,1.39874825 C10.2585827,1.39874825 3.33486614,0.0507548713 3.33486614,0.0507548713 C2.51338583,-0.107911016 1.66412598,0.10942125 1.01858268,0.646751943 C0.374362205,1.18274931 0,1.98274538 0,2.8254079 L0,13.6853545 C0,15.0386812 0.95376378,16.2026755 2.27262992,16.4600076 L9.8815748,17.9400003 C10.2903307,18.0199999 10.7096693,18.0199999 11.1184252,17.9400003 L18.7286929,16.4600076 C20.0475591,16.2026755 21,15.0386812 21,13.6853545 L21,2.8254079 C21,1.98274538 20.6269606,1.18274931 19.9814173,0.646751943 C19.335874,0.10942125 18.4866142,-0.107911016 17.6651339,0.0507548713 L10.7427402,1.39874825 L10.7427402,1.39874825 Z M11.1184252,3.3627386 L18.0421417,2.01474522 C18.2815748,1.96807878 18.5302677,2.03207847 18.7181102,2.18941103 C18.9072756,2.34541026 19.015748,2.57874245 19.015748,2.8254079 C19.015748,2.8254079 19.015748,13.6853545 19.015748,13.6853545 C19.015748,14.0813526 18.7379528,14.4213509 18.3530079,14.4960172 L10.7427402,15.9760099 C10.5826772,16.0080098 10.4186457,16.0080098 10.2585827,15.9773433 C10.2585827,15.9760099 2.64831496,14.4960172 2.64831496,14.4960172 C2.26337008,14.4213509 1.98425197,14.0813526 1.98425197,13.6853545 C1.98425197,13.6853545 1.98425197,2.8254079 1.98425197,2.8254079 C1.98425197,2.57874245 2.09404724,2.34541026 2.28188976,2.18941103 C2.47105512,2.03207847 2.7184252,1.96807878 2.9591811,2.01474522 L9.8815748,3.3627386 C10.2903307,3.44140488 10.7096693,3.44140488 11.1184252,3.3627386 Z" id="Shape"></path>
            <path d="M4.01877165,6.85205478 L7.66582677,7.56138463 C8.20422047,7.66538412 8.72409449,7.3107192 8.82859843,6.76938852 C8.93177953,6.22672452 8.57990551,5.7027271 8.04283465,5.59739428 L4.39577953,4.88806443 C3.85738583,4.78273162 3.33751181,5.13872987 3.23300787,5.68006054 C3.12982677,6.22272454 3.48170079,6.74672197 4.01877165,6.85205478 Z" id="Path"></path>
            <path d="M16.8211654,4.88806443 L13.1992441,5.5933943 C12.6621732,5.69739379 12.3089764,6.22272454 12.4134803,6.76405521 C12.5166614,7.30671921 13.0378583,7.66138414 13.5749291,7.55605132 L17.1968504,6.85205478 C17.7339213,6.74672197 18.0871181,6.22272454 17.9826142,5.68006054 C17.8794331,5.13872987 17.3582362,4.78273162 16.8211654,4.88806443 Z" id="Path"></path>
            <path d="M4.01877165,11.8653635 L7.66582677,12.5746933 C8.20422047,12.6800261 8.72409449,12.3253612 8.82859843,11.7826972 C8.93177953,11.2413665 8.57990551,10.7160358 8.04283465,10.6120363 L4.39577953,9.90137313 C3.85738583,9.79737364 3.33751181,10.1520386 3.23300787,10.6933692 C3.12982677,11.2360332 3.48170079,11.761364 4.01877165,11.8653635 Z" id="Path"></path>
            <path d="M16.8211654,9.90137313 L13.1992441,10.606703 C12.6621732,10.7107025 12.3089764,11.2360332 12.4134803,11.7773639 C12.5166614,12.3200279 13.0378583,12.6746928 13.5749291,12.5706933 L17.1968504,11.8653635 C17.7339213,11.761364 18.0871181,11.2360332 17.9826142,10.6933692 C17.8794331,10.1520386 17.3582362,9.79737364 16.8211654,9.90137313 L16.8211654,9.90137313 Z" id="Path"></path>
        </g>
    </g>
</svg>