<?xml version="1.0" encoding="UTF-8"?>
<svg width="18px" height="18px" viewBox="0 0 18 18" version="1.1" xmlns="http://www.w3.org/2000/svg" xmlns:xlink="http://www.w3.org/1999/xlink">
    <title>Announcemnets</title>
    <g id="Announcemnets" stroke="none" stroke-width="1" fill="none" fill-rule="evenodd">
        <g id="Group-6" transform="translate(1.000000, 1.000000)" fill="#FFFFFF" fill-rule="nonzero">
            <path d="M6.80341639,9.62518481 L6.80341639,3.84363932 C6.80341639,3.55456205 6.57001012,3.31989932 6.28164043,3.31989932 L0.521775958,3.31989932 C0.233782735,3.31989932 0,3.55418417 0,3.84363932 L0,9.62518481 C0,9.91426209 0.233406273,10.1489248 0.521775958,10.1489248 L6.28164043,10.1489248 C6.57001012,10.1489248 6.80341639,9.91426209 6.80341639,9.62518481 Z" id="Path"></path>
            <polygon id="Path" points="2.25914684 11.3581369 4.70878332 16 8.0969389 16 5.64767888 11.3581369"></polygon>
            <path d="M14.5385756,0.162344152 L8.00809393,4.58390387 L8.00809393,8.88567602 L14.5385756,13.3072357 C15.1612433,13.7285706 16,13.2807842 16,12.5272939 L16,0.942285975 C16,0.188795668 15.1612433,-0.258990699 14.5385756,0.162344152 Z" id="Path"></path>
        </g>
    </g>
</svg>