<?xml version="1.0" encoding="UTF-8"?>
<svg width="24px" height="24px" viewBox="0 0 24 24" version="1.1" xmlns="http://www.w3.org/2000/svg" xmlns:xlink="http://www.w3.org/1999/xlink">
    <title>Announcements</title>
    <g id="Announcements" stroke="none" stroke-width="1" fill="none" fill-rule="evenodd">
        <g id="4781824_alarm_alert_attention_bell_clock_icon" transform="translate(3.000000, 3.000000)" fill="#FFFFFF" fill-rule="nonzero">
            <g id="Layer_2">
                <path d="M8.49991901,18 C6.93512768,18 5.66661367,16.7601732 5.66661367,15.2307692 C5.66661367,14.8484183 5.98374217,14.5384615 6.37494,14.5384615 L10.624898,14.5384615 C11.0160958,14.5384615 11.3332243,14.8484183 11.3332243,15.2307692 C11.3332243,16.7601732 10.0647103,18 8.49991901,18 Z M7.27451445,15.9230769 C7.52795203,16.3500953 7.99483373,16.6129313 8.49991901,16.6129313 C9.00500428,16.6129313 9.47188599,16.3500953 9.72532357,15.9230769 L7.27451445,15.9230769 Z" id="Shape"></path>
                <path d="M9.91657168,2.76923077 L7.08326634,2.76923077 C6.69206851,2.76923077 6.37494,2.45927406 6.37494,2.07692308 C6.37494,0.929870135 7.32632551,0 8.49991901,0 C9.6735125,0 10.624898,0.929870135 10.624898,2.07692308 C10.624898,2.26053449 10.550271,2.43662566 10.417434,2.56645854 C10.2845971,2.69629142 10.1044315,2.76923077 9.91657168,2.76923077 Z" id="Shape"></path>
                <path d="M16.2915087,15.9230769 L0.70832933,15.9230769 C0.317131498,15.9230769 1.49628378e-06,15.6131202 1.49628378e-06,15.2307692 C-0.00125786778,13.6438248 0.792519089,12.1568252 2.124982,11.25 L2.124982,7.61538462 C2.12490413,4.19038251 4.95324737,1.40744873 8.45741943,1.38461538 L8.53533532,1.38461538 C12.0561158,1.38461538 14.9102723,4.17422579 14.9102723,7.61538462 L14.9102723,11.25 C16.229313,12.1644668 17.0091904,13.65019 16.9999182,15.2307692 L16.9999182,15.2307692 C16.9999182,15.6131202 16.6827065,15.9230769 16.2915087,15.9230769 Z M1.4874883,14.5384615 L15.5123497,14.5384615 C15.3094173,13.5676035 14.6905158,12.7282975 13.8123665,12.2330769 C13.5923361,12.1089178 13.4571947,11.8790894 13.4582033,11.6307692 L13.4582033,7.61538462 C13.4582033,4.93892775 11.2383038,2.76923077 8.49991901,2.76923077 C5.76153418,2.76923077 3.54163467,4.93892775 3.54163467,7.61538462 L3.54163467,11.6307692 C3.54264333,11.8790894 3.40750188,12.1089178 3.1874715,12.2330769 C2.30932225,12.7282975 1.6904207,13.5676035 1.4874883,14.5384615 L1.4874883,14.5384615 Z" id="Shape"></path>
            </g>
        </g>
    </g>
</svg>