<?xml version="1.0" encoding="UTF-8"?>
<svg width="14px" height="14px" viewBox="0 0 14 14" version="1.1" xmlns="http://www.w3.org/2000/svg" xmlns:xlink="http://www.w3.org/1999/xlink">
    <title>Archive</title>
    <g id="Archive" stroke="none" stroke-width="1" fill="none" fill-rule="evenodd">
        <g id="4337263_archive_archive-box_box_storage_icon" transform="translate(1.000000, 1.000000)" fill="#EDAB1A" fill-rule="nonzero">
            <path d="M11.5,3.86571025 L11.5,10.9975267 C11.5,11.5511774 11.0517272,12 10.4995475,12 L1.5004525,12 C0.94791784,12 0.5,11.5514869 0.5,10.9975267 L0.5,3.86564885 C0.20104215,3.692752 0,3.37028548 0,3.00094933 L0,0.999050677 C0,0.447290222 0.448513113,0 1.0024733,0 L10.9975267,0 C11.5511774,0 12,0.447207592 12,0.999050677 L12,3.00094933 C12,3.3702868 11.7990349,3.69281432 11.5,3.86571025 Z M1.50048448,4 C1.50033735,6.94480005 1.5,10.9975267 1.5,10.9975267 C1.5,10.9994988 10.4995475,11 10.4995475,11 C10.4993057,11 10.4995554,6.94500357 10.4997687,4 L1.50048448,4 Z M3.5,5.5 C3.5,5.22385762 3.7245531,5 3.99769878,5 L8.00230123,5 C8.27717268,5 8.5,5.2219324 8.5,5.5 C8.5,5.77614238 8.2754469,6 8.00230123,6 L3.99769878,6 C3.72282733,6 3.5,5.7780676 3.5,5.5 Z M1,3.00094933 C1,2.99969925 10.9975267,3 10.9975267,3 C10.9998118,3 11,0.999050678 11,0.999050678 C11,1.00030076 1.00247329,1 1.00247329,1 C1.00018816,1 1,3.00094933 1,3.00094933 Z" id="Shape"></path>
        </g>
    </g>
</svg>