<?xml version="1.0" encoding="UTF-8"?>
<svg width="40px" height="37px" viewBox="0 0 40 37" version="1.1" xmlns="http://www.w3.org/2000/svg" xmlns:xlink="http://www.w3.org/1999/xlink">
    <title>Assignments</title>
    <g id="Assignments" stroke="none" stroke-width="1" fill="none" fill-rule="evenodd">
        <g id="2823471_assignment_homework_ok_icon" transform="translate(6.000000, 1.000000)" fill="#FFFFFF" fill-rule="nonzero">
            <path d="M0,35 L22.4963092,35 L28,29.4371875 L28,0 L0,0 L0,35 Z M22.7246377,29.3945312 L26.5120773,29.3945312 L22.7246377,33.2226562 L22.7246377,29.3945312 Z M10.5160966,9.1896875 L12.604599,11.1464062 L17.2512464,4.87046875 L18.7370048,6.09328125 L12.85457,14.0382812 L9.26407729,10.6760937 L10.5160966,9.1896875 Z M6.10968116,18.36625 L21.891401,18.36625 L21.891401,19.46 L6.10968116,19.46 L6.10968116,18.36625 Z M6.10968116,21.4834375 L21.891401,21.4834375 L21.891401,22.5771875 L6.10968116,22.5771875 L6.10968116,21.4834375 Z M6.10968116,24.6028125 L21.891401,24.6028125 L21.891401,25.6965625 L6.10968116,25.6965625 L6.10968116,24.6028125 Z" id="Shape"></path>
        </g>
    </g>
</svg>