<?xml version="1.0" encoding="UTF-8"?>
<svg width="40px" height="37px" viewBox="0 0 40 37" version="1.1" xmlns="http://www.w3.org/2000/svg" xmlns:xlink="http://www.w3.org/1999/xlink">
    <title>Books</title>
    <g id="Books" stroke="none" stroke-width="1" fill="none" fill-rule="evenodd">
        <g id="5310254_book_bookmark_education_read_study_icon" transform="translate(6.000000, 1.000000)" fill="#FFFFFF" fill-rule="nonzero">
            <path d="M2.91776042,4.43129167 C2.94758333,5.22083333 3.62111458,5.83333333 4.41080208,5.83333333 L5.25,5.83333333 C5.5721661,5.83333333 5.83333333,6.09450056 5.83333333,6.41666667 L5.83333333,16.4100417 C5.83333701,16.6251768 5.95175294,16.8228466 6.141436,16.9243525 C6.33111905,17.0258584 6.56127476,17.0147212 6.74027083,16.895375 L8.68619792,15.5981146 C9.07807377,15.3368727 9.5885929,15.3368727 9.98046875,15.5981146 L11.9263958,16.895375 C12.1053919,17.0147212 12.3355476,17.0258584 12.5252307,16.9243525 C12.7149137,16.8228466 12.8333297,16.6251768 12.8333333,16.4100417 L12.8333333,6.41666667 C12.8333333,6.09450056 13.0945006,5.83333333 13.4166667,5.83333333 L26.8333333,5.83333333 C27.4776655,5.83333333 28,6.35566779 28,7 L28,33.8333333 C28,34.4776655 27.4776655,35 26.8333333,35 L4.375,35 C1.95875422,35 0,33.0412458 0,30.625 L0,4.375 C0,4.36807292 0.000802083333,4.36136458 0.00102083333,4.35451042 C0.00829608836,3.21706568 0.465329876,2.128704 1.27232292,1.32708333 C2.11178856,0.482877605 3.25155677,0.005690939 4.44208333,0 L26.8333333,0 C27.4776655,0 28,0.522334459 28,1.16666667 L28,1.75 C28,2.39433221 27.4776655,2.91666667 26.8333333,2.91666667 L4.375,2.91666667 C3.97859823,2.91710046 3.59941551,3.07871405 3.32458064,3.36437179 C3.04974577,3.65002953 2.9028909,4.03516865 2.91776042,4.43129167 Z" id="Path"></path>
        </g>
    </g>
</svg>