<?xml version="1.0" encoding="UTF-8"?>
<svg width="40px" height="37px" viewBox="0 0 40 37" version="1.1" xmlns="http://www.w3.org/2000/svg" xmlns:xlink="http://www.w3.org/1999/xlink">
    <title>Classes</title>
    <g id="Classes" stroke="none" stroke-width="1" fill="none" fill-rule="evenodd">
        <g id="5130467_class_education_learning_school_study_icon" transform="translate(2.000000, 1.000000)" fill="#FFFFFF" fill-rule="nonzero">
            <path d="M5.56818182,11.1363636 C3.59465909,11.1363636 1.98863636,9.53034091 1.98863636,7.55681818 C1.98863636,5.58329545 3.59465909,3.97727273 5.56818182,3.97727273 C7.54170455,3.97727273 9.14772727,5.58329545 9.14772727,7.55681818 C9.14772727,9.53034091 7.54170455,11.1363636 5.56818182,11.1363636 Z M33.0113636,7.55681818 C33.0113636,5.58329545 31.4053409,3.97727273 29.4318182,3.97727273 C27.4582955,3.97727273 25.8522727,5.58329545 25.8522727,7.55681818 C25.8522727,9.53034091 27.4582955,11.1363636 29.4318182,11.1363636 C31.4053409,11.1363636 33.0113636,9.53034091 33.0113636,7.55681818 Z M21.875,4.375 C21.875,1.96238636 19.9118182,0 17.5,0 C15.0881818,0 13.125,1.96238636 13.125,4.375 C13.125,6.78761364 15.0881818,8.75 17.5,8.75 C19.9118182,8.75 21.875,6.78761364 21.875,4.375 Z M0,19.8863636 L0,29.4318182 L0,34.2045455 C0,34.6436364 0.355568182,35 0.795454545,35 C1.23534091,35 1.59090909,34.6436364 1.59090909,34.2045455 L1.59090909,30.2272727 L33.4090909,30.2272727 L33.4090909,34.2045455 C33.4090909,34.6436364 33.7646591,35 34.2045455,35 C34.6444318,35 35,34.6436364 35,34.2045455 L35,29.4318182 L35,19.8863636 L0,19.8863636 Z M33.4090909,13.5227273 C33.4090909,12.7805682 33.0614773,12.1251136 32.5293182,11.6868182 C31.6646591,12.3367045 30.5939773,12.7272727 29.4318182,12.7272727 C28.2696591,12.7272727 27.1989773,12.3367045 26.3343182,11.6868182 C25.8021591,12.1251136 25.4545455,12.7805682 25.4545455,13.5227273 L25.4545455,18.2954545 L33.4090909,18.2954545 L33.4090909,13.5227273 Z M23.8636364,11.9318182 C23.8636364,10.4371591 22.8239773,9.18909091 21.4327273,8.84943182 C20.3819318,9.77454545 19.0073864,10.3409091 17.5,10.3409091 C15.9926136,10.3409091 14.6180682,9.77454545 13.5672727,8.84943182 C12.1760227,9.18909091 11.1363636,10.4371591 11.1363636,11.9318182 L11.1363636,18.2954545 L23.8636364,18.2954545 L23.8636364,11.9318182 Z M9.54545455,13.5227273 C9.54545455,12.7805682 9.19784091,12.1251136 8.66568182,11.6868182 C7.80102273,12.3367045 6.73034091,12.7272727 5.56818182,12.7272727 C4.40602273,12.7272727 3.33534091,12.3367045 2.47068182,11.6868182 C1.93852273,12.1251136 1.59090909,12.7805682 1.59090909,13.5227273 L1.59090909,18.2954545 L9.54545455,18.2954545 L9.54545455,13.5227273 Z" id="Shape"></path>
        </g>
    </g>
</svg>