<?xml version="1.0" encoding="UTF-8"?>
<svg width="16px" height="16px" viewBox="0 0 16 16" version="1.1" xmlns="http://www.w3.org/2000/svg" xmlns:xlink="http://www.w3.org/1999/xlink">
    <title>Edit icon</title>
    <g id="Edit-icon" stroke="none" stroke-width="1" fill="none" fill-rule="evenodd">
        <g id="Group-7-Copy" transform="translate(1.000000, 1.000000)" fill="#7A60E0" fill-rule="nonzero" stroke="#7A60E0" stroke-width="0.2">
            <path d="M5.92786194,5.81760516 L5.84053806,7.44676258 C5.83039484,7.63882903 5.90228258,7.82626645 6.03856129,7.96232387 C6.16602,8.08956129 6.33802129,8.1603471 6.51707677,8.1603471 C6.52942387,8.1603471 6.54177548,8.15990452 6.55456516,8.15924516 L8.18107613,8.06927484 C8.34734194,8.06023355 8.50434968,7.98989032 8.62254581,7.87213677 L13.8015387,2.69865355 C13.9285548,2.57163742 14,2.39941484 14,2.21969548 C14,2.03997613 13.9285548,1.86753226 13.8015387,1.74051613 L12.2597052,0.19846129 C12.1326845,0.0714451613 11.9602452,0 11.7807471,0 C11.601249,0 11.4288052,0.0714451613 11.301789,0.19846129 L6.12544258,5.37481226 C6.00724645,5.49300839 5.93668194,5.65067548 5.92786194,5.81760516 Z M7.26682194,6.14925613 L11.7807471,1.63555226 L12.3642265,2.2192529 L7.84765484,6.7307529 L7.23374129,6.76471419 L7.26682194,6.14925613 Z" id="Shape"></path>
            <path d="M2.28717097,14 L9.79964774,14 C11.060989,14 12.0868187,12.973949 12.0868187,11.712829 L12.0868187,7.08180968 C12.0868187,6.70759871 11.783389,6.40439032 11.4093994,6.40439032 C11.0354097,6.40439032 10.73198,6.70759871 10.73198,7.08180968 L10.73198,11.7128245 C10.73198,12.2268413 10.3138858,12.6451568 9.79964774,12.6451568 L2.28717097,12.6451568 C1.7729329,12.6451613 1.35483871,12.2268458 1.35483871,11.712829 L1.35483871,4.20035226 C1.35483871,3.68633548 1.7729329,3.26802 2.28717097,3.26802 L6.9184071,3.26802 C7.29240129,3.26802 7.59582645,2.96481161 7.59582645,2.59060065 C7.59582645,2.21638968 7.29239677,1.91318129 6.9184071,1.91318129 L2.28717097,1.91318129 C1.02582968,1.91318129 0,2.93923226 0,4.20035226 L0,11.712829 C0,12.973949 1.02582968,14 2.28717097,14 Z" id="Path"></path>
        </g>
    </g>
</svg>