<?xml version="1.0" encoding="UTF-8"?>
<svg width="17px" height="20px" viewBox="0 0 17 20" version="1.1" xmlns="http://www.w3.org/2000/svg" xmlns:xlink="http://www.w3.org/1999/xlink">
    <title>Exam pad grey</title>
    <g id="Exam-pad-grey" stroke="none" stroke-width="1" fill="none" fill-rule="evenodd">
        <g id="7395611_clipboard_task_assignment_icon" transform="translate(1.000000, 1.000000)" fill="#6F829F" stroke="#6F829F" stroke-width="0.8">
            <path d="M7.5,0 C8.4205,0 9.16666667,0.767511429 9.16666667,1.71428571 L12.5,1.71428571 C13.88075,1.71428571 15,2.86555714 15,4.28571429 L15,15.4285714 C15,16.8487714 13.88075,18 12.5,18 L2.5,18 C1.11929167,18 0,16.8487714 0,15.4285714 L0,4.28571429 C0,2.86555714 1.11929167,1.71428571 2.5,1.71428571 L5.83333333,1.71428571 C5.83333333,0.767511429 6.5795,0 7.5,0 Z M7.91666667,1.71428571 C7.91666667,2.42436857 8.47633333,3 9.16666667,3 L9.58333333,3 L9.58333333,3.85714286 L5.41666667,3.85714286 L5.41666667,3 L5.83333333,3 C6.52366667,3 7.08333333,2.42436857 7.08333333,1.71428571 C7.08333333,1.47759429 7.26991667,1.28571429 7.5,1.28571429 C7.73008333,1.28571429 7.91666667,1.47759429 7.91666667,1.71428571 Z M10.8333333,3 L10.8333333,4.28571429 C10.8333333,4.75909714 10.46025,5.14285714 10,5.14285714 L5,5.14285714 C4.53976667,5.14285714 4.16666667,4.75909714 4.16666667,4.28571429 L4.16666667,3 L2.5,3 C1.80964167,3 1.25,3.57563143 1.25,4.28571429 L1.25,15.4285714 C1.25,16.1386286 1.80964167,16.7142857 2.5,16.7142857 L12.5,16.7142857 C13.1903333,16.7142857 13.75,16.1386286 13.75,15.4285714 L13.75,4.28571429 C13.75,3.57563143 13.1903333,3 12.5,3 L10.8333333,3 Z" id="Shape"></path>
            <path d="M3.54166667,8.57142857 C3.54166667,8.2164 3.82149167,7.92857143 4.16666667,7.92857143 L10.8333333,7.92857143 C11.1785,7.92857143 11.4583333,8.2164 11.4583333,8.57142857 C11.4583333,8.92645714 11.1785,9.21428571 10.8333333,9.21428571 L4.16666667,9.21428571 C3.82149167,9.21428571 3.54166667,8.92645714 3.54166667,8.57142857 Z" id="Path"></path>
            <path d="M3.54166667,12 C3.54166667,11.6449714 3.82149167,11.3571429 4.16666667,11.3571429 L7.5,11.3571429 C7.84516667,11.3571429 8.125,11.6449714 8.125,12 C8.125,12.3550286 7.84516667,12.6428571 7.5,12.6428571 L4.16666667,12.6428571 C3.82149167,12.6428571 3.54166667,12.3550286 3.54166667,12 Z" id="Path"></path>
        </g>
    </g>
</svg>