<?xml version="1.0" encoding="UTF-8"?>
<svg width="24px" height="24px" viewBox="0 0 24 24" version="1.1" xmlns="http://www.w3.org/2000/svg" xmlns:xlink="http://www.w3.org/1999/xlink">
    <title>grid view</title>
    <g id="grid-view" stroke="none" stroke-width="1" fill="none" fill-rule="evenodd">
        <g id="4690488_grid_large_layout_search_tools_icon" transform="translate(1.000000, 1.000000)" fill="#7A60E0">
            <path d="M8.2498711,0 L1.37532226,0 C0.615646631,0 0,0.615322114 0,1.37467773 L0,8.24978515 C0,9.00914077 0.615646631,9.62480664 1.37532226,9.62480664 L8.2498711,9.62480664 C9.00954673,9.62480664 9.62519336,9.00914077 9.62519336,8.24978515 L9.62519336,1.37467773 C9.62519336,0.615322114 9.00954673,0 8.2498711,0 Z M20.6246777,0 L13.7501289,0 C12.9904533,0 12.3748066,0.615322114 12.3748066,1.37467773 L12.3748066,8.24978515 C12.3748066,9.00914077 12.9904533,9.62480664 13.7501289,9.62480664 L20.6246777,9.62480664 C21.3843534,9.62480664 22,9.00914077 22,8.24978515 L22,1.37467773 C22,0.615322114 21.3843534,0 20.6246777,0 Z M8.2498711,12.3748496 L1.37532226,12.3748496 C0.615646631,12.3748496 0,12.9905155 0,13.7495273 L0,20.6249785 C0,21.3846779 0.615646631,22 1.37532226,22 L8.2498711,22 C9.00954673,22 9.62519336,21.3846779 9.62519336,20.6249785 L9.62519336,13.7495273 C9.62519336,12.9905155 9.00954673,12.3748496 8.2498711,12.3748496 Z M20.6246777,12.3748496 L13.7501289,12.3748496 C12.9904533,12.3748496 12.3748066,12.9905155 12.3748066,13.7495273 L12.3748066,20.6249785 C12.3748066,21.3846779 12.9904533,22 13.7501289,22 L20.6246777,22 C21.3843534,22 22,21.3846779 22,20.6249785 L22,13.7495273 C22,12.9905155 21.3843534,12.3748496 20.6246777,12.3748496 Z" id="Shape"></path>
        </g>
    </g>
</svg>