<?xml version="1.0" encoding="UTF-8"?>
<svg width="24px" height="24px" viewBox="0 0 24 24" version="1.1" xmlns="http://www.w3.org/2000/svg" xmlns:xlink="http://www.w3.org/1999/xlink">
    <title>Leave </title>
    <g id="Leave-" stroke="none" stroke-width="1" fill="none" fill-rule="evenodd">
        <g id="noun-day-off-3842598" transform="translate(2.000000, 3.000000)" fill="#FFFFFF" fill-rule="nonzero">
            <path d="M16.3599127,1.79426738 L15.0199228,1.79426738 L15.0199228,1.21545923 C15.0199228,0.54015434 14.459927,0 13.7598965,0 C13.0598304,0 12.4998703,0.54018879 12.4998703,1.21545923 L12.4998703,1.79426738 L6.51991526,1.79426738 L6.51991526,1.21545923 C6.51991526,0.54015434 5.95991947,0 5.25988902,0 C4.55982286,0 3.99986278,0.54018879 3.99986278,1.21545923 L3.99986278,1.79426738 L2.65987286,1.79426738 C1.17995541,1.79426738 0,2.95174589 0,4.36016414 L0,15.4533268 C0,16.8616417 1.17995541,18 2.64005158,18 L16.3599484,18 C17.8199017,18 19,16.8617795 19,15.4533268 L19,4.36016414 C19,2.95171144 17.8199051,1.79426738 16.3598089,1.79426738 L16.3599127,1.79426738 Z M2.64001586,3.31830257 L16.3599127,3.31830257 C16.9398369,3.31830257 17.4199047,3.78135598 17.4199047,4.34080278 L17.4199047,5.78773704 L1.58002383,5.78773704 L1.58002383,4.36016414 C1.58002383,3.78135598 2.06005594,3.31830257 2.64015872,3.31830257 L2.64001586,3.31830257 Z M16.3599127,16.4757581 L2.64001586,16.4757581 C2.06009165,16.4757581 1.5798843,16.0127047 1.5798843,15.4532579 L1.5798843,7.33113358 L17.4197652,7.33113358 L17.4197652,15.4532579 C17.4197652,16.0126702 16.9398402,16.4757581 16.3597732,16.4757581 L16.3599127,16.4757581 Z" id="Shape"></path>
            <path d="M12.1399444,9.356876 C11.8400038,9.06754427 11.3400219,9.06754427 11.0199886,9.356876 L9.49992857,10.8230683 L7.97997571,9.356876 C7.68003511,9.06754427 7.18005316,9.06754427 6.86001985,9.356876 C6.56007925,9.64620773 6.56007925,10.1285054 6.86001985,10.4372191 L8.37997271,11.9034114 L6.86001985,13.3696037 C6.56007925,13.6589354 6.56007925,14.141233 6.86001985,14.4499468 C7.0200365,14.6043037 7.21994571,14.6814149 7.42001564,14.6814149 C7.62007128,14.6814149 7.81997692,14.6043037 7.98001143,14.4499468 L9.49996429,12.9837545 L11.0199171,14.4499468 C11.1799338,14.6043037 11.379843,14.6814149 11.5799129,14.6814149 C11.7799686,14.6814149 11.9798742,14.6043037 12.1399087,14.4499468 C12.4398493,14.1606151 12.4398493,13.6783174 12.1399087,13.3696037 L10.6199559,11.9034114 L12.1399087,10.4372191 C12.4399886,10.1285088 12.4399886,9.66558976 12.1400482,9.356876 L12.1399444,9.356876 Z" id="Path"></path>
        </g>
    </g>
</svg>