<?xml version="1.0" encoding="UTF-8"?>
<svg width="24px" height="24px" viewBox="0 0 24 24" version="1.1" xmlns="http://www.w3.org/2000/svg" xmlns:xlink="http://www.w3.org/1999/xlink">
    <title>List view</title>
    <g id="List-view" stroke="none" stroke-width="1" fill="none" fill-rule="evenodd">
        <g id="3912019_arrangement_details_layout_list_view_icon" transform="translate(1.000000, 1.000000)" fill="#7A60E0" fill-rule="nonzero">
            <path d="M0.6875,5.5 C0.308,5.5 0,5.192 0,4.8125 L0,0.6875 C0,0.308 0.308,0 0.6875,0 L4.8125,0 C5.192,0 5.5,0.308 5.5,0.6875 L5.5,4.8125 C5.5,5.192 5.192,5.5 4.8125,5.5 L0.6875,5.5 Z" id="Path"></path>
            <path d="M8.9375,5.5 C8.558,5.5 8.25,5.192 8.25,4.8125 L8.25,0.6875 C8.25,0.308 8.558,0 8.9375,0 L21.3125,0 C21.692,0 22,0.308 22,0.6875 L22,4.8125 C22,5.192 21.692,5.5 21.3125,5.5 L8.9375,5.5 Z" id="Path"></path>
            <path d="M0.6875,13.75 C0.308,13.75 0,13.442 0,13.0625 L0,8.9375 C0,8.558 0.308,8.25 0.6875,8.25 L4.8125,8.25 C5.192,8.25 5.5,8.558 5.5,8.9375 L5.5,13.0625 C5.5,13.442 5.192,13.75 4.8125,13.75 L0.6875,13.75 Z" id="Path"></path>
            <path d="M8.9375,13.75 C8.558,13.75 8.25,13.442 8.25,13.0625 L8.25,8.9375 C8.25,8.558 8.558,8.25 8.9375,8.25 L21.3125,8.25 C21.692,8.25 22,8.558 22,8.9375 L22,13.0625 C22,13.442 21.692,13.75 21.3125,13.75 L8.9375,13.75 Z" id="Path"></path>
            <path d="M0.6875,22 C0.308,22 0,21.692 0,21.3125 L0,17.1875 C0,16.808 0.308,16.5 0.6875,16.5 L4.8125,16.5 C5.192,16.5 5.5,16.808 5.5,17.1875 L5.5,21.3125 C5.5,21.692 5.192,22 4.8125,22 L0.6875,22 Z" id="Path"></path>
            <path d="M8.9375,22 C8.558,22 8.25,21.692 8.25,21.3125 L8.25,17.1875 C8.25,16.808 8.558,16.5 8.9375,16.5 L21.3125,16.5 C21.692,16.5 22,16.808 22,17.1875 L22,21.3125 C22,21.692 21.692,22 21.3125,22 L8.9375,22 Z" id="Path"></path>
        </g>
    </g>
</svg>