<?xml version="1.0" encoding="UTF-8"?>
<svg width="15px" height="10px" viewBox="0 0 15 10" version="1.1" xmlns="http://www.w3.org/2000/svg" xmlns:xlink="http://www.w3.org/1999/xlink">
    <title>next</title>
    <g id="next" stroke="none" stroke-width="1" fill="none" fill-rule="evenodd">
        <g id="Group-2" transform="translate(1.000000, 1.000000)" fill="#7A60E0" fill-rule="nonzero" stroke="#7A60E0" stroke-width="0.4">
            <g id="Group" transform="translate(6.500000, 4.000000) scale(-1, 1) translate(-6.500000, -4.000000) ">
                <path d="M2.55300084,3.33884298 L12.2777778,3.33884298 C12.6766501,3.33884298 13,3.6348531 13,4 C13,4.36514692 12.6766501,4.66115704 12.2777778,4.66115704 L2.55300084,4.66115704 L4.90566709,6.81490111 C5.20181466,7.08600887 5.20181466,7.5255614 4.90566709,7.79666917 C4.6095195,8.06777694 4.12936939,8.06777694 3.8332218,7.79666917 L0.222110693,4.49088404 C-0.0740368976,4.21977627 -0.0740368976,3.78022374 0.222110693,3.50911598 L3.8332218,0.203330832 C4.12936939,-0.0677769439 4.6095195,-0.0677769439 4.90566709,0.203330832 C5.20181466,0.474438607 5.20181466,0.91399115 4.90566709,1.18509893 L2.55300084,3.33884298 Z" id="Path"></path>
            </g>
        </g>
    </g>
</svg>