<?xml version="1.0" encoding="UTF-8"?>
<svg width="50px" height="50px" viewBox="0 0 50 50" version="1.1" xmlns="http://www.w3.org/2000/svg" xmlns:xlink="http://www.w3.org/1999/xlink">
    <title>play button</title>
    <g id="play-button" stroke="none" stroke-width="1" fill="none" fill-rule="evenodd">
        <path d="M25,1 C11.7441882,1 1,11.7441882 1,25 C1,38.2557176 11.7441882,49 25,49 C38.2557176,49 49,38.2557176 49,25 C49,11.7441882 38.2557176,1 25,1 Z M36.4841412,26.9268706 L22.1683765,36.7753412 C21.7700706,37.048 21.3065412,37.1874824 20.8417882,37.1874824 C20.4676706,37.1874824 20.0961882,37.0986353 19.7542588,36.9198118 C18.9855059,36.5132235 18.5027765,35.7161412 18.5027765,34.8486588 L18.5027765,15.1514353 C18.5027765,14.2838588 18.9855059,13.4866824 19.7542588,13.08 C20.0956235,12.9008941 20.4687059,12.8123294 20.8406588,12.8123294 C21.3060706,12.8123294 21.7699765,12.9510588 22.1683765,13.2247529 L36.4840471,23.0730353 C37.1176471,23.5091765 37.4972235,24.2306824 37.4972235,24.9999059 C37.4972235,25.7691294 37.1177412,26.4906353 36.4841412,26.9268706 Z" id="Shape-Copy-6" fill-opacity="0.533164" fill="#FFFFFF" fill-rule="nonzero" opacity="0.54733131"></path>
        <path d="M36.4841412,26.9268706 L22.1683765,36.7753412 C21.7700706,37.048 21.3065412,37.1874824 20.8417882,37.1874824 C20.4676706,37.1874824 20.0961882,37.0986353 19.7542588,36.9198118 C18.9855059,36.5132235 18.5027765,35.7161412 18.5027765,34.8486588 L18.5027765,15.1514353 C18.5027765,14.2838588 18.9855059,13.4866824 19.7542588,13.08 C20.0956235,12.9008941 20.4687059,12.8123294 20.8406588,12.8123294 C21.3060706,12.8123294 21.7699765,12.9510588 22.1683765,13.2247529 L36.4840471,23.0730353 C37.1176471,23.5091765 37.4972235,24.2306824 37.4972235,24.9999059 C37.4972235,25.7691294 37.1177412,26.4906353 36.4841412,26.9268706 Z" id="Path-Copy-8" fill="#FFFFFF" fill-rule="nonzero"></path>
    </g>
</svg>