<?xml version="1.0" encoding="UTF-8"?>
<svg width="34px" height="34px" viewBox="0 0 34 34" version="1.1" xmlns="http://www.w3.org/2000/svg" xmlns:xlink="http://www.w3.org/1999/xlink">
    <title>question paper yellow</title>
    <g id="question-paper-yellow" stroke="none" stroke-width="1" fill="none" fill-rule="evenodd">
        <g id="8468586_paper_texture_background_cardboard_pattern_icon" transform="translate(9.951355, 8.500000)" fill="#B58627" fill-rule="nonzero" stroke="#B58627" stroke-width="0.4">
            <path d="M13.3849098,5.46438422 C13.3876379,5.303871 13.3202625,5.14888031 13.1974376,5.03331647 L7.84350756,0.176215092 C7.71557335,0.0610604646 7.54185193,-0.00241755323 7.36165386,7.04765675e-05 L2.00772378,7.04765675e-05 C0.898888554,7.04765675e-05 0,0.815619552 0,1.82155818 L0,15.178587 C0,16.1845256 0.898888554,17 2.00772378,17 L11.3771014,17 C12.4859366,17 13.3849098,16.1845256 13.3849098,15.178587 L13.3849098,5.46438422 Z M8.03089512,2.07048463 L11.1027125,4.85724655 L8.70013638,4.85724655 C8.33052464,4.85724655 8.03089512,4.58542175 8.03089512,4.25010888 L8.03089512,2.07048463 Z M11.3771014,15.7857247 L2.00772378,15.7857247 C1.63811204,15.7857247 1.33848252,15.5138999 1.33848252,15.178587 L1.33848252,1.82155818 C1.33848252,1.48624531 1.63811204,1.21442051 2.00772378,1.21442051 L6.6924126,1.21442051 L6.6924126,4.25010888 C6.6924126,5.25604751 7.59130115,6.07152189 8.70013638,6.07152189 L12.0463427,6.07152189 L12.0463427,15.178587 C12.0463427,15.5138999 11.7467132,15.7857247 11.3771014,15.7857247 Z" id="Shape"></path>
            <path d="M3.3462063,8.50007258 L6.02317134,8.50007258 C6.39278308,8.50007258 6.6924126,8.22824779 6.6924126,7.89293491 C6.6924126,7.55762203 6.39278308,7.28579724 6.02317134,7.28579724 L3.3462063,7.28579724 C2.97659456,7.28579724 2.67696504,7.55762203 2.67696504,7.89293491 C2.67696504,8.22824779 2.97659456,8.50007258 3.3462063,8.50007258 Z" id="Path"></path>
            <path d="M10.0386189,9.71434793 L3.3462063,9.71434793 C2.97659456,9.71434793 2.67696504,9.98617272 2.67696504,10.3214856 C2.67696504,10.6567985 2.97659456,10.9286233 3.3462063,10.9286233 L10.0386189,10.9286233 C10.4082306,10.9286233 10.7078602,10.6567985 10.7078602,10.3214856 C10.7078602,9.98617272 10.4082306,9.71434793 10.0386189,9.71434793 Z" id="Path"></path>
            <path d="M10.0386189,12.1428986 L3.3462063,12.1428986 C2.97659456,12.1428986 2.67696504,12.4147234 2.67696504,12.7500363 C2.67696504,13.0853492 2.97659456,13.357174 3.3462063,13.357174 L10.0386189,13.357174 C10.4082306,13.357174 10.7078602,13.0853492 10.7078602,12.7500363 C10.7078602,12.4147234 10.4082306,12.1428986 10.0386189,12.1428986 Z" id="Path"></path>
        </g>
    </g>
</svg>