<?xml version="1.0" encoding="UTF-8"?>
<svg width="24px" height="24px" viewBox="0 0 24 24" version="1.1" xmlns="http://www.w3.org/2000/svg" xmlns:xlink="http://www.w3.org/1999/xlink">
    <title>Radio button disabled</title>
    <g id="Radio-button-disabled" stroke="none" stroke-width="1" fill="none" fill-rule="evenodd">
        <path d="M12,1.45833333 C13.4571385,1.45833333 14.8267269,1.73402098 16.1084106,2.28707625 C17.391954,2.84093402 18.5088792,3.59206046 19.4584094,4.54159061 C20.4079395,5.49112076 21.159066,6.608046 21.7129238,7.89158941 C22.265979,9.17327305 22.5416667,10.5428615 22.5416667,12 C22.5416667,13.4392045 22.2658213,14.7995924 21.7129238,16.0809106 C21.1587156,17.365266 20.4070412,18.487237 19.4569193,19.4461563 C18.5078045,20.4040592 17.3913992,21.1593054 16.1084106,21.7129238 C14.8267269,22.265979 13.4571385,22.5416667 12,22.5416667 C10.5607955,22.5416667 9.20040757,22.2658213 7.91908941,21.7129238 C6.63528938,21.1589552 5.51384031,20.4031591 4.55534061,19.4446594 C3.59684091,18.4861597 2.84104476,17.3647106 2.28707625,16.0809106 C1.73417868,14.7995924 1.45833333,13.4392045 1.45833333,12 C1.45833333,10.5428615 1.73402098,9.17327305 2.28707625,7.89158941 C2.84069463,6.60860077 3.59594078,5.49219545 4.55384368,4.54308066 C5.51276295,3.59295881 6.63473405,2.84128438 7.91908941,2.28707625 C9.20040757,1.73417868 10.5607955,1.45833333 12,1.45833333 Z M12,2.19166667 C9.2885501,2.19166667 6.97630681,3.14387876 5.06297677,5.04759407 C3.14938233,6.95157246 2.19166667,9.26878484 2.19166667,12 C2.19166667,14.7117157 3.14860391,17.0242851 5.06215939,18.9378406 C6.97571487,20.8513961 9.28828431,21.8083333 12,21.8083333 C14.7312152,21.8083333 17.0484275,20.8506177 18.9524059,18.9370232 C20.8561212,17.0236932 21.8083333,14.7114499 21.8083333,12 C21.8083333,9.26905229 20.8553457,6.9521645 18.9515906,5.04840939 C17.0478355,3.14465429 14.7309477,2.19166667 12,2.19166667 Z" id="Shape-Copy" stroke="#D6D6D6" stroke-width="0.916666667"></path>
    </g>
</svg>