<?xml version="1.0" encoding="UTF-8"?>
<svg width="40px" height="37px" viewBox="0 0 40 37" version="1.1" xmlns="http://www.w3.org/2000/svg" xmlns:xlink="http://www.w3.org/1999/xlink">
    <title>Subjects</title>
    <g id="Subjects" stroke="none" stroke-width="1" fill="none" fill-rule="evenodd">
        <g id="1568615_book_catalog_marketing-medium_print_read_icon" transform="translate(1.000000, 1.000000)" fill="#FFFFFF" fill-rule="nonzero">
            <path d="M17.9220613,34.2609503 L17.9220613,12.1292128 C17.9192192,11.7466623 17.6990588,11.3997097 17.3559317,11.2370565 C12.398789,8.86081227 6.99555048,7.58138026 1.50839945,7.48452182 L0.911257307,7.48452182 C0.403090432,7.49096785 -0.00427689309,7.91080289 0,8.42363373 L0,30.4771119 C-0.00109428056,30.7278669 0.0984523192,30.9683951 0.275976583,31.1438548 C0.453500846,31.3193146 0.693869635,31.4147488 0.942277678,31.4083979 L1.49676682,31.4083979 C6.81177275,31.494609 12.0511098,32.6938219 16.882871,34.9300676 C17.1092201,35.0374794 17.374335,35.0202834 17.5851949,34.8845131 C17.7960549,34.7487429 17.923213,34.5133589 17.9220613,34.2609503 L17.9220613,34.2609503 Z" id="Path"></path>
            <path d="M2.58635736,5.62977578 C7.40746642,5.84576648 12.1511173,6.93251219 16.592055,8.83840816 C16.6477343,8.86758263 16.7163077,8.84568395 16.7452181,8.78949608 C16.7741285,8.73330822 16.752428,8.66410838 16.6967488,8.63493391 C10.1398178,4.55762301 4.44757964,3.5715555 2.91207126,3.36808125 C2.68307579,3.33732683 2.47086068,3.49448794 2.4312555,3.72416118 L2.17921498,5.11326423 C2.15534072,5.23787002 2.18666731,5.3667798 2.26495881,5.46610247 C2.34325031,5.56542513 2.46067358,5.62522333 2.58635736,5.62977578 Z" id="Path"></path>
            <path d="M5.96757783,2.0494116 C10.0964721,3.08000542 14.0390104,4.75963304 17.6506252,7.02670476 C17.7253703,7.06830863 17.8190814,7.04776481 17.8699843,6.97861579 C17.9208872,6.90946677 17.9133142,6.81299604 17.8522576,6.75279712 C12.7145086,2.31158034 8.03043252,0.492051006 6.67716883,0.0224950475 C6.45793638,-0.0514369925 6.2199818,0.0625807146 6.13818987,0.280750825 L5.66900676,1.45464072 C5.61861459,1.57290967 5.62280975,1.70764366 5.68046024,1.82248678 C5.73811074,1.9373299 5.84327565,2.02044752 5.96757783,2.0494116 Z" id="Path"></path>
            <path d="M37.0887654,7.49234775 L36.4916232,7.49234775 C31.0050408,7.58675731 25.6018292,8.86351471 20.644091,11.2370565 C20.2984383,11.4009199 20.0779692,11.7516563 20.0779692,12.1370388 L20.0779692,34.2609503 C20.078636,34.5101074 20.2042338,34.74199 20.4116937,34.8770833 C20.6191536,35.0121765 20.8802759,35.0321172 21.105519,34.9300676 C25.9372802,32.6938219 31.1766173,31.494609 36.4916232,31.4083979 L37.0461123,31.4083979 C37.2965037,31.4180033 37.539924,31.3240142 37.7200094,31.1481938 C37.9000947,30.9723734 38.0012269,30.7299699 38,30.4771119 L38,8.42363373 C38,7.91384835 37.5938961,7.49877361 37.0887654,7.49234775 Z" id="Path"></path>
            <path d="M21.4040901,8.84232113 C25.8450278,6.93642515 30.5886787,5.84967945 35.4097878,5.63368875 C35.5354715,5.6291363 35.6528948,5.5693381 35.7311863,5.47001543 C35.8094778,5.37069277 35.8408044,5.24178299 35.8169301,5.11717719 L35.5648896,3.72807415 C35.5252844,3.49840091 35.3130693,3.34123979 35.0840739,3.37199422 C33.5330553,3.57546846 27.8563273,4.54588411 21.2955188,8.63884688 C21.2398396,8.66910188 21.2190071,8.73917767 21.2489883,8.79536553 C21.2789694,8.8515534 21.3484109,8.87257613 21.4040901,8.84232113 L21.4040901,8.84232113 Z" id="Path"></path>
            <path d="M20.3493975,7.02670476 C23.9610123,4.75963304 27.9035506,3.08000542 32.0324448,2.0494116 C32.156747,2.02044752 32.2619119,1.9373299 32.3195624,1.82248678 C32.3772129,1.70764366 32.3814081,1.57290967 32.3310159,1.45464072 L31.8618328,0.280750825 C31.7785168,0.064128382 31.5410086,-0.0479511262 31.3228538,0.0264080138 C29.9695901,0.488138039 25.2855141,2.31158034 20.1632753,6.75279712 C20.1136048,6.81200725 20.1093091,6.89742633 20.1527842,6.96140675 C20.1962594,7.02538717 20.2767663,7.05212465 20.3493975,7.02670476 L20.3493975,7.02670476 Z" id="Path"></path>
        </g>
    </g>
</svg>