<?xml version="1.0" encoding="UTF-8"?>
<svg width="12px" height="12px" viewBox="0 0 12 12" version="1.1" xmlns="http://www.w3.org/2000/svg" xmlns:xlink="http://www.w3.org/1999/xlink">
    <title>Time duration</title>
    <g id="Time-duration" stroke="none" stroke-width="1" fill="none" fill-rule="evenodd">
        <g id="3643779_clock_hour_ticker_time_times_icon" transform="translate(1.000000, 1.000000)" fill="#FFFFFF" fill-rule="nonzero" stroke="#FFFFFF" stroke-width="0.6">
            <path d="M5,10 C2.23857625,10 0,7.76142375 0,5 C0,2.23857625 2.23857625,0 5,0 C7.76142375,0 10,2.23857625 10,5 C10,7.76142375 7.76142375,10 5,10 Z M5,0.666666667 C2.60676608,0.666666667 0.666666667,2.60676608 0.666666667,5 C0.666666667,7.39323392 2.60676608,9.33333333 5,9.33333333 C7.39323392,9.33333333 9.33333333,7.39323392 9.33333333,5 C9.33333333,3.85072854 8.87678703,2.74852825 8.06412939,1.93587061 C7.25147175,1.12321297 6.14927146,0.666666667 5,0.666666667 Z" id="Shape"></path>
            <path d="M6.41333333,6.88666667 L4.76333333,5.23666667 C4.70093783,5.17376039 4.66615441,5.08860099 4.66666109,5 L4.66666109,2.33333333 L5.33333333,2.33333333 L5.33333333,4.86333333 L6.88666667,6.41333333 L6.41333333,6.88666667 Z" id="Path"></path>
        </g>
    </g>
</svg>