<?xml version="1.0" encoding="UTF-8"?>
<svg width="16px" height="16px" viewBox="0 0 16 16" version="1.1" xmlns="http://www.w3.org/2000/svg" xmlns:xlink="http://www.w3.org/1999/xlink">
    <title>timer</title>
    <g id="timer" stroke="none" stroke-width="1" fill="none" fill-rule="evenodd">
        <g id="510867_alarm_calendar_clock_event_schedule_icon" transform="translate(1.000000, 1.000000)" fill="#279F84" fill-rule="nonzero">
            <path d="M7.67083174,1.6185007 L7.67083174,0.197921801 L6.31099273,0.197921801 L6.31099273,1.6185007 C3.2516949,1.96217245 0.871636663,4.5925035 0.871636663,7.78906481 C0.871636663,9.25553562 1.37511706,10.6005481 2.21243793,11.6629631 L1.22145525,12.6687896 L2.18286143,13.6445965 L3.17384412,12.63877 C4.22092016,13.4889781 5.54608328,14 6.99091223,14 C8.43574119,14 9.76090431,13.4889781 10.8076404,12.6391151 L11.7986231,13.6449415 L12.7600293,12.6691346 L11.7690466,11.6633082 C12.6067074,10.6005481 13.1101878,9.25553562 13.1101878,7.78906481 C13.1101878,4.5925035 10.7301296,1.96217245 7.67083174,1.6185007 Z M6.99091223,12.6197922 C4.36234342,12.6197922 2.23147568,10.4570065 2.23147568,7.78906481 C2.23147568,5.12112309 4.36234342,2.95833744 6.99091223,2.95833744 C9.61948105,2.95833744 11.7503488,5.12112309 11.7503488,7.78906481 C11.7503488,10.4570065 9.61948105,12.6197922 6.99091223,12.6197922 Z" id="Shape"></path>
            <polygon id="Path" points="7.67083174 4.33854526 6.31099273 4.33854526 6.31099273 8.13411677 8.39324622 10.24756 9.3546524 9.27175306 7.67083174 7.56236568"></polygon>
            <polygon id="Rectangle" transform="translate(1.707904, 1.736761) rotate(45.000000) translate(-1.707904, -1.736761) " points="1.01016814 0.0191560453 2.38017842 0.0293403495 2.40563918 3.45436605 1.0356289 3.44418174"></polygon>
            <polygon id="Rectangle" transform="translate(12.301983, 1.707904) rotate(45.000000) translate(-12.301983, -1.707904) " points="10.5843783 1.01016814 14.009404 1.0356289 14.0195883 2.40563918 10.5945626 2.38017842"></polygon>
        </g>
    </g>
</svg>