<?xml version="1.0" encoding="UTF-8"?>
<svg width="23px" height="23px" viewBox="0 0 23 23" version="1.1" xmlns="http://www.w3.org/2000/svg" xmlns:xlink="http://www.w3.org/1999/xlink">
    <title>Upload image</title>
    <g id="Upload-image" stroke="none" stroke-width="1" fill="none" fill-rule="evenodd">
        <g id="image_FILL0_wght400_GRAD0_opsz48" transform="translate(1.000000, 1.000000)" fill="#FFFFFF" fill-rule="nonzero">
            <path d="M1.75,21 C1.28333333,21 0.875,20.825 0.525,20.475 C0.175,20.125 0,19.7166667 0,19.25 L0,1.75 C0,1.28333333 0.175,0.875 0.525,0.525 C0.875,0.175 1.28333333,0 1.75,0 L19.25,0 C19.7166667,0 20.125,0.175 20.475,0.525 C20.825,0.875 21,1.28333333 21,1.75 L21,19.25 C21,19.7166667 20.825,20.125 20.475,20.475 C20.125,20.825 19.7166667,21 19.25,21 L1.75,21 Z M1.75,19.25 L19.25,19.25 L19.25,1.75 L1.75,1.75 L1.75,19.25 Z M3.38333333,16.4208333 L17.6458333,16.4208333 L13.3583333,10.7041667 L9.50833333,15.6916667 L6.79583333,11.9875 L3.38333333,16.4208333 Z M1.75,19.25 L1.75,1.75 L1.75,19.25 Z" id="Shape"></path>
        </g>
    </g>
</svg>