<?xml version="1.0" encoding="UTF-8"?>
<svg width="22px" height="22px" viewBox="0 0 22 22" version="1.1" xmlns="http://www.w3.org/2000/svg" xmlns:xlink="http://www.w3.org/1999/xlink">
    <title>Upload videos</title>
    <g id="Upload-videos" stroke="none" stroke-width="1" fill="none" fill-rule="evenodd">
        <g id="8757572_instagram-reel_menu_video_chatting_brand_icon" transform="translate(1.000000, 1.000000)" fill="#FFFFFF" stroke="#FFFFFF" stroke-width="0.2">
            <path d="M0,5.00018375 C0,2.2387903 2.23857273,0.000244998765 5,0.000244998765 L15,0.000244998765 C17.7614545,0.000244998765 20,2.2387903 20,5.00018375 L20,15.0000612 C20,17.761482 17.7614545,20 15,20 L5,20 C2.23857273,20 0,17.761482 0,15.0000612 L0,5.00018375 Z M5,1.81840454 C3.24272727,1.81840454 1.81818182,3.24293255 1.81818182,5.00018375 L1.81818182,15.0000612 C1.81818182,16.7573125 3.24272727,18.1818405 5,18.1818405 L15,18.1818405 C16.7572727,18.1818405 18.1818182,16.7573125 18.1818182,15.0000612 L18.1818182,5.00018375 C18.1818182,3.24293255 16.7572727,1.81840454 15,1.81840454 L5,1.81840454 Z" id="Shape"></path>
            <path d="M7.30744545,8.28468897 C7.60810909,8.1281727 7.9709,8.15190878 8.24863636,8.34632458 L12.7940909,11.5281038 C13.0370909,11.6981926 13.1818182,11.9761892 13.1818182,12.2728219 C13.1818182,12.5694547 13.0370909,12.8474513 12.7940909,13.0175401 L8.24863636,16.1993193 C7.9709,16.3937714 7.60810909,16.4174984 7.30744545,16.2609549 C7.00678182,16.1044114 6.81818182,15.793597 6.81818182,15.4546011 L6.81818182,9.09104273 C6.81818182,8.75204688 7.00678182,8.44123251 7.30744545,8.28468897 Z M8.63636364,10.8371122 L8.63636364,13.7085316 L10.6874545,12.2728219 L8.63636364,10.8371122 Z" id="Shape"></path>
            <path d="M0,6.36380341 C0,5.86173683 0.407018182,5.45472364 0.909090909,5.45472364 L19.0909091,5.45472364 C19.593,5.45472364 20,5.86173683 20,6.36380341 C20,6.86586999 19.593,7.27288318 19.0909091,7.27288318 L0.909090909,7.27288318 C0.407018182,7.27288318 0,6.86586999 0,6.36380341 Z" id="Path"></path>
            <path d="M6.0764,0.0468989727 C6.55271818,-0.111872719 7.06755455,0.145543219 7.22631818,0.621846475 L9.04454545,6.07632511 C9.20327273,6.55263746 8.94581818,7.06746752 8.46954545,7.22622921 C7.99323636,7.38499999 7.4784,7.12758496 7.31962727,6.6512817 L5.50144545,1.19680307 C5.34267273,0.720490721 5.60009091,0.205660664 6.0764,0.0468989727 Z" id="Path"></path>
            <path d="M11.5309091,0.0468989727 C12.0072727,-0.111872719 12.5220909,0.145543219 12.6809091,0.621846475 L14.4990909,6.07632511 C14.6578182,6.55263746 14.4003636,7.06746752 13.9240909,7.22622921 C13.4478182,7.38499999 12.9329091,7.12758496 12.7741818,6.6512817 L10.956,1.19680307 C10.7971818,0.720490721 11.0546364,0.205660664 11.5309091,0.0468989727 Z" id="Path"></path>
        </g>
    </g>
</svg>