<?xml version="1.0" encoding="UTF-8"?>
<svg width="15px" height="19px" viewBox="0 0 15 19" version="1.1" xmlns="http://www.w3.org/2000/svg" xmlns:xlink="http://www.w3.org/1999/xlink">
    <title>upload pdf</title>
    <g id="upload-pdf" stroke="none" stroke-width="1" fill="none" fill-rule="evenodd">
        <g id="8172178_pdf_file_extention_format_icon" transform="translate(1.000000, 1.000000)" fill="#7A60E0" fill-rule="nonzero">
            <path d="M11.05,15.0384615 L12.35,15.0384615 L12.35,15.6923077 C12.35,16.4145262 11.7679702,17 11.05,17 L1.95,17 C1.23202983,17 0.65,16.4145262 0.65,15.6923077 L0.65,15.0384615 L1.95,15.0384615 L1.95,15.6923077 L11.05,15.6923077 L11.05,15.0384615 Z M1.95,1.30769231 L7.8,1.30769231 L7.8,3.26923077 C7.8,3.63034003 8.09101491,3.92307692 8.45,3.92307692 L11.05,3.92307692 L11.05,8.5 L12.35,8.5 L12.35,3.00115385 L9.3665,0 L1.95,0 C1.23202983,0 0.65,0.585473789 0.65,1.30769231 L0.65,8.5 L1.95,8.5 L1.95,1.30769231 Z M12.35,9.15384615 L0.65,9.15384615 C0.328453992,9.12300643 0.0406727173,9.35459373 0,9.67692308 L0,13.8615385 C0.0406727173,14.1838678 0.328453992,14.4154551 0.65,14.3846154 L12.35,14.3846154 C12.671546,14.4154551 12.9593273,14.1838678 13,13.8615385 L13,9.67692308 C12.9593273,9.35459373 12.671546,9.12300643 12.35,9.15384615 Z M5.4925,11.1153846 C5.49698137,11.2267549 5.47930216,11.3379037 5.4405,11.4423077 C5.40704587,11.533622 5.35374992,11.6162728 5.2845,11.6842308 C5.21139554,11.7516549 5.12503264,11.8028882 5.031,11.8346154 C4.91744046,11.8704134 4.79899978,11.888064 4.68,11.8869231 L4.5045,11.8869231 L4.5045,12.5930769 C4.50756966,12.6037556 4.50756966,12.6150905 4.5045,12.6257692 L4.4655,12.6257692 L4.407,12.6257692 L4.2055,12.6257692 L4.1405,12.6257692 L4.1015,12.6257692 C4.09843034,12.6150905 4.09843034,12.6037556 4.1015,12.5930769 L4.1015,10.5792308 C4.09787765,10.5362768 4.11198133,10.4937154 4.1405,10.4615385 C4.16807113,10.4342235 4.20587234,10.4199641 4.2445,10.4223077 L4.8945,10.4223077 L5.0505,10.4223077 C5.11666952,10.4362746 5.18026765,10.4605408 5.239,10.4942308 C5.29810515,10.5284487 5.35088274,10.5726902 5.395,10.625 C5.43990352,10.6819506 5.47505218,10.7460346 5.499,10.8146154 C5.51736192,10.9142592 5.51514939,11.0166376 5.4925,11.1153846 L5.4925,11.1153846 Z M5.057,11.1480769 C5.05921302,11.0805417 5.04586506,11.013407 5.018,10.9519231 C4.99684599,10.9081451 4.96565651,10.8700481 4.927,10.8407692 C4.89040209,10.8199089 4.85099275,10.8044924 4.81,10.795 L4.5045,10.795 L4.5045,11.5469231 L4.693,11.5469231 C4.75093433,11.5474421 4.80838929,11.5363277 4.862,11.5142308 C4.90371242,11.4958331 4.94129817,11.469145 4.9725,11.4357692 C4.9992998,11.3972892 5.02114066,11.355546 5.0375,11.3115385 C5.05381759,11.2475209 5.06039229,11.1813848 5.057,11.1153846 L5.057,11.1480769 Z M7.527,11.5142308 C7.5311224,11.691806 7.50473483,11.8687641 7.449,12.0373077 C7.40889819,12.1701116 7.33754768,12.291228 7.241,12.3903846 C7.14490352,12.4826356 7.02937489,12.551916 6.903,12.5930769 C6.7509999,12.6376911 6.59333364,12.6597187 6.435,12.6584615 L5.941,12.6584615 C5.9082636,12.6594987 5.87695416,12.6449626 5.8565,12.6192308 C5.82859931,12.5919818 5.81429064,12.5535996 5.8175,12.5146154 L5.8175,10.5530769 C5.81623876,10.519497 5.82787688,10.4867174 5.85,10.4615385 C5.87670345,10.4486229 5.90779655,10.4486229 5.9345,10.4615385 L6.5,10.4615385 C6.65852503,10.4570784 6.81668347,10.4791748 6.968,10.5269231 C7.09092551,10.5705192 7.20215865,10.6421296 7.293,10.7361538 C7.38024607,10.8325313 7.44664761,10.9460819 7.488,11.0696154 C7.52193729,11.208543 7.53508195,11.3517861 7.527,11.4946154 L7.527,11.5142308 Z M7.0915,11.5142308 C7.09128676,11.4174188 7.08038663,11.3209301 7.059,11.2265385 C7.0382226,11.14142 7.00064468,11.0613723 6.9485,10.9911538 C6.89563247,10.9251893 6.82908213,10.871634 6.7535,10.8342308 C6.65598889,10.7970812 6.55223824,10.779317 6.448,10.7819231 L6.2335,10.7819231 L6.2335,12.2857692 L6.4545,12.2857692 C6.55187775,12.2892453 6.64900219,12.2737023 6.7405,12.24 C6.81537105,12.2073148 6.88200504,12.1581607 6.9355,12.0961538 C6.98983416,12.0239741 7.02958288,11.9417849 7.0525,11.8542308 C7.08082298,11.7409876 7.0939396,11.6244386 7.0915,11.5076923 L7.0915,11.5142308 Z M9.0415,10.6119231 C9.0415,10.6446154 9.0415,10.6773077 9.0415,10.6969231 C9.04594448,10.7162837 9.04594448,10.7364086 9.0415,10.7557692 L9.0415,10.7557692 L8.3915,10.7557692 L8.3915,11.3507692 L9.0415,11.3507692 L9.0415,11.3507692 C9.0415,11.3507692 9.0415,11.3834615 9.0415,11.4030769 L9.0415,11.5730769 C9.04287279,11.592668 9.04287279,11.612332 9.0415,11.6319231 L9.0415,11.6646154 L8.3915,11.6646154 L8.3915,12.495 C8.3915,12.495 8.3915,12.495 8.3915,12.5276923 L8.359,12.5276923 L8.294,12.5276923 L8.0925,12.5276923 L8.0275,12.5276923 L7.995,12.5276923 C7.995,12.5276923 7.995,12.5276923 7.995,12.495 L7.995,10.5596154 C7.99179064,10.5206312 8.00609931,10.4822489 8.034,10.455 C8.06070345,10.4420844 8.09179655,10.4420844 8.1185,10.455 L9.113,10.455 L9.113,10.4876923 C9.11744448,10.5070529 9.11744448,10.5271778 9.113,10.5465385 C9.113,10.5465385 9.022,10.5726923 9.022,10.6053846 L9.0415,10.6119231 Z" id="Shape"></path>
        </g>
    </g>
</svg>