<?xml version="1.0" encoding="UTF-8"?>
<svg width="23px" height="23px" viewBox="0 0 23 23" version="1.1" xmlns="http://www.w3.org/2000/svg" xmlns:xlink="http://www.w3.org/1999/xlink">
    <title>Upload CSV</title>
    <g id="Upload-CSV" stroke="none" stroke-width="1" fill="none" fill-rule="evenodd">
        <g id="8172157_csv_file_extention_format_icon" transform="translate(3.000000, 1.000000)" fill="#FFFFFF" fill-rule="nonzero">
            <path d="M16.15,11.3076923 L0.85,11.3076923 C0.429516759,11.2695962 0.0531873996,11.5556746 0,11.9538462 L0,17.1230769 C0.0531873996,17.5212485 0.429516759,17.8073269 0.85,17.7692308 L16.15,17.7692308 C16.5704832,17.8073269 16.9468126,17.5212485 17,17.1230769 L17,11.9538462 C16.9468126,11.5556746 16.5704832,11.2695962 16.15,11.3076923 Z M7.2845,15.2815385 C7.2845,15.2815385 7.2845,15.33 7.2845,15.3461538 C7.2845,15.3623077 7.2845,15.3461538 7.2845,15.3946154 L7.2845,15.435 C7.25767656,15.4617065 7.22600262,15.4835955 7.191,15.4996154 L7.038,15.5723077 L6.817,15.6288462 C6.72940884,15.6376112 6.64109116,15.6376112 6.5535,15.6288462 C6.38467475,15.6297177 6.21726612,15.5995481 6.0605,15.54 C5.91358982,15.4832708 5.78262289,15.3947743 5.678,15.2815385 C5.57047051,15.1546946 5.48966471,15.0093539 5.44,14.8534615 C5.38585954,14.6584917 5.36011964,14.4573866 5.3635,14.2557692 C5.3585226,14.0455674 5.38718296,13.8358669 5.4485,13.6338462 C5.50039551,13.4682264 5.5871489,13.3143471 5.7035,13.1815385 C5.81075419,13.0581005 5.94781031,12.9611175 6.103,12.8988462 C6.26087317,12.8326055 6.43193927,12.7995442 6.6045,12.8019231 C6.67505446,12.7934765 6.74644554,12.7934765 6.817,12.8019231 C6.8844136,12.8083642 6.9503659,12.8247128 7.0125,12.8503846 C7.07007504,12.8662601 7.12459997,12.8908021 7.174,12.9230769 L7.2675,12.9876923 L7.2675,13.0361538 C7.2675,13.0361538 7.2675,13.0361538 7.2675,13.0846154 C7.2675,13.1330769 7.2675,13.0846154 7.2675,13.1573077 L7.2675,13.3592308 C7.26929519,13.3834315 7.26929519,13.4077223 7.2675,13.4319231 L7.2675,13.4319231 C7.23886851,13.4247019 7.21257843,13.4108233 7.191,13.3915385 L7.0635,13.3107692 C7.00750886,13.2773402 6.94760374,13.2502338 6.885,13.23 C6.80597432,13.2028604 6.72252738,13.1891891 6.6385,13.1896154 C6.53812071,13.1889324 6.43902719,13.211088 6.3495,13.2542308 C6.26494214,13.3037228 6.192491,13.369814 6.137,13.4480769 C6.07350318,13.5393065 6.02746266,13.6404758 6.001,13.7469231 C5.97246692,13.8770944 5.958224,14.0097276 5.9585,14.1426923 C5.95606292,14.2842108 5.97320974,14.4254199 6.0095,14.5626923 C6.03409442,14.6672256 6.08032471,14.7660664 6.1455,14.8534615 C6.20480299,14.9250756 6.28034508,14.9830534 6.3665,15.0230769 C6.45528804,15.0589354 6.55053784,15.0781342 6.647,15.0796154 C6.73386384,15.0808308 6.82024635,15.0671503 6.902,15.0392308 L7.0805,14.9665385 L7.208,14.8857692 L7.2845,14.8857692 L7.2845,14.8857692 C7.28629519,14.90997 7.28629519,14.9342608 7.2845,14.9584615 L7.2845,15.2815385 Z M9.1885,15.1684615 C9.14042653,15.2717918 9.06766836,15.3630523 8.976,15.435 C8.8835341,15.5101128 8.77677504,15.5676898 8.6615,15.6046154 C8.5374125,15.6403769 8.40865611,15.6594088 8.279,15.6611538 C8.19138735,15.669521 8.10311265,15.669521 8.0155,15.6611538 L7.803,15.6046154 L7.65,15.5076923 C7.61850205,15.4902081 7.58986548,15.4684391 7.565,15.4430769 C7.55887337,15.4191958 7.55887337,15.3942657 7.565,15.3703846 C7.55942623,15.3193679 7.55942623,15.2679398 7.565,15.2169231 C7.560433,15.1793557 7.560433,15.1414135 7.565,15.1038462 C7.565,15.1038462 7.565,15.0553846 7.565,15.0392308 C7.56173762,15.0259477 7.56173762,15.0121292 7.565,14.9988462 L7.565,14.9988462 C7.59363149,15.0060673 7.61992157,15.019946 7.6415,15.0392308 L7.7775,15.1119231 L7.973,15.1926923 C8.06307885,15.2065663 8.15492115,15.2065663 8.245,15.1926923 C8.30411867,15.2017447 8.36438133,15.2017447 8.4235,15.1926923 C8.47123295,15.1760529 8.51685141,15.1543789 8.5595,15.1280769 C8.59255234,15.093798 8.62109518,15.055827 8.6445,15.015 C8.65260346,14.9668443 8.65260346,14.9177711 8.6445,14.8696154 C8.64575207,14.812019 8.62791043,14.755507 8.5935,14.7080769 C8.55537026,14.6637428 8.51265643,14.623155 8.466,14.5869231 L8.279,14.49 C8.20775854,14.4642594 8.13941599,14.431789 8.075,14.3930769 C7.99977256,14.3633798 7.92845545,14.3254301 7.8625,14.28 C7.79340707,14.2399248 7.73285604,14.1878674 7.684,14.1265385 C7.62375568,14.0677224 7.57992884,13.995537 7.5565,13.9165385 C7.51982882,13.8208681 7.5025249,13.7194718 7.5055,13.6176923 C7.50013378,13.5011318 7.52341564,13.3849858 7.5735,13.2784615 C7.61648021,13.1812492 7.68355125,13.0953487 7.769,13.0280769 C7.85198776,12.9632024 7.94716903,12.9138694 8.0495,12.8826923 C8.16527462,12.8496419 8.28561751,12.8333057 8.4065,12.8342308 C8.46855036,12.8262491 8.53144964,12.8262491 8.5935,12.8342308 C8.6547977,12.839092 8.71497389,12.8527065 8.772,12.8746154 L8.9165,12.9311538 C8.94908006,12.9393582 8.97854986,12.95616 9.0015,12.9796154 L9.0015,13.02 C9.0015,13.02 9.0015,13.02 9.0015,13.02 C9.00632601,13.0412944 9.00632601,13.063321 9.0015,13.0846154 L9.0015,13.2784615 C9.0015,13.2784615 9.0015,13.335 9.0015,13.3511538 L9.0015,13.3915385 L9.0015,13.3915385 L8.925,13.3915385 L8.806,13.3269231 C8.69011215,13.2694513 8.5625482,13.2363928 8.432,13.23 C8.37858977,13.22093 8.32391023,13.22093 8.2705,13.23 C8.22911233,13.243551 8.1913818,13.2656141 8.16,13.2946154 C8.13262404,13.3207026 8.10968335,13.350676 8.092,13.3834615 C8.08785052,13.4237499 8.08785052,13.464327 8.092,13.5046154 C8.09076512,13.5597083 8.10869147,13.6136496 8.143,13.6580769 C8.17418531,13.7079456 8.21801914,13.7495977 8.2705,13.7792308 L8.4575,13.8761538 L8.67,13.9730769 L8.8825,14.0861538 C8.94774666,14.1309279 9.00760728,14.1823918 9.061,14.2396154 C9.11900498,14.3014512 9.16504703,14.3725455 9.197,14.4496154 C9.28649344,14.6649865 9.28649344,14.9046289 9.197,15.12 L9.1885,15.1684615 Z M11.781,13.0846154 L10.982,15.5076923 L10.982,15.5723077 L10.9225,15.5723077 L10.8205,15.5723077 L10.3445,15.5723077 L10.302,15.5723077 C10.302,15.5723077 10.302,15.5723077 10.302,15.5723077 C10.2974592,15.5591919 10.2974592,15.5450389 10.302,15.5319231 L9.503,13.1088462 C9.49728228,13.0686443 9.49728228,13.0278942 9.503,12.9876923 C9.49446544,12.9669172 9.49446544,12.943852 9.503,12.9230769 C9.53340312,12.9138061 9.56609688,12.9138061 9.5965,12.9230769 L9.9195,12.9230769 L10.0045,12.9230769 L10.0045,12.9796154 L10.659,15.0876923 L11.305,12.9876923 C11.2999617,12.9691502 11.2999617,12.949696 11.305,12.9311538 C11.3189381,12.9277342 11.3335619,12.9277342 11.3475,12.9311538 L11.4325,12.9311538 L11.7385,12.9311538 C11.7385,12.9311538 11.798,12.9311538 11.8065,12.9311538 C11.8150346,12.9519289 11.8150346,12.9749942 11.8065,12.9957692 C11.8065,12.9957692 11.798,13.0361538 11.781,13.0846154 L11.781,13.0846154 Z M14.45,18.5769231 L16.15,18.5769231 L16.15,19.3846154 C16.15,20.2767677 15.3888841,21 14.45,21 L2.55,21 C1.61111593,21 0.85,20.2767677 0.85,19.3846154 L0.85,18.5769231 L2.55,18.5769231 L2.55,19.3846154 L14.45,19.3846154 L14.45,18.5769231 Z M2.55,10.5 L0.85,10.5 L0.85,1.61538462 C0.85,0.723232327 1.61111593,0 2.55,0 L12.2485,0 L16.15,3.70730769 L16.15,10.5 L14.45,10.5 L14.45,4.84615385 L11.05,4.84615385 C10.580558,4.84615385 10.2,4.48453768 10.2,4.03846154 L10.2,1.61538462 L2.55,1.61538462 L2.55,10.5 Z M16.15,11.3076923 L0.85,11.3076923 C0.429516759,11.2695962 0.0531873996,11.5556746 0,11.9538462 L0,17.1230769 C0.0531873996,17.5212485 0.429516759,17.8073269 0.85,17.7692308 L16.15,17.7692308 C16.5704832,17.8073269 16.9468126,17.5212485 17,17.1230769 L17,11.9538462 C16.9468126,11.5556746 16.5704832,11.2695962 16.15,11.3076923 Z M7.2845,15.2815385 C7.2845,15.2815385 7.2845,15.33 7.2845,15.3461538 C7.2845,15.3623077 7.2845,15.3461538 7.2845,15.3946154 L7.2845,15.435 C7.25767656,15.4617065 7.22600262,15.4835955 7.191,15.4996154 L7.038,15.5723077 L6.817,15.6288462 C6.72940884,15.6376112 6.64109116,15.6376112 6.5535,15.6288462 C6.38467475,15.6297177 6.21726612,15.5995481 6.0605,15.54 C5.91358982,15.4832708 5.78262289,15.3947743 5.678,15.2815385 C5.57047051,15.1546946 5.48966471,15.0093539 5.44,14.8534615 C5.38585954,14.6584917 5.36011964,14.4573866 5.3635,14.2557692 C5.3585226,14.0455674 5.38718296,13.8358669 5.4485,13.6338462 C5.50039551,13.4682264 5.5871489,13.3143471 5.7035,13.1815385 C5.81075419,13.0581005 5.94781031,12.9611175 6.103,12.8988462 C6.26087317,12.8326055 6.43193927,12.7995442 6.6045,12.8019231 C6.67505446,12.7934765 6.74644554,12.7934765 6.817,12.8019231 C6.8844136,12.8083642 6.9503659,12.8247128 7.0125,12.8503846 C7.07007504,12.8662601 7.12459997,12.8908021 7.174,12.9230769 L7.2675,12.9876923 L7.2675,13.0361538 C7.2675,13.0361538 7.2675,13.0361538 7.2675,13.0846154 C7.2675,13.1330769 7.2675,13.0846154 7.2675,13.1573077 L7.2675,13.3592308 C7.26929519,13.3834315 7.26929519,13.4077223 7.2675,13.4319231 L7.2675,13.4319231 C7.23886851,13.4247019 7.21257843,13.4108233 7.191,13.3915385 L7.0635,13.3107692 C7.00750886,13.2773402 6.94760374,13.2502338 6.885,13.23 C6.80597432,13.2028604 6.72252738,13.1891891 6.6385,13.1896154 C6.53812071,13.1889324 6.43902719,13.211088 6.3495,13.2542308 C6.26494214,13.3037228 6.192491,13.369814 6.137,13.4480769 C6.07350318,13.5393065 6.02746266,13.6404758 6.001,13.7469231 C5.97246692,13.8770944 5.958224,14.0097276 5.9585,14.1426923 C5.95606292,14.2842108 5.97320974,14.4254199 6.0095,14.5626923 C6.03409442,14.6672256 6.08032471,14.7660664 6.1455,14.8534615 C6.20480299,14.9250756 6.28034508,14.9830534 6.3665,15.0230769 C6.45528804,15.0589354 6.55053784,15.0781342 6.647,15.0796154 C6.73386384,15.0808308 6.82024635,15.0671503 6.902,15.0392308 L7.0805,14.9665385 L7.208,14.8857692 L7.2845,14.8857692 L7.2845,14.8857692 C7.28629519,14.90997 7.28629519,14.9342608 7.2845,14.9584615 L7.2845,15.2815385 Z M9.1885,15.1684615 C9.14042653,15.2717918 9.06766836,15.3630523 8.976,15.435 C8.8835341,15.5101128 8.77677504,15.5676898 8.6615,15.6046154 C8.5374125,15.6403769 8.40865611,15.6594088 8.279,15.6611538 C8.19138735,15.669521 8.10311265,15.669521 8.0155,15.6611538 L7.803,15.6046154 L7.65,15.5076923 C7.61850205,15.4902081 7.58986548,15.4684391 7.565,15.4430769 C7.55887337,15.4191958 7.55887337,15.3942657 7.565,15.3703846 C7.55942623,15.3193679 7.55942623,15.2679398 7.565,15.2169231 C7.560433,15.1793557 7.560433,15.1414135 7.565,15.1038462 C7.565,15.1038462 7.565,15.0553846 7.565,15.0392308 C7.56173762,15.0259477 7.56173762,15.0121292 7.565,14.9988462 L7.565,14.9988462 C7.59363149,15.0060673 7.61992157,15.019946 7.6415,15.0392308 L7.7775,15.1119231 L7.973,15.1926923 C8.06307885,15.2065663 8.15492115,15.2065663 8.245,15.1926923 C8.30411867,15.2017447 8.36438133,15.2017447 8.4235,15.1926923 C8.47123295,15.1760529 8.51685141,15.1543789 8.5595,15.1280769 C8.59255234,15.093798 8.62109518,15.055827 8.6445,15.015 C8.65260346,14.9668443 8.65260346,14.9177711 8.6445,14.8696154 C8.64575207,14.812019 8.62791043,14.755507 8.5935,14.7080769 C8.55537026,14.6637428 8.51265643,14.623155 8.466,14.5869231 L8.279,14.49 C8.20775854,14.4642594 8.13941599,14.431789 8.075,14.3930769 C7.99977256,14.3633798 7.92845545,14.3254301 7.8625,14.28 C7.79340707,14.2399248 7.73285604,14.1878674 7.684,14.1265385 C7.62375568,14.0677224 7.57992884,13.995537 7.5565,13.9165385 C7.51982882,13.8208681 7.5025249,13.7194718 7.5055,13.6176923 C7.50013378,13.5011318 7.52341564,13.3849858 7.5735,13.2784615 C7.61648021,13.1812492 7.68355125,13.0953487 7.769,13.0280769 C7.85198776,12.9632024 7.94716903,12.9138694 8.0495,12.8826923 C8.16527462,12.8496419 8.28561751,12.8333057 8.4065,12.8342308 C8.46855036,12.8262491 8.53144964,12.8262491 8.5935,12.8342308 C8.6547977,12.839092 8.71497389,12.8527065 8.772,12.8746154 L8.9165,12.9311538 C8.94908006,12.9393582 8.97854986,12.95616 9.0015,12.9796154 L9.0015,13.02 C9.0015,13.02 9.0015,13.02 9.0015,13.02 C9.00632601,13.0412944 9.00632601,13.063321 9.0015,13.0846154 L9.0015,13.2784615 C9.0015,13.2784615 9.0015,13.335 9.0015,13.3511538 L9.0015,13.3915385 L9.0015,13.3915385 L8.925,13.3915385 L8.806,13.3269231 C8.69011215,13.2694513 8.5625482,13.2363928 8.432,13.23 C8.37858977,13.22093 8.32391023,13.22093 8.2705,13.23 C8.22911233,13.243551 8.1913818,13.2656141 8.16,13.2946154 C8.13262404,13.3207026 8.10968335,13.350676 8.092,13.3834615 C8.08785052,13.4237499 8.08785052,13.464327 8.092,13.5046154 C8.09076512,13.5597083 8.10869147,13.6136496 8.143,13.6580769 C8.17418531,13.7079456 8.21801914,13.7495977 8.2705,13.7792308 L8.4575,13.8761538 L8.67,13.9730769 L8.8825,14.0861538 C8.94774666,14.1309279 9.00760728,14.1823918 9.061,14.2396154 C9.11900498,14.3014512 9.16504703,14.3725455 9.197,14.4496154 C9.28649344,14.6649865 9.28649344,14.9046289 9.197,15.12 L9.1885,15.1684615 Z M11.781,13.0846154 L10.982,15.5076923 L10.982,15.5723077 L10.9225,15.5723077 L10.8205,15.5723077 L10.3445,15.5723077 L10.302,15.5723077 C10.302,15.5723077 10.302,15.5723077 10.302,15.5723077 C10.2974592,15.5591919 10.2974592,15.5450389 10.302,15.5319231 L9.503,13.1088462 C9.49728228,13.0686443 9.49728228,13.0278942 9.503,12.9876923 C9.49446544,12.9669172 9.49446544,12.943852 9.503,12.9230769 C9.53340312,12.9138061 9.56609688,12.9138061 9.5965,12.9230769 L9.9195,12.9230769 L10.0045,12.9230769 L10.0045,12.9796154 L10.659,15.0876923 L11.305,12.9876923 C11.2999617,12.9691502 11.2999617,12.949696 11.305,12.9311538 C11.3189381,12.9277342 11.3335619,12.9277342 11.3475,12.9311538 L11.4325,12.9311538 L11.7385,12.9311538 C11.7385,12.9311538 11.798,12.9311538 11.8065,12.9311538 C11.8150346,12.9519289 11.8150346,12.9749942 11.8065,12.9957692 C11.8065,12.9957692 11.798,13.0361538 11.781,13.0846154 L11.781,13.0846154 Z" id="Shape"></path>
        </g>
    </g>
</svg>