<?xml version="1.0" encoding="UTF-8"?>
<svg width="30px" height="26px" viewBox="0 0 30 26" version="1.1" xmlns="http://www.w3.org/2000/svg" xmlns:xlink="http://www.w3.org/1999/xlink">
    <title>upload image -1</title>
    <g id="upload-image--1" stroke="none" stroke-width="1" fill="none" fill-rule="evenodd">
        <g id="739353_image_photo_picture_gallery_photography_icon" transform="translate(1.000000, 1.000000)" fill="#B2B2B2" fill-rule="nonzero">
            <path d="M26.1333333,0 L1.86666667,0 C0.84,0 0,0.830769231 0,1.84615385 L0,22.1538462 C0,23.1692308 0.84,24 1.86666667,24 L26.1333333,24 C27.16,24 28,23.1692308 28,22.1538462 L28,1.84615385 C28,0.830769231 27.16,0 26.1333333,0 Z M17.7333333,3.69230769 C19.32,3.69230769 20.5333333,4.89230769 20.5333333,6.46153846 C20.5333333,8.03076923 19.32,9.23076923 17.7333333,9.23076923 C16.1466667,9.23076923 14.9333333,8.03076923 14.9333333,6.46153846 C14.9333333,4.89230769 16.1466667,3.69230769 17.7333333,3.69230769 Z M23.3333333,20.3076923 L4.66666667,20.3076923 C4.2,20.3076923 3.73333333,19.9384615 3.73333333,19.3846154 C3.73333333,19.1076923 3.82666667,18.9230769 4.10666667,18.4615385 L9.33333333,9.87692308 C9.61333333,9.41538462 9.89333333,9.23076923 10.2666667,9.23076923 C10.5466667,9.23076923 10.8266667,9.32307692 11.2,9.87692308 L14.9333333,15.6923077 L17.7333333,13.3846154 C18.0133333,13.1076923 18.2933333,12.9230769 18.6666667,12.9230769 C18.9466667,12.9230769 19.2266667,13.0153846 19.6,13.4769231 L23.8,18.4615385 C24.08,18.8307692 24.2666667,19.0153846 24.2666667,19.3846154 C24.2666667,19.8461538 23.8933333,20.3076923 23.3333333,20.3076923 Z" id="Shape"></path>
        </g>
    </g>
</svg>