<?xml version="1.0" encoding="UTF-8"?>
<svg width="34px" height="34px" viewBox="0 0 34 34" version="1.1" xmlns="http://www.w3.org/2000/svg" xmlns:xlink="http://www.w3.org/1999/xlink">
    <title>videos green</title>
    <g id="videos-green" stroke="none" stroke-width="1" fill="none" fill-rule="evenodd">
        <g id="8757572_instagram-reel_menu_video_chatting_brand_icon" transform="translate(8.527478, 8.500000)" fill="#54A65E" stroke="#54A65E" stroke-width="0.3">
            <path d="M0,4.25015619 C0,1.90297176 1.90893807,0.00020824895 4.26373922,0.00020824895 L12.7912177,0.00020824895 C15.1460421,0.00020824895 17.0549569,1.90297176 17.0549569,4.25015619 L17.0549569,12.7500521 C17.0549569,15.0972597 15.1460421,17 12.7912177,17 L4.26373922,17 C1.90893807,17 0,15.0972597 0,12.7500521 L0,4.25015619 Z M4.26373922,1.54564386 C2.76522869,1.54564386 1.55045063,2.75649267 1.55045063,4.25015619 L1.55045063,12.7500521 C1.55045063,14.2437156 2.76522869,15.4545644 4.26373922,15.4545644 L12.7912177,15.4545644 C14.2897282,15.4545644 15.5045063,14.2437156 15.5045063,12.7500521 L15.5045063,4.25015619 C15.5045063,2.75649267 14.2897282,1.54564386 12.7912177,1.54564386 L4.26373922,1.54564386 Z" id="Shape"></path>
            <path d="M6.23140836,7.04198562 C6.48779863,6.9089468 6.7971678,6.92912246 7.03400688,7.09437589 L10.9101334,9.79888821 C11.1173512,9.94346372 11.240767,10.1797608 11.240767,10.4318986 C11.240767,10.6840365 11.1173512,10.9203336 10.9101334,11.0649091 L7.03400688,13.7694214 C6.7971678,13.9347057 6.48779863,13.9548737 6.23140836,13.8218117 C5.97501809,13.6887497 5.81418985,13.4245574 5.81418985,13.136411 L5.81418985,7.72738632 C5.81418985,7.43923985 5.97501809,7.17504763 6.23140836,7.04198562 Z M7.36464048,9.21154541 L7.36464048,11.6522519 L9.11370383,10.4318986 L7.36464048,9.21154541 Z" id="Shape"></path>
            <path d="M0,5.4092329 C0,4.98247631 0.347083877,4.63651509 0.775225313,4.63651509 L16.2797316,4.63651509 C16.7078885,4.63651509 17.0549569,4.98247631 17.0549569,5.4092329 C17.0549569,5.83598949 16.7078885,6.1819507 16.2797316,6.1819507 L0.775225313,6.1819507 C0.347083877,6.1819507 0,5.83598949 0,5.4092329 Z" id="Path"></path>
            <path d="M5.181637,0.0398641268 C5.58781631,-0.0950918109 6.02684191,0.123711736 6.16222726,0.528569504 L7.71271664,5.16487634 C7.84807098,5.56974184 7.62852717,6.00734739 7.22238663,6.14229483 C6.81621508,6.27724999 6.37718948,6.05844722 6.24179638,5.65358945 L4.69134575,1.01728261 C4.55595265,0.612417113 4.77546545,0.174811565 5.181637,0.0398641268 Z" id="Path"></path>
            <path d="M9.83295788,0.0398641268 C10.2391759,-0.0950918109 10.678186,0.123711736 10.8136179,0.528569504 L12.3640685,5.16487634 C12.4994229,5.56974184 12.2798791,6.00734739 11.8737385,6.14229483 C11.467598,6.27724999 11.0285104,6.05844722 10.893156,5.65358945 L9.34270539,1.01728261 C9.20727353,0.612417113 9.42681733,0.174811565 9.83295788,0.0398641268 Z" id="Path"></path>
        </g>
    </g>
</svg>