<?xml version="1.0" encoding="UTF-8"?>
<svg width="40px" height="37px" viewBox="0 0 40 37" version="1.1" xmlns="http://www.w3.org/2000/svg" xmlns:xlink="http://www.w3.org/1999/xlink">
    <title>Videos</title>
    <g id="Videos" stroke="none" stroke-width="1" fill="none" fill-rule="evenodd">
        <g id="5782820_media_movie_multimedia_page_video_icon" transform="translate(1.000000, 1.000000)" fill="#FFFFFF" fill-rule="nonzero">
            <path d="M0,7.72835934 L0,33.4807499 C0,34.3174383 0.689453354,35 1.53458972,35 L36.4654103,35 C37.3105466,35 38,34.3174383 38,33.4807499 L38,7.72835934 L0,7.72835934 Z M24.7180147,22.471691 L14.918881,28.5486915 C14.7454056,28.6587821 14.5452417,28.7160292 14.3406298,28.7160292 C14.1582582,28.7160292 13.9803348,28.671993 13.8157556,28.5839205 C13.4643568,28.3945647 13.2508486,28.0290639 13.2508486,27.6371414 L13.2508486,15.4743332 C13.2508486,15.078007 13.4688049,14.7125063 13.8157556,14.5231505 C14.1627063,14.3337947 14.5852745,14.3514092 14.923329,14.5627831 L24.7180147,20.6397836 C25.042725,20.8423503 25.2339927,21.1902365 25.2296206,21.5645445 C25.2296206,21.9344489 25.038277,22.2735279 24.7180147,22.471691 Z" id="Shape"></path>
            <path d="M37.8398689,0.858706593 C37.5907761,0.352289884 37.0659019,0 36.4565141,0 L1.53458972,0 C0.689453354,0 0,0.682561651 0,1.51925013 L0,5.96250629 L38,5.96250629 L38,0.858706593 L37.8398689,0.858706593 Z M4.43029381,4.00729743 L2.62437083,4.00729743 L2.62437083,2.24584801 L4.43029381,2.24584801 L4.43029381,4.00729743 Z M7.72187756,4.00729743 L5.91595458,4.00729743 L5.91595458,2.24584801 L7.72187756,2.24584801 L7.72187756,4.00729743 Z M11.0045651,4.00729743 L9.20309025,4.00729743 L9.20309025,2.24584801 L11.0045651,2.24584801 L11.0045651,4.00729743 Z" id="Shape"></path>
        </g>
    </g>
</svg>