<?xml version="1.0" encoding="UTF-8"?>
<svg width="30px" height="30px" viewBox="0 0 30 30" version="1.1" xmlns="http://www.w3.org/2000/svg" xmlns:xlink="http://www.w3.org/1999/xlink">
    <title>admission</title>
    <g id="admission" stroke="none" stroke-width="1" fill="none" fill-rule="evenodd" stroke-linecap="round" stroke-linejoin="round">
        <g id="Admission-Management_Disabled" transform="translate(1.000000, 3.000000)" stroke="#FFFFFF" stroke-width="1.5">
            <g id="Group">
                <g transform="translate(10.756939, 0.000000)" id="Path">
                    <path d="M0,19.7833039 L6.03559087,17.8797332 L6.03559087,14.8307645 L5.58398002,14.2693708 C4.91066819,13.4586291 4.4627198,12.4860359 4.28489953,11.448785 L4.23989102,11.2020352 C4.18306972,10.8908995 4.15449548,10.5752969 4.1545147,10.2590533 L4.1545147,10.2266262 L4.15070042,8.02145828"></path>
                    <path d="M9.23475536,15.6041377 L9.23488251,15.6041377 C10.1554137,15.3290285 10.9833514,14.8093301 11.6298059,14.1008386 L11.6298695,14.1008386 C12.2960373,13.3707102 12.7431377,12.4689623 12.9203042,11.4981857 L12.9653763,11.2514992 C13.0221396,10.9403566 13.0506891,10.6247573 13.0506891,10.3085172 L13.0506891,10.2266262 L13.0375934,8.02145828 L10.2860983,8.02145828 C8.01811873,8.02145207 5.8282842,7.19590122 4.12845045,5.70007221 L4.12845045,5.70007221"></path>
                    <polyline points="11.1211397 14.5671045 11.1211397 17.7027776 17.2430605 19.6433355"></polyline>
                    <path d="M16.163333,19.2069633 C15.6834964,17.1352404 15.441226,11.207292 15.441226,9.0811017 L15.4444046,6.92710775 C15.4542328,5.0944345 14.7308037,3.33336928 13.4341163,2.03340256 C12.1374289,0.733435826 10.3743341,0.00168874347 8.53477126,0 L8.53477126,0 C6.69521157,0.00169889274 4.93212273,0.73344922 3.63543753,2.03341373 C2.33875232,3.33337825 1.61531992,5.09443756 1.62513793,6.92710775 L1.62831649,9.0811017 C1.62831649,11.207292 1.38604609,17.1352404 0.906209558,19.2069633"></path>
                </g>
                <path d="M13.1289708,19.1499626 C14.6950502,20.9595411 16.9744509,22 19.3727324,22 C21.771014,22 24.0504146,20.9595411 25.616494,19.1499626" id="Path"></path>
                <g transform="translate(0.000000, 0.527811)" id="Path">
                    <path d="M9.85324736,14.075578 C7.0444885,14.075578 4.76753956,11.8071253 4.76753956,9.00884714 L4.76753956,5.22615256 C4.7317,2.67348787 6.57166486,0.477015644 9.09896697,0.0554777275 C10.2107534,-0.109620754 11.3461352,0.0961701556 12.3283151,0.640805475"></path>
                    <polyline points="0 19.2491599 7.31070496 16.2217882 7.31070496 13.6181219"></polyline>
                    <path d="M4.86725122,5.06808956 C6.69525086,5.10258328 8.50896799,4.74119427 10.1830364,4.00890214 C10.4053458,3.90261847 10.6332643,3.80839579 10.8657927,3.72664723"></path>
                </g>
            </g>
        </g>
    </g>
</svg>