<?xml version="1.0" encoding="UTF-8"?>
<svg width="30px" height="30px" viewBox="0 0 30 30" version="1.1" xmlns="http://www.w3.org/2000/svg" xmlns:xlink="http://www.w3.org/1999/xlink">
    <title>legal</title>
    <g id="legal" stroke="none" stroke-width="1" fill="none" fill-rule="evenodd" stroke-linecap="round" stroke-linejoin="round">
        <g id="Group" transform="translate(6.000000, 5.000000)" stroke="#FFFFFF" stroke-width="1.4">
            <path d="M12.0620214,0 L4.97702144,0 C4.11795141,-0.0027962832 3.28099417,0.272213977 2.59102144,0.784021438 C1.90807884,1.29995735 1.29995735,1.90807884 0.784021438,2.59102144 C0.272213977,3.28099417 -0.0027962832,4.11795141 0,4.97702144 L0,18.0000214 C0,18.5523062 0.447736688,19.0000214 1.00002144,19.0000214 L14.0000214,19.0000214 C14.5523062,19.0000214 15.0000214,18.5523062 15.0000214,18.0000214 L15.0000214,12.2600214" id="Path"></path>
            <path d="M4.00002144,2.00002144 L4.00002144,4.00002144 L1.50002144,4.00002144 C0.671594314,4.00002144 2.14382765e-05,4.67159431 2.14382765e-05,5.50002144 L2.14382765e-05,7.00002144" id="Path"></path>
            <path d="M12.7000214,8.55502144 L9.87102144,11.3840214 C8.46102144,12.7930214 6.94302144,13.1550214 6.22902144,12.4410214 L6.22902144,12.4410214 C5.51502144,11.7270214 5.87602144,10.2090214 7.28602144,8.79902144 L10.1190214,5.97002144" id="Path"></path>
            <path d="M10.9620214,4.89202144 L13.9870214,1.86702144 C14.6359097,1.21891812 15.6871332,1.21891812 16.3360214,1.86702144 L16.8060214,2.33702144 C17.4547909,2.9860244 17.4547909,4.03801847 16.8060214,4.68702144 L13.8000214,7.70002144" id="Path"></path>
            <line x1="5.29302144" y1="13.3810214" x2="6.23302144" y2="12.4410214" id="Path"></line>
            <line x1="10.9520214" y1="4.90202144" x2="13.7520214" y2="7.74202144" id="Path"></line>
            <path d="M17.0540214,4.37202144 C17.3997683,4.6585463 17.6140699,5.07340178 17.6476442,5.52118536 C17.6812185,5.96896894 17.5311761,6.41114255 17.2320214,6.74602144 L15.4320214,8.54602144" id="Path"></path>
            <path d="M3.04302144,15.3910214 C3.19028167,15.919289 3.65747843,16.2952176 4.20502144,16.3260214 C4.74271049,16.3434348 5.27020024,16.1765434 5.70002144,15.8530214 C6.08302144,15.5910214 6.52702144,15.2470214 6.95602144,15.4220214 C7.22502144,15.5310214 7.37602144,15.8130214 7.59002144,16.0100214 C8.27243512,16.459628 9.15215708,16.4782876 9.85302144,16.0580214 C10.5367009,15.6365758 11.3192219,15.4024058 12.1220214,15.3790214" id="Path"></path>
        </g>
    </g>
</svg>