<?xml version="1.0" encoding="UTF-8"?>
<svg width="30px" height="30px" viewBox="0 0 30 30" version="1.1" xmlns="http://www.w3.org/2000/svg" xmlns:xlink="http://www.w3.org/1999/xlink">
    <title>logout</title>
    <g id="logout" stroke="none" stroke-width="1" fill="none" fill-rule="evenodd">
        <g id="Group-Copy" transform="translate(4.000000, 1.000000)">
            <line x1="9.99" y1="14" x2="22.99" y2="14" id="Path" stroke="#FF3B30" stroke-width="2" stroke-linecap="round" stroke-linejoin="round"></line>
            <path d="M18,23 L18,26 L2,26 L2,2 L18,2 L18,5 L20,5 L20,1 C20,0.44771525 19.5522847,0 19,0 L1,0 C0.44771525,0 0,0.44771525 0,1 L0,27 C0,27.5522847 0.44771525,28 1,28 L19,28 C19.5522847,28 20,27.5522847 20,27 L20,23 L18,23 Z" id="Path" fill="#FF3B30" fill-rule="nonzero"></path>
            <line x1="22.99" y1="14" x2="18.99" y2="18" id="Path" stroke="#FF3B30" stroke-width="2" stroke-linecap="round" stroke-linejoin="round"></line>
            <line x1="22.99" y1="14" x2="18.99" y2="10" id="Path" stroke="#FF3B30" stroke-width="2" stroke-linecap="round" stroke-linejoin="round"></line>
            <line x1="18.99" y1="6.09" x2="18.99" y2="4.09" id="Path" stroke="#FF3B30" stroke-width="2" stroke-linecap="round" stroke-linejoin="round"></line>
            <line x1="18.99" y1="24" x2="18.99" y2="22" id="Path" stroke="#FF3B30" stroke-width="2" stroke-linecap="round" stroke-linejoin="round"></line>
        </g>
    </g>
</svg>