<?xml version="1.0" encoding="UTF-8"?>
<svg width="30px" height="30px" viewBox="0 0 30 30" version="1.1" xmlns="http://www.w3.org/2000/svg" xmlns:xlink="http://www.w3.org/1999/xlink">
    <title>My dashboard</title>
    <g id="My-dashboard" stroke="none" stroke-width="1" fill="none" fill-rule="evenodd">
        <g id="My-Dashboard_Disable" transform="translate(4.000000, 4.000000)" fill="#FFFFFF" fill-rule="nonzero" stroke="#FFFFFF" stroke-width="0.6">
            <g id="392518_circle_dashboard_fuel_gauge_meter_icon">
                <path d="M11.005011,22 C8.06777827,22 5.30725068,20.856 3.23076848,18.7777857 C-0.163541685,15.3827143 -0.970102661,10.2339286 1.22496835,5.9675 C1.42366351,5.58171429 1.89644803,5.43007143 2.28284336,5.62807143 C2.66923869,5.82607143 2.82081246,6.29985714 2.62211731,6.68642857 C0.740403479,10.3431429 1.43151707,14.7557143 4.34126237,17.6667857 C6.12087987,19.448 8.48715856,20.4285714 11.005011,20.4285714 C13.5220782,20.4285714 15.8891422,19.448 17.6687597,17.6667857 C19.4483772,15.8855714 20.4292873,13.5182143 20.4292873,11 C20.4292873,8.481 19.4491626,6.11364286 17.6687597,4.33321429 C15.8883568,2.55278571 13.5228635,1.57142857 11.005011,1.57142857 C8.48715856,1.57142857 6.12087987,2.55278571 4.34126237,4.33321429 C4.03418803,4.64042857 3.53784281,4.64042857 3.23076848,4.33321429 C2.92369415,4.026 2.92369415,3.52942857 3.23076848,3.22221429 C5.30725068,1.14478571 8.06777827,0 11.005011,0 C13.9422438,0 16.7035567,1.14478571 18.7792536,3.22221429 C20.8565211,5.29964286 22,8.06142857 22,11 C22,13.9377857 20.8565211,16.7003571 18.7792536,18.7777857 C16.7035567,20.856 13.9422438,22 11.005011,22 Z" id="Path"></path>
                <path d="M11.005011,14.1428571 C10.1662504,14.1428571 9.37696731,13.816 8.78323791,13.222 C7.55808199,11.9962857 7.55808199,10.0029286 8.78323791,8.778 C9.77043085,7.79035714 14.4943493,5.91878571 15.4312794,5.55342857 C15.7226467,5.44028571 16.051711,5.50942857 16.2716107,5.73021429 C16.4915105,5.951 16.5614072,6.28021429 16.4483159,6.57092857 C16.0831252,7.50828571 14.2124064,12.2351429 13.2252134,13.222 C12.6330548,13.816 11.8437716,14.1428571 11.005011,14.1428571 Z M14.2940834,7.71021429 C12.3676043,8.51792857 10.3170389,9.46628571 9.89451715,9.889 C9.28193919,10.5018571 9.28193919,11.4981429 9.89451715,12.111 C10.4882466,12.705 11.5225609,12.705 12.1162903,12.111 C12.5380266,11.6875 13.4867371,9.63757143 14.2940834,7.71021429 Z" id="Shape"></path>
            </g>
        </g>
    </g>
</svg>