<?xml version="1.0" encoding="UTF-8"?>
<svg width="20px" height="20px" viewBox="0 0 20 20" version="1.1" xmlns="http://www.w3.org/2000/svg" xmlns:xlink="http://www.w3.org/1999/xlink">
    <title>reschedule</title>
    <g id="reschedule" stroke="none" stroke-width="1" fill="none" fill-rule="evenodd">
        <g id="Group-Copy-3" transform="translate(2.000000, 2.000000)" fill="#7A60E0" fill-rule="nonzero" stroke="#7A60E0" stroke-width="0.5">
            <path d="M15.9999998,7.99770569 C16.0006498,11.2340862 14.051513,14.1520805 11.0617057,15.3906776 C8.07189839,16.6292748 4.63040235,15.9444755 2.34240014,13.6556837 C0.837311075,12.1582588 -0.00614392454,10.1208665 3.36968396e-05,7.99770569 L1.07826137,7.99770569 C1.07826137,11.8144984 4.18347339,14.9198995 8.0000337,14.9198995 C11.8165941,14.9198995 14.9218061,11.8144984 14.9218061,7.99770569 C14.9218061,4.18091299 11.8165941,1.07551192 8.0000337,1.07551192 C6.09883446,1.07548153 4.28157293,1.85863833 2.97591096,3.24067957 L5.08112722,3.24067957 L5.08112722,4.31893882 L1.29735954,4.31893882 L1.29735954,0.537823816 L2.37591351,0.537823816 L2.37591351,2.314501 C4.66935755,0.0437855561 8.10277794,-0.625852982 11.0813376,0.616635074 C14.0598973,1.85912313 15.9998182,4.77021833 15.9999998,7.99770569 Z M7.78381842,3.78125072 L7.78381842,8.86261953 L12.216232,8.86261953 L12.216232,7.78147723 L8.8648949,7.78147723 L8.8648949,3.78125072 L7.78381842,3.78125072 Z" id="Shape"></path>
        </g>
    </g>
</svg>