<?xml version="1.0" encoding="UTF-8"?>
<svg width="200px" height="200px" viewBox="0 0 200 200" version="1.1" xmlns="http://www.w3.org/2000/svg" xmlns:xlink="http://www.w3.org/1999/xlink">
    <title>tick</title>
    <g id="tick" stroke="none" stroke-width="1" fill="none" fill-rule="evenodd">
        <g id="Group" transform="translate(10.000000, 10.000000)">
            <path d="M167.325,73.2 L159.825,67.5 C160.8,64.05 161.625,61.125 162.375,58.575 C165.375,48.525 167.025,42.975 162.9,37.275 C158.775,31.575 153.15,31.35 142.5,31.05 L133.2,31.05 C131.925,27.75 130.95,24.825 130.05,22.275 C126.6,12.375 124.65,7.275 117.975,4.8 C111.3,2.325 106.5,5.85 97.8,11.85 L90.3,17.025 L82.8,12 C75,5.925 69.3,2.175 62.475,4.425 C55.65,6.675 53.85,11.925 50.325,21.9 C49.425,24.375 48.45,27.3 47.175,30.6 L37.5,30.975 C27,30.975 21.225,31.35 17.1,37.05 C12.975,42.75 15,48.3 17.85,58.425 C18.6,60.975 19.5,63.9 20.4,67.35 L12.9,73.05 C4.8,79.35 0,82.875 0,90 C0,97.125 4.575,100.575 12.9,106.95 L20.4,112.65 C19.5,116.1 18.6,119.025 17.85,121.575 C14.85,131.625 13.2,137.175 17.325,142.875 C21.45,148.575 27.3,148.725 37.725,149.025 L46.95,149.025 C48.225,152.325 49.2,155.25 50.1,157.8 C53.55,167.7 55.5,172.8 62.25,175.35 C69,177.9 73.725,174.225 82.425,168.3 L89.925,163.125 L97.425,168.15 C102.050823,172.199237 107.760432,174.806364 113.85,175.65 C115.202301,175.635986 116.543876,175.408171 117.825,174.975 C124.575,172.8 126.45,167.475 129.975,157.5 C130.875,155.025 131.85,152.1 133.125,148.725 L142.425,148.725 C152.925,148.725 158.7,148.35 162.825,142.65 C166.95,136.95 165.375,131.4 162.375,121.35 C161.625,118.8 160.725,115.875 159.825,112.425 L167.325,106.725 C175.575,100.725 180,97.5 180,90 C180,82.5 175.65,79.575 167.325,73.2 Z" id="Path" fill="#2DB674" fill-rule="nonzero"></path>
            <path d="M77.85,129.45 L77.85,129.45 C75.801017,129.363782 73.8767123,128.442284 72.525,126.9 L50.325,102.225 C47.5704798,99.1183983 47.8558983,94.3670202 50.9625,91.6125 C54.0691017,88.8579798 58.8204798,89.1433983 61.575,92.25 L78.225,111.075 L125.625,64.875 C127.540837,62.9993555 130.311787,62.2882753 132.894061,63.0096164 C135.476335,63.7309574 137.477624,65.775131 138.144061,68.3721165 C138.810499,70.969102 138.040837,73.7243557 136.125,75.6 L83.1,127.5 C81.6674391,128.803512 79.786141,129.50228 77.85,129.45 L77.85,129.45 Z" id="Path" fill="#FFFFFF" fill-rule="nonzero"></path>
            <rect id="Rectangle" x="0" y="0" width="180" height="180"></rect>
        </g>
    </g>
</svg>