<?xml version="1.0" encoding="UTF-8"?>
<svg width="67px" height="46px" viewBox="0 0 67 46" version="1.1" xmlns="http://www.w3.org/2000/svg" xmlns:xlink="http://www.w3.org/1999/xlink">
    <title>total parents</title>
    <g id="total-parents" stroke="none" stroke-width="1" fill="none" fill-rule="evenodd">
        <g id="Group" transform="translate(16.000000, 1.000000)" fill="#FCFCFC" fill-rule="nonzero">
            <path d="M17.9298577,28.453582 C16.3183319,28.3782568 14.8270479,27.933479 13.6125338,26.7727525 C13.036938,26.2225193 12.9551166,25.6808948 13.4019326,25.2856165 C13.9383964,24.811426 14.373117,25.0739883 14.821356,25.4958098 C16.5324905,27.1056184 19.4709459,27.0977272 21.1977332,25.4764405 C21.65451,25.0481625 22.0956341,24.8193172 22.6157336,25.3057032 C23.0497428,25.7110249 22.9551145,26.236867 22.3716924,26.7914044 C21.1308531,27.9693482 19.6061291,28.3875827 17.9298577,28.453582 Z" id="Path"></path>
            <path d="M35.9846387,40.7445136 C35.8836071,39.3248117 35.5548985,31.4393322 34.995667,30.1344116 C34.2599859,28.4177129 33.3094347,26.8566863 31.653085,25.8839143 C30.910289,25.4477451 30.1368989,25.0524668 29.346433,24.7117097 C28.1489947,24.1959109 26.9408839,23.7066554 25.7349076,23.2095086 C27.0910084,23.1657482 28.4072657,22.8422082 29.4104672,22.4605602 C29.3257998,22.4254084 29.2631887,22.3967131 29.198443,22.3737568 C28.0671733,21.9591091 27.1365438,21.285486 26.523239,20.2223237 C26.2414888,19.7330681 26.0465404,19.2237258 25.9184722,18.6993185 L26.4691658,18.6993185 C26.9814389,18.7258617 27.2055583,18.5049076 27.3876999,18.0637167 C28.311926,15.8269149 28.5502753,13.5061793 28.2557182,11.1208791 C27.9063764,8.29725764 27.0326662,5.69459028 25.2916491,3.48791861 C25.2425563,3.41402811 25.1920404,3.34085499 25.1393902,3.26839926 C24.738821,2.71673134 24.2848902,2.24827991 23.7861354,1.85013206 C22.9387503,1.04164085 21.992468,0.36012652 20.804279,0.19441093 C20.1938202,0.109759677 19.5748235,0.05523853 18.9544039,0.0258258062 C18.9024651,0.0172172042 18.8498148,0.00932598559 18.797876,0 C18.2692386,0 17.7398897,0 17.2112523,0 C17.1941766,0.00358691753 17.1778123,0.00860860208 17.161448,0.0129129031 C16.8242016,0.0236736557 16.4876666,0.0394560929 16.1525546,0.0638471321 C14.6498868,0.171454658 13.3941062,0.856555907 12.2998339,1.81067597 C11.7327761,2.24110607 11.2390017,2.740405 10.8398556,3.32865947 C8.99922985,5.58626537 8.09065658,8.26354061 7.74060329,11.1746829 C7.4503152,13.5850915 7.68581853,15.9345225 8.68332811,18.1684547 C8.77866782,18.3815176 9.0476112,18.6656015 9.23259871,18.6620145 L10.1447294,18.6620145 C9.66660787,20.4131477 8.61858248,21.7065901 6.81993468,22.3916914 C6.76870737,22.4110607 6.72032602,22.4397561 6.58941178,22.5036032 C7.86440263,22.9031858 9.11022236,23.2023348 10.3133527,23.2209867 C8.66625234,23.9125444 7.01417157,24.5911892 5.37916657,25.3114423 C3.65451378,26.0711514 2.39232976,27.3402028 1.52502294,29.0246193 C0.656293127,30.7126227 0.104176557,39.0070108 0.00599087813,40.9130988 C-0.0246032102,41.502788 0.0465458324,41.6039391 0.585144084,41.8141325 C0.841280637,41.9138488 1.09884017,42.0099782 1.35924567,42.0960642 C3.73348922,42.8823165 6.18741969,43.2976815 8.66340637,43.5057228 C11.7754655,43.7675677 14.8989085,43.9024358 16.5040309,44 C21.9270109,43.9526527 25.8217095,43.7890892 29.6879484,43.2158998 C31.5911853,42.9339681 33.4759235,42.5516027 35.2852436,41.8650667 C35.9817927,41.6017869 36.038712,41.5006359 35.9846387,40.7445136 Z M11.5435196,8.7513614 C11.6189376,8.06482538 11.7448714,7.41846284 11.9070912,6.81370855 C12.0195067,6.39332181 12.3973081,6.09130336 12.8284713,6.10780318 C12.8313173,6.10780318 12.8341632,6.10780318 12.8377207,6.10852056 C14.3297161,6.17380246 15.8160196,6.07480353 17.2767095,5.74050282 C17.7626574,5.62930838 18.2301066,5.49013598 18.6783456,5.32155085 C18.9857095,5.55398311 19.3037457,5.77780676 19.6296083,5.99517397 C20.4769934,6.56047217 21.3407428,7.12361822 22.0913652,7.80369779 C22.8491025,8.48808165 23.476637,9.31809437 24.1646483,10.0871295 C24.4200733,8.60644993 23.1742536,7.81087162 22.5282203,6.72833991 C23.4396395,7.30942055 24.1923964,7.98950011 24.7032465,8.83027358 L24.8974834,9.17963935 C25.1955979,9.7736329 25.3791624,10.4443865 25.4218519,11.2112694 C25.4325242,11.3934849 25.4353702,11.5742655 25.4332357,11.7543288 C25.4375046,11.9630874 25.3307811,12.6187759 25.1977324,13.3454854 C24.6264056,16.4725601 22.9053102,19.2868556 20.3368298,21.131966 C20.2535854,21.1915088 20.1696295,21.2510516 20.0842507,21.3091597 C18.6420596,22.2984315 17.4190075,22.0846513 15.8957065,21.2754427 C9.74558331,18.0084782 11.5435196,8.7513614 11.5435196,8.7513614 Z M24.6370779,27.7218508 L18.0116791,33.5871784 L11.3720504,27.7218508 L8.63494676,27.7218508 C9.10453044,26.20315 10.6562911,24.330779 11.8181549,23.0796622 C12.7366891,22.8816643 13.6246291,22.4634297 14.4755717,21.7331333 C15.1472186,22.1162161 15.7733302,22.4978642 16.421498,22.8364692 C17.4609855,23.3795285 18.5225292,23.3874197 19.5698431,22.8551211 C20.1568227,22.5566896 20.726015,22.2223889 21.3115717,21.8995663 C22.2251254,22.6607102 23.3378964,23.0366192 24.481973,23.163596 C26.1433031,25.0797274 27.3663552,27.7125249 27.3663552,27.7125249 L24.6370779,27.7218508 Z" id="Shape"></path>
        </g>
    </g>
</svg>