<?xml version="1.0" encoding="UTF-8"?>
<svg width="67px" height="46px" viewBox="0 0 67 46" version="1.1" xmlns="http://www.w3.org/2000/svg" xmlns:xlink="http://www.w3.org/1999/xlink">
    <title>total earnings</title>
    <g id="total-earnings" stroke="none" stroke-width="1" fill="none" fill-rule="evenodd">
        <g id="3312874_fee_income_money_payment_icon" transform="translate(15.000000, 1.000000)" fill="#FCFCFC" fill-rule="nonzero">
            <path d="M34.9769918,27.1230869 C35.4104935,27.3400716 35.8439953,28.063354 35.8439953,28.5696516 C35.8439953,28.8589645 35.6994947,29.0759492 35.4827438,29.2206057 C35.265993,29.3652621 35.0492421,29.4375904 34.7602409,29.5099186 C33.7487368,29.6545751 32.6649824,29.7992315 31.6534783,29.943888 L31.6534783,29.943888 C30.6419742,30.0885444 29.6304701,30.2332009 28.618966,30.3778574 C28.3299648,30.4501856 28.0409636,30.3778574 27.8242127,30.3055291 C27.2462104,30.0885444 26.9572092,29.4375904 27.1017098,28.714308 C27.2462104,28.2080104 27.5352116,27.8463693 28.1132139,27.774041 C29.9917215,27.4847281 31.7979789,27.2677434 33.6764865,27.0507587 C34.1099883,26.9061022 34.6157403,26.9061022 34.9769918,27.1230869 Z" id="Path"></path>
            <path d="M27.6074619,40.2868251 C27.5352116,40.3591534 27.5352116,40.5038098 27.4629613,40.5761381 C27.1017098,41.6610615 27.2462104,42.745985 27.9687133,43.6139238 C28.0409636,43.686252 28.0409636,43.686252 28.1132139,43.7585803 C27.1739601,43.9032367 26.162456,43.975565 25.2232022,43.975565 C23.5614454,44.0478932 21.8996887,43.975565 20.2379319,43.5415956 C18.7206758,43.1799544 17.3479202,42.4566721 15.830664,42.2396874 C14.6746593,42.0950309 13.5186546,42.0950309 12.2903997,42.0227027 C11.4233961,42.0227027 10.7008932,41.2994204 10.5563926,40.4314816 L9.11138675,28.7866363 C9.03913646,27.9910257 9.47263822,27.1954152 10.1951412,26.9061022 C11.0621447,26.5444611 11.9291482,26.0381635 12.7239014,25.5318658 C15.1804114,23.7959883 19.515429,20.2519049 22.477691,19.5286226 C25.7289542,18.6606838 28.5467157,20.5412178 31.7257286,21.1198437 C32.6649824,21.2645002 34.54349,21.3368284 34.6157403,22.6387366 C34.7602409,25.0255682 31.7979789,25.4595376 29.9917215,25.4595376 C28.9079671,25.4595376 27.7519624,25.3872094 26.668208,25.1702247 C26.3792069,25.0978965 25.6567039,24.8085835 25.3677028,24.8809118 C25.2954525,24.8809118 25.1509519,24.95324 25.0787016,25.0255682 C24.428449,25.4595376 24.428449,26.5444611 24.2116981,27.2677434 C23.8504466,28.2080104 23.2724443,29.2206057 22.6944419,30.0162162 C21.7551881,31.2457962 20.0934313,32.9093455 18.4316746,33.4156431 C18.3594243,33.4156431 18.3594243,33.4879713 18.3594243,33.4879713 C18.3594243,33.4879713 18.4316746,33.5602996 18.4316746,33.5602996 C21.6829378,33.2709867 23.9226969,30.8118268 25.2954525,28.063354 C25.2954525,28.063354 25.2954525,28.063354 25.2954525,28.063354 C25.2954525,28.1356822 25.2232022,28.2080104 25.2232022,28.2803387 C25.0064513,29.1482774 25.1509519,30.0885444 25.6567039,30.7394985 C25.0064513,31.1734679 24.5006992,31.8967502 24.3561987,32.764689 C24.2116981,33.704956 24.428449,34.5728948 25.0064513,35.2961771 C25.2232022,35.5854901 25.5122034,35.8024748 25.8734548,35.9471312 C25.7289542,36.1641159 25.6567039,36.3811006 25.5844536,36.5980853 C25.6567039,37.6106806 25.8734548,38.6232758 26.4514572,39.3465581 C26.7404583,39.7805275 27.1739601,40.0698404 27.6074619,40.2868251 Z" id="Path"></path>
            <g id="Group" transform="translate(11.209921, 0.000000)">
                <path d="M23.5503202,2.60381635 C23.6225705,1.37423641 22.8278173,0.506297623 21.5995623,0.506297623 C17.5535458,0.289312927 13.5075294,0.144656464 9.46151299,0 C9.3170124,0 9.10026152,0 8.88351064,0 C7.94425683,0.289312927 7.36625448,1.01259525 7.36625448,2.02519049 C7.22175389,5.93091501 7.1495036,8.89637252 7.00500301,12.5127841 L6.93275272,14.4656464 L6.86050243,16.4185086 C6.78825213,17.7204168 6.71600184,18.9499967 6.64375155,20.1072485 C7.51075507,19.3839661 8.45000888,18.8053403 9.53376328,18.4436991 C9.60601357,17.1417909 9.67826387,15.8398828 9.75051416,14.5379746 C9.82276445,12.2234712 9.89501475,9.981296 10.0395153,7.30515142 C10.1117656,7.30515142 10.1840159,7.23282319 10.2562662,7.23282319 L10.3285165,7.23282319 C11.7012721,6.87118203 12.6405259,6.00324324 12.9295271,4.62900684 C14.7357844,4.70133507 16.3252909,4.7736633 17.7702967,4.7736633 C18.1315482,6.29255617 19.070802,7.30515142 20.5158079,7.73912081 C20.3713073,10.5599219 20.299057,12.8744253 20.2268067,14.8996158 L20.2268067,15.0442722 L20.2268067,15.1889287 C20.1545564,16.5631651 20.0823061,18.0097297 20.0100558,19.7456073 C20.3713073,19.8179355 20.7325588,19.8902638 21.0938102,19.962592 C21.2383108,19.962592 21.3105611,20.0349202 21.4550617,20.0349202 C21.7440629,20.1072485 22.2498149,20.1795767 22.755567,20.2519049 L23.0445681,14.3209899 L23.0445681,14.3209899 L23.0445681,14.1040052 L23.0445681,13.8146923 L23.0445681,13.8146923 L23.5503202,2.60381635 Z" id="Path"></path>
                <ellipse id="Oval" transform="translate(14.907911, 14.828497) rotate(-87.933296) translate(-14.907911, -14.828497) " cx="14.9079108" cy="14.8284969" rx="3.1099555" ry="3.10661303"></ellipse>
                <ellipse id="Oval" transform="translate(14.907911, 14.828497) rotate(-87.933296) translate(-14.907911, -14.828497) " cx="14.9079108" cy="14.8284969" rx="3.1099555" ry="3.10661303"></ellipse>
                <path d="M1.51398072,3.11011397 C1.36948013,3.1824422 1.15272925,3.1824422 1.00822866,3.32709867 C0.141225141,3.83339629 -0.147776032,4.70133507 0.0689748478,5.71393032 C1.15272925,9.47499837 1.87523218,12.3681276 2.88673629,15.8398828 L3.39248834,17.7204168 L3.8982404,19.6732791 C4.11499128,20.5412178 4.33174216,21.3368284 4.54849304,22.1324389 C4.69299362,21.9877825 4.83749421,21.843126 4.9819948,21.6984696 C5.05424509,20.902859 5.05424509,20.0349202 5.12649538,19.2393097 L5.34324626,14.4656464 L5.34324626,14.3209899 C4.9819948,12.9467535 4.54849304,11.5725171 4.18724157,10.0536242 C4.25949186,9.981296 4.33174216,9.981296 4.33174216,9.90896776 L4.40399245,9.83663953 C4.83749421,9.5473266 5.27099597,9.18568544 5.48774685,8.82404429 C5.55999715,6.65419733 5.63224744,4.55667861 5.70449773,2.02519049 C5.70449773,2.02519049 5.70449773,1.95286226 5.70449773,1.95286226 C4.40399245,2.31450342 2.95898658,2.74847281 1.51398072,3.11011397 Z" id="Path"></path>
            </g>
            <path d="M8.09988265,43.035298 L3.1146124,43.6139238 C2.53661005,43.686252 1.88635741,43.2522826 1.81410712,42.6013286 L0.00784978632,27.8463693 C-0.0644005071,27.1954152 0.369101253,26.6167893 1.01935389,26.5444611 L6.00462414,25.9658352 C6.65487678,25.893507 7.23287912,26.3274764 7.30512942,26.9784305 L9.11138675,41.7333898 C9.18363705,42.3843439 8.75013529,42.9629697 8.09988265,43.035298 Z" id="Path"></path>
            <path d="M35.0492421,42.0950309 C34.4712397,42.2396874 33.8932374,42.3843439 33.315235,42.4566721 C32.3759812,42.6013286 31.5089777,42.745985 30.5697239,42.9629697 C30.0639718,43.035298 29.6304701,42.9629697 29.2692186,42.5290003 C28.9079671,42.0950309 28.8357168,41.5887333 29.0524677,41.0824357 C29.1969683,40.6484663 29.5582198,40.4314816 30.0639718,40.2868251 C30.1362221,40.2868251 30.352973,40.2144969 30.5697239,40.2144969 C30.5697239,40.2144969 30.5697239,40.2144969 30.5697239,40.2144969 C31.6534783,39.9975122 33.9654877,39.6358711 34.6879906,39.5635428 C34.7602409,39.5635428 34.8324912,39.5635428 34.9047415,39.5635428 L34.9047415,39.5635428 C34.9047415,39.5635428 34.9047415,39.5635428 34.9047415,39.5635428 C35.5549941,39.5635428 35.8439953,39.7805275 35.9162456,40.2868251 C36.0607462,41.0824357 35.6994947,41.8780462 35.0492421,42.0950309 Z" id="Path"></path>
            <path d="M35.5549941,37.755337 C35.265993,37.8276653 34.9769918,37.8276653 34.6879906,37.8999935 C33.6764865,38.04465 32.7372327,38.1893064 31.7257286,38.3339629 C31.2922268,38.4062911 30.8587251,38.4786193 30.352973,38.5509476 C30.352973,38.5509476 30.2807227,38.5509476 30.2807227,38.5509476 C29.847221,38.6232758 29.4137192,38.6232758 29.0524677,38.695604 C27.8242127,38.9125887 27.390711,37.755337 27.6074619,36.9597265 C27.6797122,36.5257571 27.9687133,36.3087724 28.3299648,36.1641159 L28.3299648,36.1641159 C28.4744654,36.0917877 28.5467157,36.0917877 28.6912163,36.0917877 C29.7749707,35.9471312 30.9309754,35.8024748 32.0147298,35.6578183 C33.0984842,35.5131618 34.1822386,35.3685054 35.3382433,35.2238489 C35.4827438,35.2238489 35.6994947,35.2238489 35.8439953,35.2238489 L35.8439953,35.2238489 C36.4219977,35.2961771 36.7832491,35.5131618 36.8554994,36.0194595 C36.8554994,36.8873982 36.4219977,37.6106806 35.5549941,37.755337 Z" id="Path"></path>
            <path d="M37,31.9690785 C36.9277497,32.9816737 36.5664982,33.4156431 35.6272444,33.5602996 C35.6272444,33.5602996 35.6272444,33.5602996 35.6272444,33.5602996 C34.3267391,33.704956 33.0984842,33.9219407 31.7979789,34.0665972 C30.4974736,34.2835819 29.1969683,34.4282384 27.896463,34.5728948 C27.896463,34.5728948 27.896463,34.5728948 27.896463,34.5728948 C27.8242127,34.5728948 27.7519624,34.5728948 27.6797122,34.5728948 C26.8127086,34.5728948 26.2347063,33.9219407 26.3792069,32.9816737 C26.4514572,32.4030479 26.8127086,32.0414067 27.390711,31.9690785 C27.5352116,31.9690785 27.6074619,31.9690785 27.7519624,31.8967502 C30.2807227,31.5351091 32.809483,31.1734679 35.3382433,30.884155 C35.5549941,30.884155 35.771745,30.884155 35.9884959,30.884155 C36.1329965,30.884155 36.2774971,30.9564832 36.3497474,30.9564832 C36.7832491,31.1011397 37,31.4627809 37,31.9690785 Z" id="Path"></path>
        </g>
    </g>
</svg>