<?xml version="1.0" encoding="UTF-8"?>
<svg width="28px" height="28px" viewBox="0 0 28 28" version="1.1" xmlns="http://www.w3.org/2000/svg" xmlns:xlink="http://www.w3.org/1999/xlink">
    <title>add subject</title>
    <g id="add-subject" stroke="none" stroke-width="1" fill="none" fill-rule="evenodd">
        <g id="Group" transform="translate(4.000000, 4.000000)">
            <g transform="translate(0.416250, 0.418917)" id="Path" stroke="#FFFFFF" stroke-linecap="round" stroke-linejoin="round" stroke-width="1.5">
                <path d="M11.87425,17.01775 L1.28266667,10.9978333 C1.00775,10.8415833 0.913583333,10.4955833 1.07233333,10.2249167 L3.59658333,5.92075 C3.75533333,5.65016667 4.10683333,5.55741667 4.38166667,5.71366667 L7.9,7.71333333"></path>
                <path d="M12.1716667,14.9580833 L5.88241667,4.23425 C5.72366667,3.96366667 5.81791667,3.61758333 6.09275,3.46133333 L10.4649167,0.976333333 C10.7398333,0.820083333 11.0913333,0.912833333 11.25,1.18341667 L13.3336667,4.67275"></path>
                <path d="M19.1670833,18.6009167 C19.1670833,18.9134167 18.91375,19.16675 18.60125,19.16675 L13.8995,19.16675 C13.587,19.16675 13.3336667,18.9134167 13.3336667,18.6009167 L13.3336667,0.565833333 C13.3336667,0.253333333 13.587,0 13.8995,0 L18.60125,0 C18.91375,0 19.1670833,0.253333333 19.1670833,0.565833333 L19.1670833,18.6009167 Z"></path>
                <path d="M11.6731667,19.1671667 L0.565833333,19.1671667 C0.253333333,19.1671667 0,18.9138333 0,18.6013333 L0,13.8995833 C0,13.5870833 0.253333333,13.33375 0.565833333,13.33375 L5.39266667,13.33375"></path>
                <line x1="16.2504167" y1="16.6668333" x2="16.2504167" y2="16.6668333"></line>
                <line x1="14.58375" y1="14.16675" x2="17.9170833" y2="14.16675"></line>
            </g>
            <rect id="Rectangle" x="0" y="0" width="20" height="20"></rect>
        </g>
    </g>
</svg>