<?xml version="1.0" encoding="UTF-8"?>
<svg width="16px" height="16px" viewBox="0 0 16 16" version="1.1" xmlns="http://www.w3.org/2000/svg" xmlns:xlink="http://www.w3.org/1999/xlink">
    <title>close_grey</title>
    <g id="close_grey" stroke="none" stroke-width="1" fill="none" fill-rule="evenodd">
        <g id="211650_close_circled_icon" transform="translate(1.000000, 1.000000)" fill-rule="nonzero">
            <path d="M7,0 C3.134375,0 0,3.134375 0,7 C0,10.865625 3.134375,14 7,14 C10.865625,14 14,10.865625 14,7 C14,3.134375 10.865625,0 7,0 Z" id="Shape" fill="#8C97A4"></path>
            <path d="M10.384375,9.359375 C10.43125,9.40625 10.45625,9.46875 10.45625,9.534375 C10.45625,9.6 10.43125,9.665625 10.384375,9.709375 L9.709375,10.3875 C9.659375,10.4375 9.596875,10.459375 9.534375,10.459375 C9.471875,10.459375 9.40625,10.434375 9.359375,10.3875 L7,8.025 L4.64375,10.390625 C4.596875,10.440625 4.53125,10.4625 4.46875,10.4625 C4.40625,10.4625 4.340625,10.4375 4.29375,10.390625 L3.61875,9.7125 C3.571875,9.665625 3.546875,9.603125 3.546875,9.5375 C3.546875,9.471875 3.571875,9.40625 3.61875,9.3625 L5.984375,6.9875 L3.6125,4.64375 C3.515625,4.546875 3.515625,4.3875 3.6125,4.290625 L4.2875,3.6125 C4.334375,3.565625 4.396875,3.540625 4.4625,3.540625 C4.528125,3.540625 4.590625,3.565625 4.6375,3.6125 L7.003125,5.946875 L9.36875,3.6125 C9.415625,3.565625 9.478125,3.540625 9.54375,3.540625 C9.609375,3.540625 9.671875,3.565625 9.71875,3.6125 L10.39375,4.290625 C10.490625,4.3875 10.490625,4.546875 10.39375,4.64375 L8.021875,6.9875 L10.384375,9.359375 Z" id="Path" fill="#FFFFFF"></path>
        </g>
    </g>
</svg>