<?xml version="1.0" encoding="UTF-8"?>
<svg width="18px" height="18px" viewBox="0 0 18 18" version="1.1" xmlns="http://www.w3.org/2000/svg" xmlns:xlink="http://www.w3.org/1999/xlink">
    <title>disable</title>
    <g id="disable" stroke="none" stroke-width="1" fill="none" fill-rule="evenodd">
        <g id="Group-16" transform="translate(1.000000, 1.000000)">
            <circle id="Oval" stroke="#FF3C2F" fill="#FF3B30" cx="8" cy="8" r="7.5"></circle>
            <g id="Group" transform="translate(3.000000, 3.000000)"></g>
            <path d="M8.00000001,7.32169546 L10.5145474,4.80714813 C10.701856,4.61983951 11.0055433,4.61983951 11.1928519,4.80714813 C11.3801605,4.99445676 11.3801605,5.29814404 11.1928519,5.48545267 L8.67830456,8.00000001 L11.1928519,10.5145474 C11.3801605,10.701856 11.3801605,11.0055433 11.1928519,11.1928519 C11.0055433,11.3801605 10.701856,11.3801605 10.5145474,11.1928519 L8.00000001,8.67830456 L5.48545267,11.1928519 C5.29814404,11.3801605 4.99445676,11.3801605 4.80714813,11.1928519 C4.61983951,11.0055433 4.61983951,10.701856 4.80714813,10.5145474 L7.32169546,8.00000001 L4.80714813,5.48545267 C4.61983951,5.29814404 4.61983951,4.99445676 4.80714813,4.80714813 C4.99445676,4.61983951 5.29814404,4.61983951 5.48545267,4.80714813 L8.00000001,7.32169546 Z" id="Path" stroke="#FCFCFC" fill="#FCFCFC" fill-rule="nonzero"></path>
        </g>
    </g>
</svg>