<?xml version="1.0" encoding="UTF-8"?>
<svg width="18px" height="18px" viewBox="0 0 18 18" version="1.1" xmlns="http://www.w3.org/2000/svg" xmlns:xlink="http://www.w3.org/1999/xlink">
    <title>edit </title>
    <g id="edit-" stroke="none" stroke-width="1" fill="none" fill-rule="evenodd">
        <g id="7548797_user_interface_edit_pencil_ui_icon" transform="translate(2.000000, 2.000000)" fill="#7A60E0" fill-rule="nonzero" stroke="#7A60E0" stroke-width="0.2">
            <path d="M5.92786194,5.69168297 L5.84053806,7.28557724 C5.83039484,7.47348641 5.90228258,7.65686674 6.03856129,7.7899792 C6.16602,7.91446256 6.33802129,7.98371621 6.51707677,7.98371621 C6.52942387,7.98371621 6.54177548,7.98328321 6.55456516,7.98263812 L8.18107613,7.89461521 C8.34734194,7.88576962 8.50434968,7.81694897 8.62254581,7.7017442 L13.8015387,2.64024113 C13.9285548,2.51597427 14,2.34747945 14,2.17165013 C14,1.9958208 13.9285548,1.82710948 13.8015387,1.70284262 L12.2597052,0.194165591 C12.1326845,0.0698987292 11.9602452,0 11.7807471,0 C11.601249,0 11.4288052,0.0698987292 11.301789,0.194165591 L6.12544258,5.25847433 C6.00724645,5.3741121 5.93668194,5.52836649 5.92786194,5.69168297 Z M7.26682194,6.01615535 L11.7807471,1.60015069 L12.3642265,2.17121713 L7.84765484,6.58506561 L7.23374129,6.61829181 L7.26682194,6.01615535 Z" id="Shape"></path>
            <path d="M2.28717097,13.6969697 L9.79964774,13.6969697 C11.060989,13.6969697 12.0868187,12.6931276 12.0868187,11.4593046 L12.0868187,6.92852375 C12.0868187,6.56241259 11.783389,6.26576716 11.4093994,6.26576716 C11.0354097,6.26576716 10.73198,6.56241259 10.73198,6.92852375 L10.73198,11.4593002 C10.73198,11.962191 10.3138858,12.3714521 9.79964774,12.3714521 L2.28717097,12.3714521 C1.7729329,12.3714565 1.35483871,11.9621955 1.35483871,11.4593046 L1.35483871,4.10943554 C1.35483871,3.60654467 1.7729329,3.19728364 2.28717097,3.19728364 L6.9184071,3.19728364 C7.29240129,3.19728364 7.59582645,2.9006382 7.59582645,2.53452704 C7.59582645,2.16841587 7.29239677,1.87177044 6.9184071,1.87177044 L2.28717097,1.87177044 C1.02582968,1.87177044 0,2.87561251 0,4.10943554 L0,11.4593046 C0,12.6931276 1.02582968,13.6969697 2.28717097,13.6969697 Z" id="Path"></path>
        </g>
    </g>
</svg>