<?xml version="1.0" encoding="UTF-8"?>
<svg width="28px" height="28px" viewBox="0 0 28 28" version="1.1" xmlns="http://www.w3.org/2000/svg" xmlns:xlink="http://www.w3.org/1999/xlink">
    <title>filter</title>
    <g id="filter" stroke="none" stroke-width="1" fill="none" fill-rule="evenodd">
        <g id="Group" transform="translate(1.500000, 2.000000)" fill="#FCFCFC" fill-rule="nonzero" stroke="#FCFCFC" stroke-width="0.3">
            <path d="M23.9835114,1.23604357 C23.8461081,1.41039077 23.7112972,1.58473797 23.5738939,1.75908517 C23.2187192,2.21446964 22.8609519,2.66725192 22.5057772,3.12263639 C22.0054216,3.76277685 21.5024735,4.40291731 21.0021179,5.04305778 C20.4369493,5.76386634 19.8717808,6.48727711 19.3066123,7.20808567 C18.7492213,7.91848545 18.1918303,8.63148743 17.6344394,9.34188721 C17.1677865,9.93779032 16.698541,10.5362956 16.2318881,11.1321987 C15.9259712,11.5225283 15.6226468,11.9102556 15.3167299,12.3005852 C15.2493245,12.3864577 15.1845116,12.469728 15.1171062,12.5556005 C15.0393307,12.654484 14.9693328,12.7507653 14.9511851,12.8834773 C14.9434076,12.9381235 14.9408151,12.9823608 14.9408151,13.0370069 C14.9408151,13.6094903 14.9408151,14.1819736 14.9408151,14.7570592 C14.9408151,15.6652259 14.9408151,16.5759949 14.9408151,17.4841616 C14.9408151,18.189357 14.9408151,18.8945524 14.9408151,19.5997478 C14.9408151,19.7194488 14.9434076,19.8365477 14.9408151,19.9562488 C14.9408151,19.9640553 14.9330375,20.0082927 14.9382226,20.0134971 C14.9330375,20.0056905 14.9615552,19.9146136 14.9408151,19.9692597 C14.9330375,19.9926795 14.92526,20.0187015 14.9200749,20.0421213 C14.9097049,20.0967674 14.9278525,20.0082927 14.9382226,20.0056905 C14.9278525,20.0082927 14.8915573,20.091563 14.8837797,20.104574 C14.8422995,20.1748333 14.8837797,20.0811542 14.8967423,20.0889608 C14.8967423,20.0889608 14.850077,20.1384025 14.844892,20.1436069 C14.7826716,20.2112641 14.9097049,20.1097784 14.8293369,20.1566179 C14.8189668,20.1644245 14.8060042,20.1696289 14.7956342,20.1774355 C14.7930417,20.1800377 14.7878566,20.1826399 14.7852641,20.1826399 C14.7334138,20.2138663 14.6815635,20.2424904 14.6271206,20.2737168 C14.0126943,20.6250134 13.398268,20.97631 12.7838416,21.3302088 C12.0397895,21.7569691 11.2957374,22.1811272 10.5516852,22.6078875 C10.3520615,22.7223842 10.1524377,22.8368808 9.9554065,22.9487753 C9.9398514,22.9565819 9.91911127,22.9643885 9.90614869,22.9773995 C9.90355618,22.9773995 9.89837114,22.9800017 9.89837114,22.9826039 C9.91133373,22.9487753 9.88281605,22.8263235 9.92994356,22.7749077 C10.0310517,22.7618967 9.88281605,22.9539797 9.97873915,22.9721951 C10.0642922,22.9878083 9.98910921,22.9747973 9.9709616,22.9669907 C9.92170379,22.9409687 10.027997,22.9930126 10.0228119,22.9904104 C9.94503644,22.9487753 10.0928099,23.0606698 10.0305895,22.998217 C10.0046643,22.9747973 9.98392418,22.9279577 10.0539221,23.0320456 C10.043552,23.0164324 10.0254044,22.9695929 10.0513296,23.03725 C10.0798473,23.1101115 10.0591071,23.0528632 10.0565146,23.0398522 C10.0616997,23.0684764 10.0616997,23.1491445 10.0616997,23.0762829 C10.0616997,23.0710786 10.0616997,23.0658742 10.0616997,23.0606698 C10.0668847,22.6885556 10.0616997,22.3164414 10.0616997,21.9443273 C10.0616997,21.1714747 10.0616997,20.4012244 10.0616997,19.6283719 C10.0616997,18.704592 10.0616997,17.7808121 10.0616997,16.8570321 C10.0616997,16.0399423 10.0616997,15.2228524 10.0616997,14.4057626 C10.0616997,13.9529803 10.0616997,13.4975958 10.0616997,13.0448135 C10.0616997,13.0161894 10.0642922,12.9901674 10.0616997,12.9615432 C10.0539221,12.8054114 9.98651669,12.6909147 9.89577863,12.5738159 C9.83615076,12.49575 9.77393037,12.4202863 9.7143025,12.3422203 C9.42134817,11.967504 9.12580133,11.5927876 8.832847,11.2180712 C8.36878661,10.6273725 7.90472622,10.0340716 7.44066583,9.44337289 C6.88845988,8.73817751 6.33625394,8.03298212 5.784048,7.32778674 C5.21369445,6.60177378 4.64593341,5.87576081 4.07557985,5.14974785 C3.57263172,4.50700519 3.06709107,3.86426254 2.56414293,3.21891768 C2.19859815,2.75052222 1.83046086,2.28472896 1.46491608,1.8163335 C1.31714266,1.62637312 1.16677672,1.43641274 1.0190033,1.24905456 C1.02678085,1.25686115 1.0993713,1.37396001 1.06048356,1.2984963 C1.06307608,1.30370069 1.02937337,1.24124797 1.02937337,1.24124797 C1.0345584,1.24124797 1.06307608,1.34533585 1.0501135,1.29329191 C1.04492846,1.26987213 1.0345584,1.20741941 1.02159582,1.18920403 C1.06048356,1.23864577 1.02678085,1.30370069 1.02937337,1.23864577 C1.02937337,1.22303259 1.02937337,1.2100216 1.02937337,1.19440842 C1.02937337,1.18399963 1.0345584,1.16057986 1.03196588,1.15017107 C1.0345584,1.15277327 1.00604072,1.26206554 1.02418833,1.215226 C1.0345584,1.18399963 1.04233595,1.14756887 1.0501135,1.11634251 C1.06307608,1.10593372 1.07603866,1.09032054 1.08381621,1.07210516 C1.10714885,1.02786781 1.0501135,1.11894471 1.04752098,1.11894471 C1.06307608,1.11374031 1.09677879,1.06950296 1.10974137,1.05649198 C1.15640666,1.00965243 1.12011143,1.08511615 1.07344614,1.08251395 C1.08381621,1.08251395 1.10196382,1.06169637 1.11233388,1.05909418 C1.21862705,1.01745902 1.02678085,1.07730956 1.11233388,1.05388978 C1.13825905,1.04608319 1.25232976,1.02526562 1.16677672,1.0356744 C1.08122369,1.04608319 1.17714679,1.0382766 1.1952944,1.0382766 C1.24455221,1.0382766 1.29381001,1.0382766 1.34047531,1.0382766 C1.63861466,1.0382766 1.93675402,1.0382766 2.23489338,1.0382766 C2.75858164,1.0382766 3.28226991,1.0382766 3.80595817,1.0382766 C4.50853005,1.0382766 5.21110193,1.0382766 5.91367381,1.0382766 C6.73809395,1.0382766 7.5651066,1.0382766 8.38952674,1.0382766 C9.29431488,1.0382766 10.199103,1.0382766 11.1064837,1.0382766 C12.0320119,1.0382766 12.9601327,1.0382766 13.885661,1.0382766 C14.7904491,1.0382766 15.6978298,1.0382766 16.6026179,1.0382766 C17.4296306,1.0382766 18.2540507,1.0382766 19.0810634,1.0382766 C19.7836353,1.0382766 20.4887997,1.0382766 21.1913715,1.0382766 C21.7150598,1.0382766 22.2387481,1.0382766 22.7650288,1.0382766 C23.0631682,1.0382766 23.3639001,1.0382766 23.6620394,1.0382766 C23.7087047,1.0382766 23.7579625,1.0382766 23.8046278,1.0382766 C23.830553,1.0382766 23.921291,1.04608319 23.8383305,1.0356744 C23.7475925,1.02526562 23.8694407,1.04868539 23.8927734,1.05388978 C23.9757339,1.07470736 23.8098129,1.00184584 23.8798108,1.05128759 C23.8875883,1.05649198 23.9264761,1.08251395 23.9290686,1.08251395 C23.9238836,1.08251395 23.8487006,1.00965243 23.8824033,1.04608319 C23.9005509,1.06690077 23.9238836,1.09032054 23.9446237,1.10853592 C23.9809189,1.13716009 23.910921,1.06429857 23.9083285,1.05909418 C23.910921,1.06950296 23.9342536,1.09552493 23.9394387,1.10853592 C23.9472162,1.11894471 23.9524012,1.13716009 23.9601788,1.14756887 C23.9886965,1.18399963 23.9394387,1.09552493 23.9368461,1.09032054 C23.9394387,1.11894471 23.9601788,1.16057986 23.9679563,1.18660183 C23.9705489,1.19961281 23.9705489,1.21782819 23.9757339,1.23083918 C23.9731414,1.22563478 23.9731414,1.11894471 23.9653638,1.16578425 C23.9627713,1.18660183 23.9575863,1.25165675 23.9627713,1.26987213 C23.9601788,1.26206554 23.9886965,1.16318206 23.9705489,1.20481721 C23.9653638,1.21782819 23.9627713,1.23604357 23.9601788,1.24905456 C23.9549938,1.26466774 23.9498087,1.27767872 23.9446237,1.29329191 C23.9316611,1.34533585 23.9601788,1.24124797 23.9653638,1.24124797 C23.9627713,1.24124797 23.9005509,1.34533585 23.8953659,1.35314244 C23.7346299,1.57432918 23.8512931,1.94384115 24.082027,2.06614441 C24.3516487,2.20926525 24.6212704,2.11558616 24.7923765,1.87878623 C25.036073,1.54570501 25.0568131,1.10072933 24.8986696,0.726012961 C24.7249711,0.309661442 24.3438712,0.0572483339 23.9031434,0.00780659098 C23.835738,0 23.7683326,0 23.6983347,0 C23.4131579,0 23.1305736,0 22.8453968,0 C22.3191161,0 21.7902428,0 21.263962,0 C20.5536126,0 19.8406706,0 19.1303212,0 C18.2825684,0 17.4348156,0 16.5870628,0 C15.6641271,0 14.7411913,0 13.8182556,0 C12.8668021,0 11.9127562,0 10.9613028,0 C10.043552,0 9.12320881,0 8.20545809,0 C7.36548286,0 6.52550762,0 5.68553239,0 C4.98296051,0 4.28298115,0 3.58040927,0 C3.0722761,0 2.56414293,0 2.05860228,0 C1.79416563,0 1.52972899,0 1.26529234,0 C1.04752098,0 0.837527171,0.0390329549 0.640495943,0.135314244 C0.2645811,0.309661442 0.0468097424,0.702593189 0.00532948387,1.11113812 C-0.0283732262,1.43381054 0.101252582,1.7278588 0.295691294,1.97506752 C0.456427295,2.18064108 0.617163297,2.38621464 0.777899299,2.59178821 C1.16159169,3.08100124 1.54269157,3.57021428 1.92638396,4.05682511 C2.45266474,4.72819194 2.97894552,5.39955876 3.50263378,6.07092559 C4.08594992,6.81775613 4.67185857,7.56198447 5.2551747,8.308815 C5.81256568,9.01921478 6.36995665,9.73221676 6.92734763,10.4426165 C7.38103795,11.0203043 7.83472828,11.6005942 8.28841861,12.1782819 C8.55026274,12.5139653 8.81469939,12.8496488 9.07654352,13.18273 C9.11283875,13.2269673 9.14654146,13.2712047 9.18283668,13.3180442 C9.13098636,13.195741 9.08172855,13.0734377 9.02987823,12.9511344 C9.02987823,13.4065189 9.02987823,13.8593012 9.02987823,14.3146857 C9.02987823,15.3425535 9.02987823,16.3730235 9.02987823,17.4008913 C9.02987823,18.519836 9.02987823,19.6361785 9.02987823,20.7551232 C9.02987823,21.4629208 9.02987823,22.0671101 9.02987823,22.7749077 C9.02987823,22.832156 9.02728572,22.9956148 9.02987823,23.050261 C9.0402483,23.4640103 9.27098223,23.7970915 9.65467463,23.9454167 C10.0694772,24.106753 10.4142819,23.8777596 10.756494,23.6825948 C11.6327645,23.1803708 12.5116274,22.6781468 13.3878979,22.1759228 C14.0308419,21.809013 14.6815635,21.4499098 15.3193224,21.0699891 C15.7263475,20.8279847 15.970044,20.4038266 15.9804141,19.9302268 C15.9804141,19.880785 15.9804141,19.8313433 15.9804141,19.7819016 C15.9804141,19.4592291 15.9804141,19.1365567 15.9804141,18.8138843 C15.9804141,17.7261659 15.9804141,16.6384476 15.9804141,15.5507292 C15.9804141,14.7258328 15.9804141,13.9035385 15.9804141,13.0786421 C15.9804141,13.0344047 15.9804141,12.9901674 15.9804141,12.94593 C15.9285637,13.0682333 15.8793059,13.1905366 15.8274556,13.3128398 C16.1230024,12.9355213 16.4185493,12.5582027 16.7166886,12.1808841 C17.421853,11.280524 18.1270174,10.3801638 18.8321818,9.47980365 C19.6903047,8.38427872 20.5484275,7.28875378 21.4065504,6.19322885 C22.1454175,5.24863134 22.8842846,4.30663603 23.6257442,3.36203852 C23.9861039,2.90405185 24.3438712,2.44606517 24.7042309,1.98547631 C24.709416,1.98027191 24.714601,1.97246532 24.719786,1.96726093 C24.8079316,1.85536646 24.8727445,1.74867638 24.8727445,1.60035115 C24.8727445,1.4728435 24.8157091,1.31931388 24.719786,1.23344138 C24.5305323,1.06429857 24.162395,1.00705024 23.9835114,1.23604357 Z" id="XMLID_16_"></path>
        </g>
    </g>
</svg>