<?xml version="1.0" encoding="UTF-8"?>
<svg width="30px" height="30px" viewBox="0 0 30 30" version="1.1" xmlns="http://www.w3.org/2000/svg" xmlns:xlink="http://www.w3.org/1999/xlink">
    <title>radio_enabled</title>
    <g id="radio_enabled" stroke="none" stroke-width="1" fill="none" fill-rule="evenodd">
        <g id="Shape-Copy-(1)" transform="translate(4.020833, 4.000000)" stroke="#7A60E0" stroke-width="6.875">
            <path d="M10.541667,0 C11.998805,0 13.368394,0.275687643 14.650078,0.828742917 C15.933621,1.38260069 17.050546,2.13372713 18.000076,3.08325728 C18.949607,4.03278743 19.700733,5.14971267 20.254591,6.43325608 C20.807646,7.71493972 21.083334,9.08452818 21.083334,10.5416667 C21.083334,11.9808712 20.807488,13.3412591 20.254591,14.6225773 C19.700383,15.9069327 18.948708,17.0289037 17.998586,17.987823 C17.049472,18.9457259 15.933066,19.7009721 14.650078,20.2545905 C13.368394,20.8076457 11.998805,21.0833334 10.541667,21.0833334 C9.102463,21.0833334 7.742075,20.807488 6.460756,20.2545905 C5.176956,19.7006219 4.055507,18.9448258 3.097008,17.9863261 C2.138508,17.0278264 1.382712,15.9063773 0.828743,14.6225773 C0.275846,13.3412591 0,11.9808712 0,10.5416667 C0,9.08452818 0.275688,7.71493972 0.828743,6.43325608 C1.382362,5.15026744 2.137608,4.03386212 3.095511,3.08474733 C4.05443,2.13462548 5.176401,1.38295105 6.460756,0.828742917 C7.742075,0.275845351 9.102463,0 10.541667,0 Z M10.541667,0.733333337 C7.830217,0.733333337 5.517974,1.68554543 3.604644,3.58926074 C1.691049,5.49323913 0.733334,7.81045151 0.733334,10.5416667 C0.733334,13.2533824 1.690271,15.5659518 3.603826,17.4795073 C5.517382,19.3930628 7.829951,20.35 10.541667,20.35 C13.272882,20.35 15.590095,19.3922844 17.494073,17.4786899 C19.397788,15.5653599 20.35,13.2531166 20.35,10.5416667 C20.35,7.81071896 19.397013,5.49383117 17.493258,3.59007606 C15.589503,1.68632096 13.272615,0.733333337 10.541667,0.733333337 Z" id="Shape-Copy"></path>
        </g>
    </g>
</svg>