<?xml version="1.0" encoding="UTF-8"?>
<svg width="28px" height="28px" viewBox="0 0 28 28" version="1.1" xmlns="http://www.w3.org/2000/svg" xmlns:xlink="http://www.w3.org/1999/xlink">
    <title>set time table</title>
    <g id="set-time-table" stroke="none" stroke-width="1" fill="none" fill-rule="evenodd">
        <g id="510867_alarm_calendar_clock_event_schedule_icon" transform="translate(7.000000, 7.000000)" fill="#FFFFFF" fill-rule="nonzero">
            <path d="M7.66588825,1.6185007 L7.66588825,0.197921801 L6.30604923,0.197921801 L6.30604923,1.6185007 C3.2467514,1.96217245 0.866693167,4.5925035 0.866693167,7.78906481 C0.866693167,9.25553562 1.37017356,10.6005481 2.20749444,11.6629631 L1.21651175,12.6687896 L2.17791794,13.6445965 L3.16890062,12.63877 C4.21597666,13.4889781 5.54113978,14 6.98596874,14 C8.43079769,14 9.75596081,13.4889781 10.8026969,12.6391151 L11.7936796,13.6449415 L12.7550858,12.6691346 L11.7641031,11.6633082 C12.6017639,10.6005481 13.1052443,9.25553562 13.1052443,7.78906481 C13.1052443,4.5925035 10.7251861,1.96217245 7.66588825,1.6185007 Z M6.98596874,12.6197922 C4.35739992,12.6197922 2.22653218,10.4570065 2.22653218,7.78906481 C2.22653218,5.12112309 4.35739992,2.95833744 6.98596874,2.95833744 C9.61453756,2.95833744 11.7454053,5.12112309 11.7454053,7.78906481 C11.7454053,10.4570065 9.61453756,12.6197922 6.98596874,12.6197922 Z" id="Shape"></path>
            <polygon id="Path" points="7.66588825 4.33854526 6.30604923 4.33854526 6.30604923 8.13411677 8.38830272 10.24756 9.34970891 9.27175306 7.66588825 7.56236568"></polygon>
            <polygon id="Rectangle" transform="translate(1.702960, 1.736761) rotate(45.000000) translate(-1.702960, -1.736761) " points="1.00522465 0.0191560453 2.37523493 0.0293403495 2.40069569 3.45436605 1.03068541 3.44418174"></polygon>
            <polygon id="Rectangle" transform="translate(12.297040, 1.707904) rotate(45.000000) translate(-12.297040, -1.707904) " points="10.5794348 1.01016814 14.0044605 1.0356289 14.0146448 2.40563918 10.5896191 2.38017842"></polygon>
        </g>
    </g>
</svg>