<?xml version="1.0" encoding="UTF-8"?>
<svg width="28px" height="28px" viewBox="0 0 28 28" version="1.1" xmlns="http://www.w3.org/2000/svg" xmlns:xlink="http://www.w3.org/1999/xlink">
    <title>upload book</title>
    <g id="upload-book" stroke="none" stroke-width="1" fill="none" fill-rule="evenodd">
        <g id="Group" transform="translate(5.000000, 3.000000)" fill="#FFFFFF" fill-rule="nonzero" stroke="#FFFFFF">
            <path d="M16.4333333,3.35294118 L15.8666667,3.35294118 L15.8666667,0.558823529 C15.8666667,0.250193816 15.6129614,0 15.3,0 L2.26666667,0 C1.01482123,0 0,1.00077527 0,2.23529412 L0,16.7647059 C0,17.9992247 1.01482123,19 2.26666667,19 L16.4333333,19 C16.7462947,19 17,18.7498062 17,18.4411765 L17,3.91176471 C17,3.60313499 16.7462947,3.35294118 16.4333333,3.35294118 Z M2.26666667,1.11764706 L14.7333333,1.11764706 L14.7333333,3.35294118 L2.26666667,3.35294118 C1.64074395,3.35294118 1.13333333,2.85255354 1.13333333,2.23529412 C1.13333333,1.61803469 1.64074395,1.11764706 2.26666667,1.11764706 Z M1.13333333,16.7647059 L1.13333333,4.15764706 C1.47559596,4.36080825 1.8671894,4.46893682 2.26666667,4.47058824 L2.26666667,17.8823529 C1.96608798,17.8823529 1.67782021,17.7646012 1.46527898,17.5550017 C1.25273775,17.3454022 1.13333333,17.0611243 1.13333333,16.7647059 Z M15.8666667,17.8823529 L3.4,17.8823529 L3.4,4.47058824 L15.8666667,4.47058824 L15.8666667,17.8823529 Z" id="Shape"></path>
            <path d="M13.0333333,6.70588235 L6.23333333,6.70588235 C5.92037198,6.70588235 5.66666667,6.95607617 5.66666667,7.26470588 C5.66666667,7.5733356 5.92037198,7.82352941 6.23333333,7.82352941 L13.0333333,7.82352941 C13.3462947,7.82352941 13.6,7.5733356 13.6,7.26470588 C13.6,6.95607617 13.3462947,6.70588235 13.0333333,6.70588235 Z" id="Path"></path>
            <path d="M13.0333333,8.94117647 L6.23333333,8.94117647 C5.92037198,8.94117647 5.66666667,9.19137029 5.66666667,9.5 C5.66666667,9.80862971 5.92037198,10.0588235 6.23333333,10.0588235 L13.0333333,10.0588235 C13.3462947,10.0588235 13.6,9.80862971 13.6,9.5 C13.6,9.19137029 13.3462947,8.94117647 13.0333333,8.94117647 Z" id="Path"></path>
        </g>
    </g>
</svg>