<?xml version="1.0" encoding="UTF-8"?>
<svg width="28px" height="28px" viewBox="0 0 28 28" version="1.1" xmlns="http://www.w3.org/2000/svg" xmlns:xlink="http://www.w3.org/1999/xlink">
    <title>upload video</title>
    <g id="upload-video" stroke="none" stroke-width="1" fill="none" fill-rule="evenodd">
        <g id="Group" transform="translate(1.000000, 5.000000)" fill="#FFFFFF" fill-rule="nonzero" stroke="#FFFFFF">
            <path d="M25.6944974,1.38214286 C25.4933867,1.26730749 25.2456082,1.26730749 25.0444975,1.38214286 L18.1999982,4.74428571 L18.1999982,3.21428571 C18.1999982,1.43908473 16.7449238,0 14.9499985,0 L3.24999967,0 C1.45507442,0 0,1.43908473 0,3.21428571 L0,14.7857143 C0,16.5609153 1.45507442,18 3.24999967,18 L14.9499985,18 C16.7449238,18 18.1999982,16.5609153 18.1999982,14.7857143 L18.1999982,13.2557143 L25.0574975,16.6435714 C25.148057,16.6894611 25.248245,16.7136823 25.3499975,16.7142857 C25.4716938,16.7146719 25.5910556,16.6812615 25.6944974,16.6178571 C25.8849379,16.5001401 26.0004468,16.2935367 26,16.0714286 L26,1.92857143 C26.0004468,1.70646334 25.8849379,1.49985993 25.6944974,1.38214286 Z M16.8999983,14.7857143 C16.8999983,15.8508349 16.0269537,16.7142857 14.9499985,16.7142857 L3.24999967,16.7142857 C2.17304452,16.7142857 1.29999987,15.8508349 1.29999987,14.7857143 L1.29999987,3.21428571 C1.29999987,2.14916513 2.17304452,1.28571429 3.24999967,1.28571429 L14.9499985,1.28571429 C16.0269537,1.28571429 16.8999983,2.14916513 16.8999983,3.21428571 L16.8999983,14.7857143 Z M24.6999982,15.03 L18.1999982,11.8157143 L18.1999982,6.18428571 L24.6999982,2.97 L24.6999982,15.03 Z" id="Shape"></path>
        </g>
    </g>
</svg>