<?xml version="1.0" encoding="UTF-8"?>
<svg width="28px" height="28px" viewBox="0 0 28 28" version="1.1" xmlns="http://www.w3.org/2000/svg" xmlns:xlink="http://www.w3.org/1999/xlink">
    <title>user role</title>
    <g id="user-role" stroke="none" stroke-width="1" fill="none" fill-rule="evenodd" stroke-linecap="round" stroke-linejoin="round">
        <g id="Group" transform="translate(4.000000, 4.000000)" stroke="#FFFFFF" stroke-width="1.5">
            <path d="M9.09512814,16.5410491 L8.26663427,17.1765007 C6.84190628,18.2691912 4.84300453,18.2750342 3.41162821,17.1906849 L2.57924895,16.5601025 C0.97182146,15.342337 0.0279747815,13.464647 0.0218876762,11.4725943 L0,4.2511492 L11.599605,4.21723417 L11.621565,11.4386793 C11.6275798,13.4307743 10.6951734,15.3139263 9.09512814,16.5410491 Z" id="Path"></path>
            <path d="M7.38836428,2.86914358 L7.37843496,0.0339150275 L18.97804,0 L19,6.7980365 C19.0060147,8.79013155 18.0736084,10.6732836 16.4735631,11.9004063 L15.6450692,12.5358579 C14.754625,13.218816 13.6398645,13.4771799 12.5795858,13.3101875" id="Path"></path>
            <path d="M9.47818406,9.29957675 C9.47818406,9.29957675 9.14654476,8.51478894 8.22622625,8.51478894 C7.30590775,8.51478894 6.97426844,9.29957675 6.97426844,9.29957675" id="Path"></path>
            <path d="M4.68620761,9.29957675 C4.68620761,9.29957675 4.3545683,8.51478894 3.43424979,8.51478894 C2.51393129,8.51478894 2.18229198,9.29957675 2.18229198,9.29957675" id="Path"></path>
            <path d="M3.04359579,12.4440206 C3.04359579,12.4440206 3.77603428,14.1772436 5.80865254,14.1772436 C7.84127081,14.1772436 8.5737093,12.4440206 8.5737093,12.4440206" id="Path"></path>
            <path d="M14.3133315,4.1960214 C14.3133315,4.1960214 14.6449708,4.98080921 15.5652893,4.98080921 C16.4856078,4.98080921 16.8172471,4.1960214 16.8172471,4.1960214" id="Path"></path>
            <path d="M15.9127723,9.85847608 C15.9127723,9.85847608 15.3707178,8.12525305 12.7510176,8.12525305" id="Path"></path>
        </g>
    </g>
</svg>