<?xml version="1.0" encoding="UTF-8"?>
<svg width="16px" height="16px" viewBox="0 0 16 16" version="1.1" xmlns="http://www.w3.org/2000/svg" xmlns:xlink="http://www.w3.org/1999/xlink">
    <title>Block school</title>
    <g id="Block-school" stroke="none" stroke-width="1" fill="none" fill-rule="evenodd">
        <g id="4879909_block_icon" transform="translate(1.000000, 1.000000)" fill="#000000" fill-rule="nonzero">
            <path d="M7,0 C3.15,0 0,3.15 0,7 C0,10.85 3.15,14 7,14 C10.85,14 14,10.85 14,7 C14,3.15 10.85,0 7,0 Z M1.4,7 C1.4,3.9 3.9,1.4 7,1.4 C8.25,1.4 9.45,1.8 10.45,2.6 L2.6,10.45 C1.8,9.45 1.4,8.25 1.4,7 Z M7,12.6 C5.75,12.6 4.55,12.2 3.55,11.4 L11.4,3.55 C12.15,4.55 12.6,5.7 12.6,7 C12.6,10.1 10.1,12.6 7,12.6 Z" id="block_1_"></path>
        </g>
    </g>
</svg>