<?xml version="1.0" encoding="UTF-8"?>
<svg width="22px" height="16px" viewBox="0 0 22 16" version="1.1" xmlns="http://www.w3.org/2000/svg" xmlns:xlink="http://www.w3.org/1999/xlink">
    <title>eye enabled</title>
    <g id="eye-enabled" stroke="none" stroke-width="1" fill="none" fill-rule="evenodd">
        <g id="314859_eye_icon" transform="translate(1.000000, 3.000000)" fill="#1B1F1B" fill-rule="nonzero">
            <path d="M10,0 C16.9230769,0 20,5.5 20,5.5 C20,5.5 16.9230769,11 10,11 C3.07692308,11 0,5.5 0,5.5 C0,5.5 3.07692308,0 10,0 Z M10,0.785714286 C3.84615385,0.785714286 0.923039362,5.5 0.923039362,5.5 C0.923039362,5.5 3.84615385,10.2142857 10,10.2142857 C16.1538462,10.2142857 19.0769606,5.5 19.0769606,5.5 C19.0769606,5.5 16.1538462,0.785714286 10,0.785714286 Z M10,8.64285714 C11.6993378,8.64285714 13.0769231,7.23575215 13.0769231,5.5 C13.0769231,3.76424785 11.6993378,2.35714286 10,2.35714286 C8.30066223,2.35714286 6.92307692,3.76424785 6.92307692,5.5 C6.92307692,7.23575215 8.30066223,8.64285714 10,8.64285714 L10,8.64285714 L10,8.64285714 Z M10,3.14285714 C11.2745033,3.14285714 12.3076923,4.19818591 12.3076923,5.5 C12.3076923,6.80181409 11.2745033,7.85714286 10,7.85714286 C8.72549669,7.85714286 7.69230769,6.80181409 7.69230769,5.5 C7.69230769,4.19818591 8.72549669,3.14285714 10,3.14285714 Z M10,4.71428571 C9.57516554,4.71428571 9.23076923,5.06606194 9.23076923,5.5 C9.23076923,5.93393806 9.57516554,6.28571429 10,6.28571429 C10.4248345,6.28571429 10.7692308,5.93393806 10.7692308,5.5 C10.7692308,5.06606194 10.4248345,4.71428571 10,4.71428571 Z" id="eye"></path>
        </g>
    </g>
</svg>