<?xml version="1.0" encoding="UTF-8"?>
<svg width="22px" height="16px" viewBox="0 0 22 16" version="1.1" xmlns="http://www.w3.org/2000/svg" xmlns:xlink="http://www.w3.org/1999/xlink">
    <title>eye disabled</title>
    <g id="eye-disabled" stroke="none" stroke-width="1" fill="none" fill-rule="evenodd">
        <g id="314858_hidden_eye_icon" transform="translate(1.000000, 1.000000)" fill="#1B1F1B" fill-rule="nonzero">
            <path d="M3.92976839,10.8043453 C1.24400628,9.20120032 0,7 0,7 C0,7 3.07692308,1.55555556 10,1.55555556 C11.0034698,1.55555556 11.9261348,1.66993918 12.7703375,1.86554762 L12.1168475,2.52629868 C11.4593449,2.4033758 10.7539176,2.33333333 10,2.33333333 C3.84615385,2.33333333 0.923039362,7 0.923039362,7 C0.923039362,7 2.08825237,8.86022861 4.49609779,10.2317234 L3.92976839,10.8043453 L3.92976839,10.8043453 L3.92976839,10.8043453 Z M7.22966231,12.1344526 C8.07386508,12.330061 8.99653015,12.4444444 10,12.4444444 C16.9230769,12.4444444 20,7 20,7 C20,7 18.7559937,4.79879991 16.0702314,3.19565493 L15.5039021,3.76827679 C17.9117476,5.13977147 19.0769606,7 19.0769606,7 C19.0769606,7 16.1538462,11.6666659 10,11.6666667 C9.24608231,11.6666667 8.540655,11.5966243 7.88315238,11.4737015 L7.22966231,12.1344526 L7.22966231,12.1344526 L7.22966231,12.1344526 Z M12.9989639,6.30104759 C13.0499737,6.52572006 13.0769231,6.75967787 13.0769231,7 C13.0769231,8.7182193 11.6993378,10.1111111 10,10.1111111 C9.76231877,10.1111111 9.53093192,10.0838623 9.30872838,10.0322857 L10,9.33333333 C10.5905899,9.33333341 11.1811799,9.10552751 11.6317848,8.64991579 C12.0823898,8.19430414 12.3076924,7.59715203 12.3076923,7 L12.9989639,6.30104759 L12.9989639,6.30104759 L12.9989639,6.30104759 Z M10.6912716,3.96771426 C10.4690681,3.91613771 10.2376812,3.88888889 10,3.88888889 C8.30066223,3.88888889 6.92307692,5.2817807 6.92307692,7 C6.92307692,7.24032213 6.95002631,7.47427994 7.00103608,7.69895241 L7.69230769,7 C7.69230762,6.40284797 7.91761015,5.80569586 8.36821515,5.35008421 C8.81882008,4.89447249 9.40941008,4.66666659 10,4.66666667 L10.6912716,3.96771426 L10.6912716,3.96771426 L10.6912716,3.96771426 Z M16.1538462,0 L3.07692308,13.2222222 L3.84615385,14 L16.9230769,0.777777778 L16.1538462,0 L16.1538462,0 Z" id="eye-hidden"></path>
        </g>
    </g>
</svg>