<?xml version="1.0" encoding="UTF-8"?>
<svg width="18px" height="18px" viewBox="0 0 18 18" version="1.1" xmlns="http://www.w3.org/2000/svg" xmlns:xlink="http://www.w3.org/1999/xlink">
    <title>Invite send</title>
    <g id="Invite-send" stroke="none" stroke-width="1" fill="none" fill-rule="evenodd">
        <g id="Group" transform="translate(1.000000, 1.000000)">
            <path d="M14.8733333,6.50666667 L14.2066667,6 C14.2933333,5.69333333 14.3666667,5.43333333 14.4333333,5.20666667 C14.7,4.31333333 14.8466667,3.82 14.48,3.31333333 C14.1133333,2.80666667 13.6133333,2.78666667 12.6666667,2.76 L11.84,2.76 C11.7266667,2.46666667 11.64,2.20666667 11.56,1.98 C11.2533333,1.1 11.08,0.646666667 10.4866667,0.426666667 C9.89333333,0.206666667 9.46666667,0.52 8.69333333,1.05333333 L8.02666667,1.51333333 L7.36,1.06666667 C6.66666667,0.526666667 6.16,0.193333333 5.55333333,0.393333333 C4.94666667,0.593333333 4.78666667,1.06 4.47333333,1.94666667 C4.39333333,2.16666667 4.30666667,2.42666667 4.19333333,2.72 L3.33333333,2.75333333 C2.4,2.75333333 1.88666667,2.78666667 1.52,3.29333333 C1.15333333,3.8 1.33333333,4.29333333 1.58666667,5.19333333 C1.65333333,5.42 1.73333333,5.68 1.81333333,5.98666667 L1.14666667,6.49333333 C0.426666667,7.05333333 0,7.36666667 0,8 C0,8.63333333 0.406666667,8.94 1.14666667,9.50666667 L1.81333333,10.0133333 C1.73333333,10.32 1.65333333,10.58 1.58666667,10.8066667 C1.32,11.7 1.17333333,12.1933333 1.54,12.7 C1.90666667,13.2066667 2.42666667,13.22 3.35333333,13.2466667 L4.17333333,13.2466667 C4.28666667,13.54 4.37333333,13.8 4.45333333,14.0266667 C4.76,14.9066667 4.93333333,15.36 5.53333333,15.5866667 C6.13333333,15.8133333 6.55333333,15.4866667 7.32666667,14.96 L7.99333333,14.5 L8.66,14.9466667 C9.07118428,15.3065988 9.57870508,15.5383435 10.12,15.6133333 C10.2402046,15.6120876 10.3594557,15.5918374 10.4733333,15.5533333 C11.0733333,15.36 11.24,14.8866667 11.5533333,14 C11.6333333,13.78 11.72,13.52 11.8333333,13.22 L12.66,13.22 C13.5933333,13.22 14.1066667,13.1866667 14.4733333,12.68 C14.84,12.1733333 14.7,11.68 14.4333333,10.7866667 C14.3666667,10.56 14.2866667,10.3 14.2066667,9.99333333 L14.8733333,9.48666667 C15.6066667,8.95333333 16,8.66666667 16,8 C16,7.33333333 15.6133333,7.07333333 14.8733333,6.50666667 Z" id="Path" fill="#2DB674" fill-rule="nonzero"></path>
            <path d="M6.92,11.5066667 L6.92,11.5066667 C6.73786818,11.4990028 6.56681887,11.4170919 6.44666667,11.28 L4.47333333,9.08666667 C4.22848709,8.81052429 4.25385763,8.38817957 4.53,8.14333333 C4.80614237,7.89848709 5.22848709,7.92385763 5.47333333,8.2 L6.95333333,9.87333333 L11.1666667,5.76666667 C11.3369633,5.59994271 11.58327,5.53673558 11.8128055,5.60085479 C12.0423409,5.664974 12.2202333,5.84667831 12.2794721,6.07752147 C12.338711,6.30836463 12.2702966,6.55327606 12.1,6.72 L7.38666667,11.3333333 C7.25932792,11.4492011 7.09210142,11.5113138 6.92,11.5066667 L6.92,11.5066667 Z" id="Path" fill="#FFFFFF" fill-rule="nonzero"></path>
            <rect id="Rectangle" x="0" y="0" width="16" height="16"></rect>
        </g>
    </g>
</svg>