<?xml version="1.0" encoding="UTF-8"?>
<svg width="24px" height="20px" viewBox="0 0 24 20" version="1.1" xmlns="http://www.w3.org/2000/svg" xmlns:xlink="http://www.w3.org/1999/xlink">
    <title>Invite school</title>
    <g id="Invite-school" stroke="none" stroke-width="1" fill="none" fill-rule="evenodd" stroke-linecap="round" stroke-linejoin="round">
        <g id="Group" transform="translate(2.000000, 1.000000)" stroke="#FFFFFF" stroke-width="1.6">
            <path d="M8.94673499,11.9060025 L0.530366886,7.02010859 C0.202376364,6.82960524 0,6.47534611 0,6.09170318 C0,5.70806024 0.202376364,5.35380111 0.530366886,5.16329777 L8.94673499,0.281682222 C9.59434257,-0.0938940739 10.3892606,-0.0938940739 11.0368682,0.281682222 L19.4532363,5.16436736 C19.7812268,5.35487071 19.9836032,5.70912984 19.9836032,6.09277277 C19.9836032,6.47641571 19.7812268,6.83067484 19.4532363,7.02117818 L11.0368682,11.9038633 C10.3896336,12.2801026 9.59471542,12.2809162 8.94673499,11.9060025 Z" id="Path"></path>
            <path d="M15.6248371,11.4054337 L15.7723263,13.0472566 C16.2495593,19.6509145 3.73404387,19.6509145 4.21127691,13.0472566 L4.35876615,11.4054337" id="Path"></path>
            <line x1="18.9465054" y1="7.31745502" x2="18.9465054" y2="13.3146545" id="Path"></line>
            <ellipse id="Oval" cx="18.9465054" cy="15.4538375" rx="1.05349457" ry="2.13918297"></ellipse>
            <path d="M8.48425088,5.88527202 C8.48425088,5.52588928 9.15954089,5.2349604 9.9918016,5.2349604 C10.8240623,5.2349604 11.4993523,5.52588928 11.4993523,5.88527202" id="Path"></path>
        </g>
    </g>
</svg>