<?xml version="1.0" encoding="UTF-8"?>
<svg width="28px" height="26px" viewBox="0 0 28 26" version="1.1" xmlns="http://www.w3.org/2000/svg" xmlns:xlink="http://www.w3.org/1999/xlink">
    <title>School mamangement</title>
    <g id="School-mamangement" stroke="none" stroke-width="1" fill="none" fill-rule="evenodd" stroke-linecap="round" stroke-linejoin="round">
        <g id="Group" transform="translate(2.000000, 2.000000)" stroke="#FFFFFF" stroke-width="1.95555556">
            <path d="M10.736082,14.5517808 L0.636440263,8.58013272 C0.242851637,8.3472953 0,7.91431192 0,7.445415 C0,6.97651808 0.242851637,6.54353469 0.636440263,6.31069727 L10.736082,0.344278271 C11.5132111,-0.114759424 12.4671128,-0.114759424 13.2442419,0.344278271 L23.3438836,6.31200455 C23.7374722,6.54484197 23.9803238,6.97782535 23.9803238,7.44672228 C23.9803238,7.9156192 23.7374722,8.34860258 23.3438836,8.58144 L13.2442419,14.5491663 C12.4675603,15.0090143 11.5136585,15.0100087 10.736082,14.5517808 Z" id="Path"></path>
            <path d="M18.7498045,13.9399745 L18.9267916,15.946647 C19.4994712,24.0177843 4.48085264,24.0177843 5.05353229,15.946647 L5.23051938,13.9399745" id="Path"></path>
            <line x1="22.7358065" y1="8.94355614" x2="22.7358065" y2="16.2734666" id="Path"></line>
            <ellipse id="Oval" cx="22.7358065" cy="18.8880236" rx="1.26419348" ry="2.61455697"></ellipse>
            <path d="M10.1811011,7.19311025 C10.1811011,6.75386468 10.9914491,6.39828493 11.9901619,6.39828493 C12.9888748,6.39828493 13.7992228,6.75386468 13.7992228,7.19311025" id="Path"></path>
        </g>
    </g>
</svg>