<?xml version="1.0" encoding="UTF-8"?>
<svg width="24px" height="24px" viewBox="0 0 24 24" version="1.1" xmlns="http://www.w3.org/2000/svg" xmlns:xlink="http://www.w3.org/1999/xlink">
    <title>timer@3x</title>
    <g id="timer" stroke="none" stroke-width="1" fill="none" fill-rule="evenodd">
        <g id="Group" transform="translate(2.000000, 2.000000)" fill="#7A60E0" fill-rule="nonzero">
            <path d="M10,0 C15.5228475,0 20,4.47715247 20,10 C20,15.5228475 15.5228475,20 10,20 C4.47715247,20 0,15.5228475 0,10 C0,4.47715247 4.47715247,0 10,0 Z M10,1.39534884 C5.24778242,1.39534884 1.39534884,5.24778242 1.39534884,10 C1.39534884,14.7522176 5.24778242,18.6046512 10,18.6046512 C14.7522176,18.6046512 18.6046512,14.7522176 18.6046512,10 C18.6046512,5.24778242 14.7522176,1.39534884 10,1.39534884 Z M10,3.34938223 C10.3532054,3.34938223 10.6451079,3.61185098 10.6913055,3.95238642 L10.6976744,4.04705665 L10.6976744,9.70139535 L14.2072663,13.0396801 C14.4610506,13.2811217 14.493218,13.6680344 14.2974308,13.946126 L14.2318497,14.0260344 C13.9904081,14.2798188 13.6034953,14.3119862 13.3254038,14.116199 L13.2454953,14.0506179 L9.51911451,10.5054688 C9.40837153,10.4001118 9.33607237,10.2621086 9.31158251,10.1132954 L9.30232558,10 L9.30232558,4.04705665 C9.30232558,3.66174177 9.61468502,3.34938223 10,3.34938223 Z" id="shape"></path>
        </g>
    </g>
</svg>