<?xml version="1.0" encoding="UTF-8"?>
<svg width="34px" height="34px" viewBox="0 0 34 34" version="1.1" xmlns="http://www.w3.org/2000/svg" xmlns:xlink="http://www.w3.org/1999/xlink">
    <title>Total Parents</title>
    <g id="Total-Parents" stroke="none" stroke-width="1" fill="none" fill-rule="evenodd">
        <g id="4574385_female_mother_parent_woman_icon" transform="translate(8.000000, 5.000000)" fill="#FFFFFF" fill-rule="nonzero" stroke="#FFFFFF">
            <path d="M17.2210525,7.7402782 C16.4448921,6.15090226 15.0535384,4.94994486 13.2721367,4.21366165 C13.4752513,3.87788753 13.5857811,3.49152195 13.5918755,3.09598997 C13.5918755,1.36011278 11.5471752,0 8.93668028,0 C6.32722955,0 4.28255605,1.36011278 4.28255605,3.09598997 C4.2940521,3.44645635 4.38888327,3.78866561 4.55873302,4.09260652 C2.83251313,4.71409273 1.51607401,5.73273684 0.741225564,7.12753133 C-0.397325065,9.17755639 -0.218097854,11.7294461 1.23655024,14.322193 C2.14002246,19.8230476 4.98321289,23.1578947 8.93668028,23.1578947 C12.8857031,23.1578947 15.7270729,19.8309323 16.6340526,14.3411604 C18.0348575,12.3235564 18.2607791,9.86713784 17.2210525,7.7402782 Z M5.35352833,3.09598997 C5.35352833,2.01528822 6.99449883,1.10275689 8.93668028,1.10275689 C10.8799327,1.10275689 12.5209032,2.01545363 12.5209032,3.09598997 C12.5045425,3.37600398 12.3945241,3.64154676 12.2095448,3.84749123 C11.1435708,3.54431465 10.0425698,3.39149333 8.93668028,3.39321053 C7.81373318,3.38787396 6.69405487,3.51820073 5.60060163,3.7815188 C5.44877255,3.58632422 5.36212651,3.34591638 5.35352833,3.09598997 Z M1.67101692,7.67518797 C2.79323522,5.65490977 5.44137483,4.4961604 8.93668028,4.4961604 C12.3817839,4.4961604 15.1209294,5.89390476 16.2651294,8.2357193 C16.7774296,9.28212057 16.9213924,10.4790914 16.6724737,11.6225614 C15.8411315,10.0140526 14.8984617,9.75115539 14.0593013,9.53388471 C13.2769829,9.33141855 12.60136,9.1564386 11.8870215,7.68483709 C11.7962355,7.49814125 11.6108563,7.38022785 11.4080827,7.3802005 L11.4027278,7.3802005 C11.1977026,7.38228073 11.0117728,7.50454803 10.9237087,7.69520301 C9.86438324,9.99373434 6.57615028,10.3927393 4.17481624,10.684584 C2.80664915,10.8505489 1.72204875,10.9888622 1.248679,11.4754261 C0.90515631,10.2002464 1.05660513,8.8374951 1.67101692,7.67518797 L1.67101692,7.67518797 Z M8.93668028,22.0551378 C5.07218391,22.0551378 2.50562562,18.3769474 2.06216277,12.2111028 C2.34768398,12.0167143 3.46990228,11.8804962 4.30033419,11.779787 C6.66820035,11.4922431 9.81731401,11.1094211 11.3976139,8.99808271 C12.2092235,10.191817 13.0773001,10.4163659 13.7979038,10.6032005 C14.5634883,10.8018897 15.1742638,10.9596667 15.8059768,12.2788947 C15.3489394,18.4038822 12.7865579,22.0551378 8.93668028,22.0551378 Z" id="Shape" stroke-width="0.5"></path>
            <path d="M7.33022186,14.9211554 C7.51521489,14.921222 7.68711735,14.8228884 7.78479732,14.6611238 C7.88247729,14.4993593 7.89207529,14.297116 7.81017809,14.1263158 C7.54787712,13.4873471 6.95392861,13.0589976 6.28109742,13.0235589 L6.26647865,13.0235589 C5.58912292,13.055245 4.98737686,13.4785093 4.71239077,14.1166942 C4.57665313,14.3873117 4.67967169,14.7199933 4.94248917,14.8597594 C5.20530665,14.9995255 5.52839941,14.8934495 5.66413706,14.6228321 C5.7618156,14.3564759 5.99276427,14.1661491 6.26655897,14.1263709 L6.27065544,14.1263709 C6.53720275,14.1638156 6.76094251,14.3517925 6.85005144,14.6131554 C6.93984442,14.8018234 7.12617284,14.9213417 7.33022186,14.9211554 L7.33022186,14.9211554 Z" id="Path" stroke-width="0.735744681"></path>
            <path d="M11.6362266,13.0235589 L11.621581,13.0235589 C10.9441368,13.055153 10.3422767,13.4784319 10.0672522,14.1166942 C9.93151452,14.3873117 10.0345331,14.7199933 10.2973506,14.8597594 C10.560168,14.9995255 10.8832608,14.8934495 11.0189985,14.6228321 C11.1166819,14.3564795 11.347628,14.1661548 11.6214204,14.1263709 L11.6255168,14.1263709 C11.8920666,14.163824 12.1158107,14.3517958 12.2049396,14.6131554 C12.3355018,14.8861481 12.656269,14.9984696 12.9213933,14.8640326 C13.1865175,14.7295955 13.2956017,14.3993085 13.1650395,14.1263158 C12.9027855,13.487429 12.3089613,13.0590942 11.6362266,13.0235589 Z" id="Path" stroke-width="0.735744681"></path>
            <path d="M10.7993956,18.0210326 C10.5400275,17.8754163 10.2151267,17.9737555 10.0735441,18.2407293 C9.91667346,18.5352757 9.46485703,18.7323383 8.94610483,18.7323383 C8.43570622,18.7673509 7.9525103,18.5304236 7.80086063,18.2428797 C7.71147615,18.0666789 7.53684905,17.9537123 7.34389009,17.9472646 C7.15093114,17.9408168 6.96955827,18.0418876 6.869267,18.2117503 C6.76897573,18.381613 6.76531604,18.5939306 6.85969019,18.7673509 C7.20483778,19.4242632 8.00177503,19.8334962 8.94005384,19.8350952 L8.9463458,19.8350952 C9.87297779,19.8350952 10.6647208,19.4270752 11.0129742,18.7695013 C11.0813638,18.641153 11.097278,18.4900389 11.0571973,18.3495792 C11.0171165,18.2091195 10.9243434,18.090888 10.7993956,18.0210326 L10.7993956,18.0210326 Z" id="Path" stroke-width="0.735744681"></path>
        </g>
    </g>
</svg>