<?xml version="1.0" encoding="UTF-8"?>
<svg width="34px" height="34px" viewBox="0 0 34 34" version="1.1" xmlns="http://www.w3.org/2000/svg" xmlns:xlink="http://www.w3.org/1999/xlink">
    <title>Total classes</title>
    <g id="Total-classes" stroke="none" stroke-width="1" fill="none" fill-rule="evenodd">
        <g id="Group" transform="translate(8.000000, 8.000000)" fill="#FFFFFF" fill-rule="nonzero" stroke="#FFFFFF" stroke-width="0.5">
            <path d="M18.9191489,0.43062201 L18.9191489,12.4880383 C18.9191489,12.7257416 18.7265176,12.9186603 18.4891683,12.9186603 L15.049323,12.9186603 C14.8119737,12.9186603 14.6193424,12.7257416 14.6193424,12.4880383 C14.6193424,12.2503349 14.8119737,12.0574163 15.049323,12.0574163 L18.0591876,12.0574163 L18.0591876,0.861244019 L0.859961315,0.861244019 L0.859961315,12.0574163 L3.0098646,12.0574163 C3.24721393,12.0574163 3.43984526,12.2503349 3.43984526,12.4880383 C3.43984526,12.7257416 3.24721393,12.9186603 3.0098646,12.9186603 L0.429980658,12.9186603 C0.192631335,12.9186603 0,12.7257416 0,12.4880383 L0,0.43062201 C0,0.19291866 0.192631335,0 0.429980658,0 L18.4891683,0 C18.7265176,0 18.9191489,0.19291866 18.9191489,0.43062201 Z M14.582364,10.0791388 L11.1794971,17.7467943 L11.1794971,18.5167464 C11.1794971,18.7544498 10.9868658,18.9473684 10.7495164,18.9473684 L3.0098646,18.9473684 C2.77251528,18.9473684 2.57988395,18.7544498 2.57988395,18.5167464 L2.57988395,15.9304306 C2.57988395,15.2190431 3.15691799,14.6411483 3.86724603,14.6411483 L9.89213501,14.6411483 C10.5173269,14.6411483 11.0393234,15.0889952 11.1554182,15.6806699 L13.7963594,9.72947368 C13.892675,9.51157895 14.1472236,9.41425837 14.3639338,9.5107177 C14.5806441,9.60717703 14.6786797,9.86210526 14.582364,10.0791388 Z M10.3195358,15.9304306 C10.3195358,15.6944498 10.1277644,15.5023923 9.89213501,15.5023923 L3.86724603,15.5023923 C3.63161663,15.5023923 3.43984526,15.6944498 3.43984526,15.9304306 L3.43984526,18.0861244 L10.3195358,18.0861244 L10.3195358,17.6649761 C10.3195358,17.6589474 10.3195358,17.6520574 10.3195358,17.6460287 L10.3195358,15.9304306 Z M6.87969052,13.7799043 C5.45731451,13.7799043 4.29980658,12.6206699 4.29980658,11.1961722 C4.29980658,9.77167464 5.45731451,8.61244019 6.87969052,8.61244019 C8.30206654,8.61244019 9.45957447,9.77167464 9.45957447,11.1961722 C9.45957447,12.6206699 8.30206654,13.7799043 6.87969052,13.7799043 Z M6.87969052,12.9186603 C7.82822785,12.9186603 8.59961315,12.1461244 8.59961315,11.1961722 C8.59961315,10.2462201 7.82822785,9.47368421 6.87969052,9.47368421 C5.93115319,9.47368421 5.15976789,10.2462201 5.15976789,11.1961722 C5.15976789,12.1461244 5.93115319,12.9186603 6.87969052,12.9186603 Z" id="Shape"></path>
        </g>
    </g>
</svg>