<?xml version="1.0" encoding="UTF-8"?>
<svg width="34px" height="34px" viewBox="0 0 34 34" version="1.1" xmlns="http://www.w3.org/2000/svg" xmlns:xlink="http://www.w3.org/1999/xlink">
    <title>Total Teachers</title>
    <g id="Total-Teachers" stroke="none" stroke-width="1" fill="none" fill-rule="evenodd" stroke-linecap="round" stroke-linejoin="round">
        <g id="Group-12" transform="translate(9.000000, 9.000000)" stroke="#FFFFFF" stroke-width="1.43303922">
            <path d="M8.76959043,7.80487805 L10.7626791,7.80487805 C11.4231306,7.80487805 11.9585324,7.25313653 11.9585324,6.57252888 L11.9585324,6.57252888 C11.9585324,5.89192123 11.4231306,5.34017972 10.7626791,5.34017972 L2.39170655,5.34017972 C1.07080355,5.34017972 0,6.44366275 0,7.80487805 L0,9.44801027 C-0.000232040849,10.3138349 0.440409894,11.1162888 1.16077496,11.5618999" id="Path"></path>
            <path d="M4.78341301,11.9127086 L4.78341301,16.8421053 L5.97926623,16.8421053 C6.63971773,16.8421053 7.17511946,16.2903637 7.17511946,15.6097561 L7.17511946,7.80487805" id="Path"></path>
            <path d="M4.78341301,16.8421053 L3.58755978,16.8421053 C2.92710828,16.8421053 2.39170655,16.2903637 2.39170655,15.6097561 L2.39170655,7.80487805" id="Path"></path>
            <ellipse id="Oval" cx="4.78341301" cy="2.05391528" rx="1.99308871" ry="2.05391528"></ellipse>
            <polyline id="Path" points="8.37097269 1.23234917 16.7419453 1.23234917 16.7419453 11.0911425 8.76959043 11.0911425"></polyline>
        </g>
    </g>
</svg>