<?xml version="1.0" encoding="UTF-8"?>
<svg width="32px" height="32px" viewBox="0 0 32 32" version="1.1" xmlns="http://www.w3.org/2000/svg" xmlns:xlink="http://www.w3.org/1999/xlink">
    <title>Announcement Management</title>
    <g id="Announcement-Management" stroke="none" stroke-width="1" fill="none" fill-rule="evenodd">
        <g id="6973361_phone_massage_chat_communication_icon" transform="translate(7.000000, 7.000000)" fill="#FFFFFF" fill-rule="nonzero">
            <path d="M16.2,0 L1.8,0 C0.8073,0 0,0.8073 0,1.8 L0,18 L4.7997,14.4 L16.2,14.4 C17.1927,14.4 18,13.5927 18,12.6 L18,1.8 C18,0.8073 17.1927,0 16.2,0 Z M16.2,12.6 L4.2003,12.6 L1.8,14.4 L1.8,1.8 L16.2,1.8 L16.2,12.6 Z M14.4,6.3 L3.6,6.3 L3.6,4.5 L14.4,4.5 L14.4,6.3 Z M11.7,9.9 L3.6,9.9 L3.6,8.1 L11.7,8.1 L11.7,9.9 Z" id="Shape"></path>
        </g>
    </g>
</svg>