<?xml version="1.0" encoding="UTF-8"?>
<svg width="32px" height="32px" viewBox="0 0 32 32" version="1.1" xmlns="http://www.w3.org/2000/svg" xmlns:xlink="http://www.w3.org/1999/xlink">
    <title>School Configuration</title>
    <g id="School-Configuration" stroke="none" stroke-width="1" fill="none" fill-rule="evenodd">
        <g id="7787557_configuration_settings_gear_options_preferences_icon" transform="translate(7.000000, 8.000000)" fill="#FFFFFF" fill-rule="nonzero">
            <path d="M2.27647059,5.14285714 C2.75294118,6.8 4.12941176,8 5.82352941,8 C7.51764706,8 8.89411765,6.8 9.37058824,5.14285714 L16.4117647,5.14285714 C16.9965368,5.14285714 17.4705882,4.63118257 17.4705882,4 C17.4705882,3.36881743 16.9965368,2.85714286 16.4117647,2.85714286 L9.37058824,2.85714286 C8.89411765,1.2 7.51764706,0 5.82352941,0 C4.12941176,0 2.75294118,1.2 2.27647059,2.85714286 L1.05882353,2.85714286 C0.474051441,2.85714286 0,3.36881743 0,4 C0,4.63118257 0.474051441,5.14285714 1.05882353,5.14285714 L2.27647059,5.14285714 Z M5.82352941,2.28571429 C6.70068754,2.28571429 7.41176471,3.05322614 7.41176471,4 C7.41176471,4.94677386 6.70068754,5.71428571 5.82352941,5.71428571 C4.94637128,5.71428571 4.23529412,4.94677386 4.23529412,4 C4.22745607,3.54280209 4.39226936,3.10183405 4.69183722,2.77849096 C4.99140507,2.45514788 5.399949,2.27725417 5.82352941,2.28571429 L5.82352941,2.28571429 Z M16.9411765,10.8571429 L15.7235294,10.8571429 C15.2470588,9.2 13.8705882,8 12.1764706,8 C10.4823529,8 9.10588235,9.2 8.62941176,10.8571429 L1.58823529,10.8571429 C1.00346321,10.8571429 0.529411765,11.3688174 0.529411765,12 C0.529411765,12.6311826 1.00346321,13.1428571 1.58823529,13.1428571 L8.62941176,13.1428571 C9.10588235,14.8 10.4823529,16 12.1764706,16 C13.8705882,16 15.2470588,14.8 15.7235294,13.1428571 L16.9411765,13.1428571 C17.5259486,13.1428571 18,12.6311826 18,12 C18,11.3688174 17.5259486,10.8571429 16.9411765,10.8571429 Z M12.1764706,13.7142857 C11.2993125,13.7142857 10.5882353,12.9467739 10.5882353,12 C10.5882353,11.0532261 11.2993125,10.2857143 12.1764706,10.2857143 C13.0536287,10.2857143 13.7647059,11.0532261 13.7647059,12 C13.7725439,12.4571979 13.6077306,12.898166 13.3081628,13.221509 C13.0085949,13.5448521 12.600051,13.7227458 12.1764706,13.7142857 L12.1764706,13.7142857 Z" id="Shape"></path>
        </g>
    </g>
</svg>