<?xml version="1.0" encoding="UTF-8"?>
<svg width="32px" height="32px" viewBox="0 0 32 32" version="1.1" xmlns="http://www.w3.org/2000/svg" xmlns:xlink="http://www.w3.org/1999/xlink">
    <title>User Management</title>
    <g id="User-Management" stroke="none" stroke-width="1" fill="none" fill-rule="evenodd" stroke-linecap="round" stroke-linejoin="round">
        <g id="7124176_circle_user_icon" transform="translate(7.000000, 7.000000)" stroke="#FFFFFF" stroke-width="1.8">
            <path d="M2.12104,14.8037 C4.15267,13.6554 6.4998,13 9,13 C11.5002,13 13.8473,13.6554 15.879,14.8037 M12,7 C12,8.6569 10.6569,10 9,10 C7.3431,10 6,8.6569 6,7 C6,5.34315 7.3431,4 9,4 C10.6569,4 12,5.34315 12,7 Z M18,9 C18,13.9706 13.9706,18 9,18 C4.02944,18 0,13.9706 0,9 C0,4.02944 4.02944,0 9,0 C13.9706,0 18,4.02944 18,9 Z" id="Shape"></path>
        </g>
    </g>
</svg>