<?xml version="1.0" encoding="UTF-8"?>
<svg width="22px" height="13px" viewBox="0 0 22 13" version="1.1" xmlns="http://www.w3.org/2000/svg" xmlns:xlink="http://www.w3.org/1999/xlink">
    <title>eye</title>
    <g id="eye" stroke="none" stroke-width="1" fill="none" fill-rule="evenodd">
        <g id="3178352_show_view_visible_eye_icon" transform="translate(1.000000, 1.000000)" fill="#1B1F1B" fill-rule="nonzero">
            <path d="M10,2.29166667 C8.24273034,2.29166667 6.81818182,3.72808643 6.81818182,5.5 C6.81818182,7.27191357 8.24273034,8.70833333 10,8.70833333 C11.7572697,8.70833333 13.1818182,7.27191357 13.1818182,5.5 C13.1818182,3.72808643 11.7572697,2.29166667 10,2.29166667 Z M10,7.79166667 C8.74480739,7.79166667 7.72727273,6.76565255 7.72727273,5.5 C7.72727273,4.23434745 8.74480739,3.20833333 10,3.20833333 C11.2551926,3.20833333 12.2727273,4.23434745 12.2727273,5.5 C12.2727273,6.76565255 11.2551926,7.79166667 10,7.79166667 L10,7.79166667 Z" id="Shape"></path>
            <path d="M10,0 C3.78636364,0 0,4.76208333 0,5.5 C0,6.23791667 3.78636364,11 10,11 C16.2136364,11 20,6.23791667 20,5.5 C20,4.76208333 16.2136364,0 10,0 Z M10,10.0833333 C6.44127419,10.0444822 3.09903105,8.35351627 0.940909091,5.5 C3.09903105,2.64648373 6.44127419,0.955517767 10,0.916666667 C13.5587258,0.955517767 16.9009689,2.64648373 19.0590909,5.5 C16.9009689,8.35351627 13.5587258,10.0444822 10,10.0833333 Z" id="Shape"></path>
        </g>
    </g>
</svg>