<?xml version="1.0" encoding="UTF-8"?>
<svg width="51px" height="51px" viewBox="0 0 51 51" version="1.1" xmlns="http://www.w3.org/2000/svg" xmlns:xlink="http://www.w3.org/1999/xlink">
    <title>Group 31</title>
    <g id="Page-1" stroke="none" stroke-width="1" fill="none" fill-rule="evenodd">
        <g id="Group-31" transform="translate(12.000000, 12.000000)">
            <circle id="Oval-Copy" stroke-opacity="0.0894869291" stroke="#FFFFFF" stroke-width="12" fill="#FFFFFF" cx="13.5" cy="13.5" r="19.5"></circle>
            <path d="M20.5994925,8.36707042 C20.8558982,8.60147632 21,8.91975528 21,9.2516751 C21,9.58359492 20.8558982,9.90187387 20.5994925,10.1362798 L12.4199598,17.6329296 C12.1642015,17.8679288 11.8169299,18 11.454775,18 C11.09262,18 10.7453484,17.8679288 10.4895901,17.6329296 L6.39982375,13.8846047 C6.05499641,13.5685659 5.920326,13.1079293 6.04654157,12.6762122 C6.17275714,12.2444952 6.54068352,11.9072858 7.01172643,11.7916075 C7.48276933,11.6759293 7.98536613,11.7993565 8.33019346,12.1153953 L11.454775,14.9816144 L18.6691228,8.36707042 C18.9248811,8.13207119 19.2721527,8 19.6343076,8 C19.9964626,8 20.3437342,8.13207119 20.5994925,8.36707042 L20.5994925,8.36707042 Z" id="Path" fill="#8E70F1" fill-rule="nonzero"></path>
        </g>
    </g>
</svg>