<?xml version="1.0" encoding="UTF-8"?>
<svg width="30px" height="30px" viewBox="0 0 30 30" version="1.1" xmlns="http://www.w3.org/2000/svg" xmlns:xlink="http://www.w3.org/1999/xlink">
    <title>report</title>
    <g id="report" stroke="none" stroke-width="1" fill="none" fill-rule="evenodd" stroke-linecap="round" stroke-linejoin="round">
        <g id="Group" transform="translate(5.000000, 6.000000)" stroke="#FFFFFF" stroke-width="1.5">
            <path d="M6,15 L6,9 C6,8.44771525 5.55228475,8 5,8 L2,8 C1.44771525,8 1,8.44771525 1,9 L1,15" id="Path"></path>
            <path d="M20,15 L20,7 C20,6.44771525 19.5522847,6 19,6 L16,6 C15.4477153,6 15,6.44771525 15,7 L15,15" id="Path"></path>
            <path d="M13,15 L13,1 C13,0.44771525 12.5522847,0 12,0 L9,0 C8.44771525,0 8,0.44771525 8,1 L8,15" id="Path"></path>
            <line x1="0" y1="17" x2="21" y2="17" id="Path"></line>
        </g>
    </g>
</svg>