<?xml version="1.0" encoding="UTF-8"?>
<svg width="67px" height="46px" viewBox="0 0 67 46" version="1.1" xmlns="http://www.w3.org/2000/svg" xmlns:xlink="http://www.w3.org/1999/xlink">
    <title>tiotal teachers</title>
    <g id="tiotal-teachers" stroke="none" stroke-width="1" fill="none" fill-rule="evenodd">
        <g id="Group" transform="translate(12.000000, 1.000000)" fill="#FCFCFC" fill-rule="nonzero">
            <path d="M0,29.7999255 L0,32.5474393 C0,32.913097 0.145203837,33.2637809 0.403701075,33.5223301 C0.662198313,33.7808793 1.01279598,33.9261107 1.37835238,33.926069 L8.32295619,33.926069 L5.77258,40.9352734 C4.81092857,43.8022175 8.97442857,45.3178404 10.0795305,42.5032813 L10.8650562,40.3447345 L33.1351429,40.3447345 L33.9204381,42.5032813 C35.0259905,45.318291 39.1899619,43.8014316 38.2273886,40.9352734 L35.6770124,33.9261738 L30.7993819,33.926069 L32.1340486,37.5939722 L11.8657629,37.5939722 L13.2004295,33.926069 L42.6217629,33.926069 C42.9873027,33.9260912 43.3378772,33.78085 43.5963519,33.5223016 C43.8548267,33.2637533 44,32.9130805 44,32.5474393 L44,29.7999255 L0,29.7999255 Z" id="Path"></path>
            <path d="M21.0835533,21.0933173 C21.0835938,20.3315225 21.701003,19.7139938 22.4625867,19.7140169 L36.2045305,19.7140169 C36.9661124,19.7139938 37.5835186,20.3315242 37.5835533,21.0933173 L37.5835533,27.0491631 L41.25,27.0491631 L41.25,1.3762719 C41.25,0.6161923 40.6339785,0 39.8741095,0 L4.12589048,0 C3.36602153,0 2.75,0.6161923 2.75,1.3762719 L2.75,27.0491631 L21.0835533,27.0491631 L21.0835533,21.0933173 Z" id="Path"></path>
            <rect id="Rectangle" x="23.8333333" y="22.4645592" width="11" height="4.58460392"></rect>
        </g>
    </g>
</svg>