<?xml version="1.0" encoding="UTF-8"?>
<svg width="67px" height="46px" viewBox="0 0 67 46" version="1.1" xmlns="http://www.w3.org/2000/svg" xmlns:xlink="http://www.w3.org/1999/xlink">
    <title>total studenta</title>
    <g id="total-studenta" stroke="none" stroke-width="1" fill="none" fill-rule="evenodd">
        <g id="Group" transform="translate(2.000000, 1.000000)" fill="#FCFCFC" fill-rule="nonzero">
            <path d="M47.2760518,31.5603809 C45.6674332,30.1344426 38.2153796,28.3300371 36.4584978,27.6040108 C35.0432004,27.019279 35.1428816,26.2854311 35.1428816,26.2854311 L35.1501815,25.3275305 C36.5099746,24.3523467 37.6108733,22.8339362 38.2822113,20.9948379 C38.3012162,20.9955948 38.3203469,20.9971087 38.3394777,20.9971087 C39.4396213,20.9971087 40.3314663,19.5923645 40.3314663,17.8594893 C40.3314663,17.5721066 40.306546,17.2941855 40.260607,17.0298892 C40.6738059,15.9753534 40.9007317,14.82721 40.9007317,13.6258289 C40.9007317,13.2907593 40.8826079,12.9598528 40.8481222,12.6338664 L43.2122792,8.61567995 L38.8098171,5.35568954 L38.8098171,12.2041799 C38.9906781,12.2531283 39.1242157,12.4168785 39.1242157,12.6135553 L39.1242157,15.4398223 C39.1242157,15.6749766 38.9342928,15.8654717 38.6999412,15.8654717 L37.9763712,15.8654717 C37.7420196,15.8654717 37.5518449,15.6749766 37.5518449,15.4398223 L37.5518449,12.6135553 C37.5518449,12.4168785 37.6856342,12.2531283 37.8664952,12.2041799 L37.8664952,4.65716522 L31.5767601,0 L19.8367771,8.6155538 L22.3515887,12.7118306 C22.3236478,13.0119551 22.3084187,13.3167474 22.3084187,13.6257028 C22.3084187,14.82721 22.5353446,15.9753534 22.9484176,17.0298892 C22.9024786,17.2941855 22.8775583,17.5721066 22.8775583,17.8593632 C22.8775583,19.5922384 23.7694033,20.9969825 24.8695469,20.9969825 C24.8886776,20.9969825 24.9076825,20.9954687 24.9268133,20.9947117 C25.5661828,22.7458795 26.5949637,24.2057537 27.8660253,25.1833345 L27.8743321,26.2853049 C27.8743321,26.2853049 27.9738875,27.0191528 26.5585901,27.6038847 C24.8017083,28.3299109 17.3495288,30.1344426 15.7409102,31.5602548 C14.4015065,32.7471279 13.8517494,33.7571308 13.9865456,36.1026183 C14.1129092,38.3016389 14.4252941,39.6192094 14.4252941,39.6192094 C14.4252941,39.6192094 21.848274,44.0827256 30.0929948,43.998832 C30.562579,43.9940381 32.3358227,43.9888657 32.7470078,43.9963089 C41.0622103,44.1466866 48.5919196,39.6192094 48.5919196,39.6192094 C48.5919196,39.6192094 48.9039269,38.3016389 49.0304164,36.1026183 C49.1649609,33.7572569 48.6154555,32.7472541 47.2760518,31.5603809" id="Path"></path>
            <path d="M61.7368795,28.0806272 C60.591678,27.0657043 55.287302,25.7810604 54.0366297,25.2643265 C53.0292451,24.8482649 53.1002302,24.325854 53.1002302,24.325854 L53.1053904,23.6441084 C54.073255,22.9497472 54.8569861,21.8690971 55.3348771,20.5599791 C55.3483442,20.5606098 55.3620629,20.5616191 55.3756558,20.5616191 C56.1587577,20.5616191 56.7935963,19.5617087 56.7935963,18.3281579 C56.7935963,18.1235333 56.7757241,17.9257211 56.7431263,17.7376229 C57.0373874,16.9869962 57.1988659,16.1697594 57.1988659,15.3145496 C57.1988659,15.0759891 57.1859024,14.8404564 57.1613596,14.6083298 L58.8441098,11.7481269 L55.7104438,9.42761828 L55.7104438,14.3025283 C55.8390729,14.3373473 55.9340973,14.4539152 55.9340973,14.5938219 L55.9340973,16.6056275 C55.9340973,16.7730361 55.7991752,16.9085274 55.6322847,16.9085274 L55.1171391,16.9085274 C54.9503744,16.9085274 54.8149489,16.77291 54.8149489,16.6056275 L54.8149489,14.5938219 C54.8149489,14.4539152 54.910225,14.3373473 55.0389799,14.3025283 L55.0389799,8.93043852 L50.5620085,5.6154442 L42.205398,11.7480008 L43.9956328,14.6638383 C43.975621,14.87742 43.9647971,15.0944079 43.9647971,15.3144235 C43.9647971,16.1696332 44.1262756,16.9868701 44.4204108,17.7376229 C44.3876872,17.9257211 44.3699409,18.1236594 44.3699409,18.3280317 C44.3699409,19.5614564 45.0047795,20.5614929 45.7880072,20.5614929 C45.8014742,20.5614929 45.8150671,20.5604837 45.82866,20.5598529 C46.2837703,21.8065239 47.0161505,22.8454164 47.9208333,23.5414176 L47.9267487,24.325854 C47.9267487,24.325854 47.997608,24.848391 46.9902234,25.2643265 C46.0062487,25.6710526 42.513252,26.5530074 40.5105653,27.4050632 C43.6833738,28.3762101 47.8158659,29.6547985 49.0166976,30.739864 C50.5037353,32.0831703 51.1139053,33.2265197 50.9645093,35.8813411 C50.9434907,36.2540051 50.9178152,36.6039612 50.8892449,36.9301999 C51.1145346,36.930326 51.3030731,36.931083 51.3953286,36.9328492 C57.3141538,37.0399554 62.6739083,33.8173071 62.6739083,33.8173071 C62.6739083,33.8173071 62.8959256,32.879213 62.9860415,31.3141249 C63.0814435,29.6444537 62.6902701,28.9254922 61.7368795,28.0806272 Z" id="Path"></path>
            <path d="M12.0527044,35.8812149 C11.9031826,33.2263936 12.5136043,32.0831703 14.0007678,30.7397378 C15.2000892,29.6559339 19.3250297,28.3789855 22.4964538,27.408091 C20.4950257,26.555152 16.9948549,25.6714311 16.0094958,25.2643265 C15.0021112,24.8482649 15.0730963,24.325854 15.0730963,24.325854 L15.0782566,23.6441084 C16.0461211,22.9497472 16.8298523,21.8690971 17.3077432,20.5599791 C17.3212103,20.5606098 17.334929,20.5616191 17.3485219,20.5616191 C18.1316238,20.5616191 18.7664624,19.5617087 18.7664624,18.3281579 C18.7664624,18.1235333 18.7485902,17.9257211 18.7159925,17.7376229 C19.0102535,16.9869962 19.1717321,16.1697594 19.1717321,15.3145496 C19.1717321,15.0759891 19.1587685,14.8404564 19.1342257,14.6083298 L20.8169759,11.7481269 L17.6833099,9.42774444 L17.6833099,14.3026545 C17.811939,14.3374734 17.9069634,14.4540413 17.9069634,14.5939481 L17.9069634,16.6057536 C17.9069634,16.7731623 17.7720413,16.9086535 17.6051508,16.9086535 L17.0900052,16.9086535 C16.9232405,16.9086535 16.787815,16.7730361 16.787815,16.6057536 L16.787815,14.5939481 C16.787815,14.4540413 16.8830911,14.3374734 17.011846,14.3026545 L17.011846,8.93056468 L12.5348747,5.61557036 L4.17826416,11.7481269 L5.96849893,14.6639645 C5.94848716,14.8775462 5.93766319,15.094534 5.93766319,15.3145496 C5.93766319,16.1697594 6.09914176,16.9869962 6.39327693,17.737749 C6.36055329,17.9258472 6.34280701,18.1237856 6.34280701,18.3281579 C6.34280701,19.5615825 6.97764561,20.5616191 7.76087332,20.5616191 C7.77434035,20.5616191 7.78793325,20.5606098 7.80152615,20.5599791 C8.25663645,21.8066501 8.98901666,22.8455426 9.89369941,23.5415438 L9.89961484,24.3259801 C9.89961484,24.3259801 9.97047411,24.8485172 8.96308947,25.2644527 C7.71241716,25.7813127 2.40804116,27.0658304 1.26283965,28.0807534 C0.309574881,28.9256183 -0.0817243244,29.6445799 0.0140552495,31.3141249 C0.104045256,32.879213 0.326314281,33.8173071 0.326314281,33.8173071 C0.326314281,33.8173071 5.61004922,36.9944132 11.4787821,36.9346153 C11.6014958,36.9333538 11.8493144,36.9320922 12.1280946,36.9313353 C12.0993985,36.6044658 12.0737231,36.2542575 12.0527044,35.8812149 Z" id="Path"></path>
        </g>
    </g>
</svg>