<?xml version="1.0" encoding="UTF-8"?>
<svg width="32px" height="32px" viewBox="0 0 32 32" version="1.1" xmlns="http://www.w3.org/2000/svg" xmlns:xlink="http://www.w3.org/1999/xlink">
    <title>My Dashboard</title>
    <g id="My-Dashboard" stroke="none" stroke-width="1" fill="none" fill-rule="evenodd">
        <g id="Group" transform="translate(5.000000, 5.000000)" fill="#FFFFFF" fill-rule="nonzero" stroke="#FFFFFF" stroke-width="0.6">
            <path d="M11.005011,22.0489978 C8.06777827,22.0489978 5.30725068,20.9024499 3.23076848,18.8196071 C-0.163541685,15.4169742 -0.970102661,10.2567213 1.22496835,5.98079065 C1.42366351,5.59414572 1.89644803,5.44216513 2.28284336,5.64060611 C2.66923869,5.83904709 2.82081246,6.31388801 2.62211731,6.70132039 C0.740403479,10.3661788 1.43151707,14.7885778 4.34126237,17.7061327 C6.12087987,19.491314 8.48715856,20.4740694 11.005011,20.4740694 C13.5220782,20.4740694 15.8891422,19.491314 17.6687597,17.7061327 C19.4483772,15.9209513 20.4292873,13.5483217 20.4292873,11.0244989 C20.4292873,8.49988864 19.4491626,6.12725899 17.6687597,4.3428651 C15.8883568,2.55847121 13.5228635,1.57492841 11.005011,1.57492841 C8.48715856,1.57492841 6.12087987,2.55847121 4.34126237,4.3428651 C4.03418803,4.6507636 3.53784281,4.6507636 3.23076848,4.3428651 C2.92369415,4.03496659 2.92369415,3.53728921 3.23076848,3.22939071 C5.30725068,1.14733535 8.06777827,0 11.005011,0 C13.9422438,0 16.7035567,1.14733535 18.7792536,3.22939071 C20.8565211,5.31144607 22,8.07938276 22,11.0244989 C22,13.9688276 20.8565211,16.7375517 18.7792536,18.8196071 C16.7035567,20.9024499 13.9422438,22.0489978 11.005011,22.0489978 Z" id="Path"></path>
            <path d="M11.005011,14.1743557 C10.1662504,14.1743557 9.37696731,13.8467706 8.78323791,13.2514477 C7.55808199,12.0230035 7.55808199,10.0252068 8.78323791,8.79755011 C9.77043085,7.8077076 14.4943493,5.93196787 15.4312794,5.56579701 C15.7226467,5.45240216 16.051711,5.52169901 16.2716107,5.74297646 C16.4915105,5.9642539 16.5614072,6.2942014 16.4483159,6.58556316 C16.0831252,7.52500795 14.2124064,12.2623926 13.2252134,13.2514477 C12.6330548,13.8467706 11.8437716,14.1743557 11.005011,14.1743557 Z M14.2940834,7.72738626 C12.3676043,8.53689946 10.3170389,9.48736876 9.89451715,9.9110245 C9.28193919,10.5252466 9.28193919,11.5237512 9.89451715,12.1379733 C10.4882466,12.7332962 11.5225609,12.7332962 12.1162903,12.1379733 C12.5380266,11.7135301 13.4867371,9.65903595 14.2940834,7.72738626 Z" id="Shape"></path>
        </g>
    </g>
</svg>