<?xml version="1.0" encoding="UTF-8"?>
<svg width="34px" height="34px" viewBox="0 0 34 34" version="1.1" xmlns="http://www.w3.org/2000/svg" xmlns:xlink="http://www.w3.org/1999/xlink">
    <title>add period class</title>
    <g id="add-period-class" stroke="none" stroke-width="1" fill="none" fill-rule="evenodd">
        <g id="Group">
            <polygon id="Path" points="0 0 34 0 34 34 0 34"></polygon>
            <path d="M17,2.83333333 C9.17291667,2.83333333 2.83333333,9.17291667 2.83333333,17 C2.83333333,24.8270833 9.17291667,31.1666667 17,31.1666667 C24.8270833,31.1666667 31.1666667,24.8270833 31.1666667,17 C31.1666667,9.17291667 24.8270833,2.83333333 17,2.83333333 Z" id="Shape" fill="#FFFFFF" fill-rule="nonzero"></path>
            <polygon id="Path" fill="#404040" points="22 18 18 18 18 22 16 22 16 18 12 18 12 16 16 16 16 12 18 12 18 16 22 16"></polygon>
        </g>
    </g>
</svg>