<?xml version="1.0" encoding="UTF-8"?>
<svg width="28px" height="28px" viewBox="0 0 28 28" version="1.1" xmlns="http://www.w3.org/2000/svg" xmlns:xlink="http://www.w3.org/1999/xlink">
    <title>add year</title>
    <g id="add-year" stroke="none" stroke-width="1" fill="none" fill-rule="evenodd">
        <g id="6848389_calendar_date_event_reminder_icon" transform="translate(4.500000, 5.000000)" fill="#FFFFFF" fill-rule="nonzero" stroke="#FFFFFF" stroke-width="0.5">
            <path d="M16.625,0.580645161 L16.03125,0.580645161 C16.03125,0.259963694 15.7654191,0 15.4375,0 C15.1095809,0 14.84375,0.259963694 14.84375,0.580645161 L10.09375,0.580645161 C10.09375,0.259963694 9.82791907,0 9.5,0 C9.17208093,0 8.90625,0.259963694 8.90625,0.580645161 L4.15625,0.580645161 C4.15625,0.259963694 3.89041907,0 3.5625,0 C3.23458093,0 2.96875,0.259963694 2.96875,0.580645161 L2.375,0.580645161 C1.06394766,0.582117057 0.00150511535,1.62111011 0,2.90322581 L0,15.6774194 C0.00150511535,16.9595351 1.06394766,17.9985281 2.375,18 L16.625,18 C17.9360523,17.9985281 18.9984949,16.9595351 19,15.6774194 L19,2.90322581 C18.9984949,1.62111011 17.9360523,0.582117057 16.625,0.580645161 Z M1.1875,2.90322581 C1.1875,2.26186287 1.71916186,1.74193548 2.375,1.74193548 L2.96875,1.74193548 L2.96875,2.90322581 C2.96875,3.22390727 3.23458093,3.48387097 3.5625,3.48387097 C3.89041907,3.48387097 4.15625,3.22390727 4.15625,2.90322581 L4.15625,1.74193548 L8.90625,1.74193548 L8.90625,2.90322581 C8.90625,3.22390727 9.17208093,3.48387097 9.5,3.48387097 C9.82791907,3.48387097 10.09375,3.22390727 10.09375,2.90322581 L10.09375,1.74193548 L14.84375,1.74193548 L14.84375,2.90322581 C14.84375,3.22390727 15.1095809,3.48387097 15.4375,3.48387097 C15.7654191,3.48387097 16.03125,3.22390727 16.03125,2.90322581 L16.03125,1.74193548 L16.625,1.74193548 C17.2808381,1.74193548 17.8125,2.26186287 17.8125,2.90322581 L17.8125,4.64516129 L1.1875,4.64516129 L1.1875,2.90322581 Z M17.8125,15.6774194 C17.8125,16.3187823 17.2808381,16.8387097 16.625,16.8387097 L2.375,16.8387097 C1.71916186,16.8387097 1.1875,16.3187823 1.1875,15.6774194 L1.1875,5.80645161 L17.8125,5.80645161 L17.8125,15.6774194 Z" id="Shape"></path>
        </g>
    </g>
</svg>