<?xml version="1.0" encoding="UTF-8"?>
<svg width="18px" height="18px" viewBox="0 0 18 18" version="1.1" xmlns="http://www.w3.org/2000/svg" xmlns:xlink="http://www.w3.org/1999/xlink">
    <title>csv 2</title>
    <g id="csv" stroke="none" stroke-width="1" fill="none" fill-rule="evenodd">
        <g id="8172157_csv_file_extention_format_icon" transform="translate(3.000000, 1.000000)">
            <path d="M12.35,8.61538462 L0.65,8.61538462 C0.328453992,8.58635899 0.0406727173,8.80432351 0,9.10769231 L0,13.0461538 C0.0406727173,13.3495226 0.328453992,13.5674872 0.65,13.5384615 L12.35,13.5384615 C12.671546,13.5674872 12.9593273,13.3495226 13,13.0461538 L13,9.10769231 C12.9593273,8.80432351 12.671546,8.58635899 12.35,8.61538462 Z M5.5705,11.6430769 C5.5705,11.6430769 5.5705,11.68 5.5705,11.6923077 C5.5705,11.7046154 5.5705,11.6923077 5.5705,11.7292308 L5.5705,11.76 C5.54998796,11.7803478 5.52576671,11.7970251 5.499,11.8092308 L5.382,11.8646154 L5.213,11.9076923 C5.14601853,11.9143704 5.07848147,11.9143704 5.0115,11.9076923 C4.88239834,11.9083563 4.75437998,11.88537 4.6345,11.84 C4.52215692,11.7967778 4.42200574,11.7293518 4.342,11.6430769 C4.25977157,11.546434 4.19797889,11.4356982 4.16,11.3169231 C4.11859847,11.1683747 4.09891502,11.0151517 4.1015,10.8615385 C4.09769376,10.7013847 4.1196105,10.5416129 4.1665,10.3876923 C4.2061848,10.2615058 4.27252563,10.1442645 4.3615,10.0430769 C4.44351791,9.94902898 4.54832553,9.87513716 4.667,9.82769231 C4.78772654,9.77722326 4.91854179,9.75203368 5.0505,9.75384615 C5.10445341,9.74741066 5.15904659,9.74741066 5.213,9.75384615 C5.26455157,9.75875366 5.31498569,9.77120973 5.3625,9.79076923 C5.40652797,9.80286481 5.44822351,9.82156353 5.486,9.84615385 L5.5575,9.89538462 L5.5575,9.93230769 C5.5575,9.93230769 5.5575,9.93230769 5.5575,9.96923077 C5.5575,10.0061538 5.5575,9.96923077 5.5575,10.0246154 L5.5575,10.1784615 C5.55887279,10.1969002 5.55887279,10.2154075 5.5575,10.2338462 L5.5575,10.2338462 C5.53560533,10.2283443 5.51550115,10.2177701 5.499,10.2030769 L5.4015,10.1415385 C5.35868324,10.1160687 5.31287345,10.0954162 5.265,10.08 C5.2045686,10.0593222 5.14075623,10.048906 5.0765,10.0492308 C4.99973937,10.0487104 4.92396197,10.0655909 4.8555,10.0984615 C4.79083811,10.1361698 4.7354343,10.1865249 4.693,10.2461538 C4.64444361,10.3156621 4.60923615,10.3927435 4.589,10.4738462 C4.56718058,10.5730243 4.55628894,10.6740782 4.5565,10.7753846 C4.55463635,10.8832082 4.56774863,10.9907961 4.5955,11.0953846 C4.6143075,11.1750291 4.64966007,11.2503363 4.6995,11.3169231 C4.74484935,11.3714862 4.80261682,11.4156597 4.8685,11.4461538 C4.93639673,11.4734746 5.00923482,11.4881023 5.083,11.4892308 C5.14942529,11.4901568 5.2154825,11.4797336 5.278,11.4584615 L5.4145,11.4030769 L5.512,11.3415385 L5.5705,11.3415385 L5.5705,11.3415385 C5.57187279,11.3599771 5.57187279,11.3784844 5.5705,11.3969231 L5.5705,11.6430769 Z M7.0265,11.5569231 C6.98973794,11.6356509 6.93409933,11.7051827 6.864,11.76 C6.79329078,11.8172288 6.7116515,11.861097 6.6235,11.8892308 C6.52860956,11.9164776 6.43014879,11.9309781 6.331,11.9323077 C6.26400209,11.9386826 6.19649791,11.9386826 6.1295,11.9323077 L5.967,11.8892308 L5.85,11.8153846 C5.82591334,11.8020633 5.80401478,11.7854774 5.785,11.7661538 C5.78031493,11.7479587 5.78031493,11.7289643 5.785,11.7107692 C5.7807377,11.6718993 5.7807377,11.6327161 5.785,11.5938462 C5.78150759,11.5652234 5.78150759,11.5363151 5.785,11.5076923 C5.785,11.5076923 5.785,11.4707692 5.785,11.4584615 C5.78250524,11.4483411 5.78250524,11.4378127 5.785,11.4276923 L5.785,11.4276923 C5.80689467,11.4331942 5.82699885,11.4437684 5.8435,11.4584615 L5.9475,11.5138462 L6.097,11.5753846 C6.16588383,11.5859553 6.23611617,11.5859553 6.305,11.5753846 C6.3502084,11.5822817 6.3962916,11.5822817 6.4415,11.5753846 C6.47800167,11.5627069 6.51288637,11.5461935 6.5455,11.5261538 C6.57077532,11.5000366 6.5926022,11.4711063 6.6105,11.44 C6.61669676,11.40331 6.61669676,11.3659208 6.6105,11.3292308 C6.61145746,11.2853478 6.59781385,11.2422911 6.5715,11.2061538 C6.54234197,11.1723754 6.50967844,11.1414514 6.474,11.1138462 L6.331,11.04 C6.27652124,11.0203881 6.22425928,10.9956488 6.175,10.9661538 C6.11747313,10.9435275 6.06293652,10.9146134 6.0125,10.88 C5.95966423,10.8494666 5.9133605,10.8098037 5.876,10.7630769 C5.82993081,10.7182647 5.79641617,10.6632663 5.7785,10.6030769 C5.75045733,10.5301852 5.73722492,10.4529309 5.7395,10.3753846 C5.73539642,10.2865766 5.7532002,10.1980844 5.7915,10.1169231 C5.82436722,10.0428565 5.87565684,9.9774085 5.941,9.92615385 C6.00446123,9.87672562 6.07724691,9.83913861 6.1555,9.81538462 C6.24403353,9.79020333 6.33606045,9.77775675 6.4285,9.77846154 C6.47595027,9.77238027 6.52404973,9.77238027 6.5715,9.77846154 C6.61837471,9.78216532 6.6643918,9.79253829 6.708,9.80923077 L6.8185,9.85230769 C6.84341417,9.85855864 6.86594989,9.87136 6.8835,9.88923077 L6.8835,9.92 C6.8835,9.92 6.8835,9.92 6.8835,9.92 C6.88719048,9.93622428 6.88719048,9.95300649 6.8835,9.96923077 L6.8835,10.1169231 C6.8835,10.1169231 6.8835,10.16 6.8835,10.1723077 L6.8835,10.2030769 L6.8835,10.2030769 L6.825,10.2030769 L6.734,10.1538462 C6.64537988,10.1100581 6.54783098,10.0848707 6.448,10.08 C6.40715689,10.0730895 6.36534311,10.0730895 6.3245,10.08 C6.2928506,10.0903246 6.26399785,10.1071346 6.24,10.1292308 C6.21906544,10.1491067 6.20152256,10.1719436 6.188,10.1969231 C6.18482687,10.227619 6.18482687,10.2585349 6.188,10.2892308 C6.18705568,10.3312063 6.20076406,10.3723044 6.227,10.4061538 C6.25084759,10.444149 6.28436758,10.4758839 6.3245,10.4984615 L6.4675,10.5723077 L6.63,10.6461538 L6.7925,10.7323077 C6.84239451,10.7664212 6.88817027,10.8056318 6.929,10.8492308 C6.97335675,10.8963438 7.00856537,10.9505109 7.033,11.0092308 C7.10143616,11.173323 7.10143616,11.3559078 7.033,11.52 L7.0265,11.5569231 Z M9.009,9.96923077 L8.398,11.8153846 L8.398,11.8646154 L8.3525,11.8646154 L8.2745,11.8646154 L7.9105,11.8646154 L7.878,11.8646154 C7.878,11.8646154 7.878,11.8646154 7.878,11.8646154 C7.87452763,11.8546224 7.87452763,11.8438391 7.878,11.8338462 L7.267,9.98769231 C7.26262763,9.9570623 7.26262763,9.92601462 7.267,9.89538462 C7.26047357,9.87955598 7.26047357,9.86198248 7.267,9.84615385 C7.29024945,9.83909035 7.31525055,9.83909035 7.3385,9.84615385 L7.5855,9.84615385 L7.6505,9.84615385 L7.6505,9.88923077 L8.151,11.4953846 L8.645,9.89538462 C8.64114716,9.8812573 8.64114716,9.86643501 8.645,9.85230769 C8.65565856,9.84970222 8.66684144,9.84970222 8.6775,9.85230769 L8.7425,9.85230769 L8.9765,9.85230769 C8.9765,9.85230769 9.022,9.85230769 9.0285,9.85230769 C9.03502643,9.86813632 9.03502643,9.88570983 9.0285,9.90153846 C9.0285,9.90153846 9.022,9.93230769 9.009,9.96923077 L9.009,9.96923077 Z M11.05,14.1538462 L12.35,14.1538462 L12.35,14.7692308 C12.35,15.4489658 11.7679702,16 11.05,16 L1.95,16 C1.23202983,16 0.65,15.4489658 0.65,14.7692308 L0.65,14.1538462 L1.95,14.1538462 L1.95,14.7692308 L11.05,14.7692308 L11.05,14.1538462 Z M1.95,8 L0.65,8 L0.65,1.23076923 C0.65,0.551034154 1.23202983,0 1.95,0 L9.3665,0 L12.35,2.82461538 L12.35,8 L11.05,8 L11.05,3.69230769 L8.45,3.69230769 C8.09101491,3.69230769 7.8,3.41679062 7.8,3.07692308 L7.8,1.23076923 L1.95,1.23076923 L1.95,8 Z M12.35,8.61538462 L0.65,8.61538462 C0.328453992,8.58635899 0.0406727173,8.80432351 0,9.10769231 L0,13.0461538 C0.0406727173,13.3495226 0.328453992,13.5674872 0.65,13.5384615 L12.35,13.5384615 C12.671546,13.5674872 12.9593273,13.3495226 13,13.0461538 L13,9.10769231 C12.9593273,8.80432351 12.671546,8.58635899 12.35,8.61538462 Z" id="Shape" fill="#7A60E0" fill-rule="nonzero"></path>
            <text id="PDF" font-family="HelveticaNeue-Bold, Helvetica Neue" font-size="3" font-weight="bold" fill="#FFFFFF">
                <tspan x="3.997" y="12">PDF</tspan>
            </text>
        </g>
    </g>
</svg>