<?xml version="1.0" encoding="UTF-8"?>
<svg width="24px" height="24px" viewBox="0 0 24 24" version="1.1" xmlns="http://www.w3.org/2000/svg" xmlns:xlink="http://www.w3.org/1999/xlink">
    <title>edit period</title>
    <g id="edit-period" stroke="none" stroke-width="1" fill="none" fill-rule="evenodd">
        <g id="Group-3-Copy-4" transform="translate(2.000000, 2.000000)">
            <circle id="Oval" stroke="#FFFFFF" stroke-width="1.33333333" fill="#7A60E0" cx="10" cy="10" r="9.33333333"></circle>
            <g id="Group-2" transform="translate(5.333333, 5.333333)" fill="#FFFFFF" fill-rule="nonzero">
                <g id="7548797_user_interface_edit_pencil_ui_icon">
                    <path d="M3.95190796,3.87840344 L3.89369204,4.96450839 C3.88692989,5.09255269 3.93485505,5.21751097 4.02570753,5.30821591 C4.11068,5.39304086 4.22534753,5.4402314 4.34471785,5.4402314 C4.35294925,5.4402314 4.36118366,5.43993634 4.36971011,5.43949677 L5.45405075,5.37951656 C5.56489462,5.37348903 5.66956645,5.32659355 5.74836387,5.24809118 L9.20102581,1.79910237 C9.28570323,1.71442495 9.33333333,1.59960989 9.33333333,1.47979699 C9.33333333,1.35998409 9.28570323,1.24502151 9.20102581,1.16034409 L8.17313677,0.132307527 C8.08845634,0.0476301075 7.97349677,0 7.8538314,0 C7.73416602,0 7.61920344,0.0476301075 7.53452602,0.132307527 L4.08362839,3.58320817 C4.00483097,3.66200559 3.95778796,3.76711699 3.95190796,3.87840344 Z M4.84454796,4.09950409 L7.8538314,1.09036817 L8.24281763,1.47950194 L5.23176989,4.4871686 L4.82249419,4.50980946 L4.84454796,4.09950409 Z" id="Shape"></path>
                    <path d="M1.52478065,9.33333333 L6.53309849,9.33333333 C7.37399269,9.33333333 8.05787914,8.64929935 8.05787914,7.80855269 L8.05787914,4.72120645 C8.05787914,4.47173247 7.85559269,4.26959355 7.60626624,4.26959355 C7.35693978,4.26959355 7.15465333,4.47173247 7.15465333,4.72120645 L7.15465333,7.80854968 C7.15465333,8.15122753 6.87592387,8.43010452 6.53309849,8.43010452 L1.52478065,8.43010452 C1.18195527,8.43010753 0.903225806,8.15123054 0.903225806,7.80855269 L0.903225806,2.80023484 C0.903225806,2.45755699 1.18195527,2.17868 1.52478065,2.17868 L4.6122714,2.17868 C4.86160086,2.17868 5.0638843,1.97654108 5.0638843,1.7270671 C5.0638843,1.47759312 4.86159785,1.27545419 4.6122714,1.27545419 L1.52478065,1.27545419 C0.683886452,1.27545419 0,1.95948817 0,2.80023484 L0,7.80855269 C0,8.64929935 0.683886452,9.33333333 1.52478065,9.33333333 Z" id="Path"></path>
                </g>
            </g>
        </g>
    </g>
</svg>