<?xml version="1.0" encoding="UTF-8"?>
<svg width="18px" height="18px" viewBox="0 0 18 18" version="1.1" xmlns="http://www.w3.org/2000/svg" xmlns:xlink="http://www.w3.org/1999/xlink">
    <title>pdf</title>
    <g id="pdf" stroke="none" stroke-width="1" fill="none" fill-rule="evenodd">
        <g id="8172178_pdf_file_extention_format_icon" transform="translate(3.000000, 1.000000)" fill="#7A60E0" fill-rule="nonzero">
            <path d="M10.2,14.1538462 L11.4,14.1538462 L11.4,14.7692308 C11.4,15.4489658 10.8627417,16 10.2,16 L1.8,16 C1.1372583,16 0.6,15.4489658 0.6,14.7692308 L0.6,14.1538462 L1.8,14.1538462 L1.8,14.7692308 L10.2,14.7692308 L10.2,14.1538462 Z M1.8,1.23076923 L7.2,1.23076923 L7.2,3.07692308 C7.2,3.41679062 7.46862915,3.69230769 7.8,3.69230769 L10.2,3.69230769 L10.2,8 L11.4,8 L11.4,2.82461538 L8.646,0 L1.8,0 C1.1372583,0 0.6,0.551034154 0.6,1.23076923 L0.6,8 L1.8,8 L1.8,1.23076923 Z M11.4,8.61538462 L0.6,8.61538462 C0.3031883,8.58635899 0.0375440468,8.80432351 0,9.10769231 L0,13.0461538 C0.0375440468,13.3495226 0.3031883,13.5674872 0.6,13.5384615 L11.4,13.5384615 C11.6968117,13.5674872 11.962456,13.3495226 12,13.0461538 L12,9.10769231 C11.962456,8.80432351 11.6968117,8.58635899 11.4,8.61538462 Z M5.07,10.4615385 C5.07413664,10.5663576 5.05781738,10.6709682 5.022,10.7692308 C4.99111927,10.8551736 4.941923,10.9329626 4.878,10.9969231 C4.81051896,11.060381 4.73079936,11.1086007 4.644,11.1384615 C4.53917581,11.1721538 4.42984595,11.1887661 4.32,11.1876923 L4.158,11.1876923 L4.158,11.8523077 C4.16083353,11.8623582 4.16083353,11.8730264 4.158,11.8830769 L4.122,11.8830769 L4.068,11.8830769 L3.882,11.8830769 L3.822,11.8830769 L3.786,11.8830769 C3.78316647,11.8730264 3.78316647,11.8623582 3.786,11.8523077 L3.786,9.95692308 C3.7826563,9.9164958 3.79567508,9.87643801 3.822,9.84615385 C3.84745028,9.82044562 3.88234369,9.80702507 3.918,9.80923077 L4.518,9.80923077 L4.662,9.80923077 C4.72307955,9.8223761 4.78178552,9.84521484 4.836,9.87692308 C4.8905586,9.90912814 4.93927638,9.95076727 4.98,10 C5.0214494,10.0536006 5.05389432,10.1139149 5.076,10.1784615 C5.09294946,10.272244 5.09090713,10.3686001 5.07,10.4615385 L5.07,10.4615385 Z M4.668,10.4923077 C4.67004279,10.4287452 4.65772159,10.3655596 4.632,10.3076923 C4.61247322,10.2664895 4.58368293,10.2306335 4.548,10.2030769 C4.51421731,10.1834437 4.47783946,10.168934 4.44,10.16 L4.158,10.16 L4.158,10.8676923 L4.332,10.8676923 C4.38547785,10.8681808 4.43851319,10.8577202 4.488,10.8369231 C4.52650377,10.8196076 4.56119831,10.7944894 4.59,10.7630769 C4.61473827,10.7268604 4.63489907,10.6875727 4.65,10.6461538 C4.66506239,10.585902 4.67113135,10.5236563 4.668,10.4615385 L4.668,10.4923077 Z M6.948,10.8369231 C6.9518053,11.0040528 6.92744754,11.1706015 6.876,11.3292308 C6.83898295,11.4542227 6.77312094,11.5682146 6.684,11.6615385 C6.59529556,11.748363 6.48865375,11.813568 6.372,11.8523077 C6.23169222,11.8942975 6.08615413,11.9150294 5.94,11.9138462 L5.484,11.9138462 C5.45378179,11.9148223 5.42488076,11.9011413 5.406,11.8769231 C5.38024552,11.851277 5.36703751,11.8151526 5.37,11.7784615 L5.37,9.93230769 C5.36883578,9.90070305 5.37957866,9.86985169 5.4,9.84615385 C5.42464934,9.833998 5.45335066,9.833998 5.478,9.84615385 L6,9.84615385 C6.1463308,9.84195614 6.2923232,9.86275278 6.432,9.90769231 C6.5454697,9.94872393 6.64814644,10.016122 6.732,10.1046154 C6.81253484,10.1953236 6.87382856,10.3021947 6.912,10.4184615 C6.94332673,10.549217 6.95546026,10.684034 6.948,10.8184615 L6.948,10.8369231 Z M6.546,10.8369231 C6.54580316,10.745806 6.53574151,10.654993 6.516,10.5661538 C6.49682086,10.4860423 6.46213355,10.4107034 6.414,10.3446154 C6.3651992,10.2825311 6.30376812,10.2321261 6.234,10.1969231 C6.14398974,10.1619587 6.04821991,10.1452395 5.952,10.1476923 L5.754,10.1476923 L5.754,11.5630769 L5.958,11.5630769 C6.04788716,11.5663485 6.13754048,11.5517198 6.222,11.52 C6.29111174,11.4892375 6.35262004,11.4429748 6.402,11.3846154 C6.45215461,11.3166815 6.48884574,11.239327 6.51,11.1569231 C6.53614429,11.0503413 6.54825193,10.9406481 6.546,10.8307692 L6.546,10.8369231 Z M8.346,9.98769231 C8.346,10.0184615 8.346,10.0492308 8.346,10.0676923 C8.3501026,10.0859141 8.3501026,10.1048551 8.346,10.1230769 L8.346,10.1230769 L7.746,10.1230769 L7.746,10.6830769 L8.346,10.6830769 L8.346,10.6830769 C8.346,10.6830769 8.346,10.7138462 8.346,10.7323077 L8.346,10.8923077 C8.34726719,10.9107464 8.34726719,10.9292536 8.346,10.9476923 L8.346,10.9784615 L7.746,10.9784615 L7.746,11.76 C7.746,11.76 7.746,11.76 7.746,11.7907692 L7.716,11.7907692 L7.656,11.7907692 L7.47,11.7907692 L7.41,11.7907692 L7.38,11.7907692 C7.38,11.7907692 7.38,11.7907692 7.38,11.76 L7.38,9.93846154 C7.37703751,9.9017705 7.39024552,9.86564605 7.416,9.84 C7.44064934,9.82784415 7.46935066,9.82784415 7.494,9.84 L8.412,9.84 L8.412,9.87076923 C8.4161026,9.88899101 8.4161026,9.90793207 8.412,9.92615385 C8.412,9.92615385 8.328,9.95076923 8.328,9.98153846 L8.346,9.98769231 Z" id="Shape"></path>
        </g>
    </g>
</svg>