<?xml version="1.0" encoding="UTF-8"?>
<svg width="22px" height="20px" viewBox="0 0 22 20" version="1.1" xmlns="http://www.w3.org/2000/svg" xmlns:xlink="http://www.w3.org/1999/xlink">
    <title>time</title>
    <g id="time" stroke="none" stroke-width="1" fill="none" fill-rule="evenodd">
        <g id="Group" transform="translate(2.000000, 1.000000)" fill="#242D39" fill-rule="nonzero" stroke="#242D39" stroke-width="0.5">
            <path d="M17.9999998,8.9974189 C18.000731,12.638347 15.8079521,15.9210905 12.4444189,17.3145123 C9.08088569,18.7079341 5.20920265,17.9375349 2.63520016,15.3626442 C0.941974959,13.6780411 -0.00691191511,11.3859748 3.79089433e-05,8.9974189 L1.21304405,8.9974189 C1.21304405,13.2913107 4.70640756,16.7848869 9.00003791,16.7848869 C13.2936683,16.7848869 16.7870318,13.2913107 16.7870318,8.9974189 C16.7870318,4.70352711 13.2936683,1.20995091 9.00003791,1.20995091 C6.86118877,1.20991672 4.81676954,2.09096812 3.34789983,3.64576451 L5.71626813,3.64576451 L5.71626813,4.85880617 L1.45952948,4.85880617 L1.45952948,0.605051793 L2.6729027,0.605051793 L2.6729027,2.60381362 C5.25302724,0.0492587507 9.11562518,-0.704084605 12.4665048,0.693714458 C15.8173845,2.09151352 17.9997955,5.36649562 17.9999998,8.9974189 Z M8.75679573,4.25390706 L8.75679573,9.97044697 L13.743261,9.97044697 L13.743261,8.75416188 L9.97300677,8.75416188 L9.97300677,4.25390706 L8.75679573,4.25390706 Z" id="Shape"></path>
        </g>
    </g>
</svg>