<?xml version="1.0" encoding="UTF-8"?>
<svg width="28px" height="28px" viewBox="0 0 28 28" version="1.1" xmlns="http://www.w3.org/2000/svg" xmlns:xlink="http://www.w3.org/1999/xlink">
    <title>update now</title>
    <g id="update-now" stroke="none" stroke-width="1" fill="none" fill-rule="evenodd">
        <g id="7769234_file_terms_files-and-folders_accept_document_icon" transform="translate(2.000000, 2.000000)" fill="#FFFFFF" fill-rule="nonzero" stroke="#FFFFFF" stroke-width="0.8">
            <path d="M12.8241538,11.1574872 L5.40661538,11.1574872 C5.15169231,11.1574872 4.94507692,11.3641026 4.94507692,11.6190256 C4.94507692,11.8739487 5.15169231,12.0805641 5.40661538,12.0805641 L12.8242051,12.0805641 C13.0791282,12.0805641 13.2857436,11.8739487 13.2857436,11.6190256 C13.2857436,11.3641026 13.0790769,11.1574872 12.8241538,11.1574872 Z" id="Path"></path>
            <path d="M11.1758462,16.1025641 L5.40661538,16.1025641 C5.15169231,16.1025641 4.94507692,16.3091795 4.94507692,16.5641026 C4.94507692,16.8190256 5.15169231,17.025641 5.40661538,17.025641 L11.1758462,17.025641 C11.4307692,17.025641 11.6373846,16.8190256 11.6373846,16.5641026 C11.6373846,16.3091795 11.4307179,16.1025641 11.1758462,16.1025641 Z" id="Path"></path>
            <path d="M19.0549231,13.2067179 C19.0549231,13.2067179 19.0549231,8.56333333 19.0549231,8.56323077 C19.0549231,8.00984615 18.8280513,7.46097436 18.4334359,7.06646154 C18.4334359,7.06646154 11.988359,0.621333333 11.988359,0.621333333 C11.5932308,0.226307692 11.0505641,0 10.4917436,0 L2.1025641,0 C0.943230769,0 0,0.943230769 0,2.1025641 L0,21.0732821 C0,22.2326154 0.943230769,23.1758462 2.1025641,23.1758462 L15.7274872,23.1758462 C16.5588718,23.6976923 17.5414359,24 18.5933846,24 C21.5746154,24 24,21.5746154 24,18.5933846 C24,15.767641 21.8209231,13.4416923 19.0549231,13.2067179 Z M11.6373846,1.57584615 L17.4791282,7.41758974 L12.8168718,7.41758974 C12.1665128,7.41758974 11.6373846,6.88851282 11.6373846,6.23810256 L11.6373846,1.57584615 L11.6373846,1.57584615 Z M0.923076923,21.0732821 L0.923076923,2.1025641 C0.923076923,1.45215385 1.45220513,0.923076923 2.1025641,0.923076923 L10.4917436,0.923076923 C10.5675897,0.923076923 10.6417949,0.930307692 10.7142564,0.943948718 L10.7142564,6.23805128 C10.7142564,7.39738462 11.6574872,8.34061538 12.8168205,8.34061538 L18.1110256,8.34061538 C18.1246154,8.41297436 18.1318462,8.48723077 18.1318462,8.56317949 L18.1318462,13.2066667 C15.3658974,13.441641 13.1868205,15.767641 13.1868205,18.5933846 C13.1868205,20.0035897 13.7297436,21.2891795 14.6171795,22.2527179 L2.1025641,22.2527179 C1.45220513,22.2527179 0.923076923,21.723641 0.923076923,21.0732821 Z M18.5933846,23.0769231 C16.1526154,23.0769231 14.1098974,21.0317949 14.1098974,18.5933846 C14.1098974,16.1211795 16.1211795,14.1098462 18.5933846,14.1098462 C21.0655897,14.1098462 23.0769231,16.1211795 23.0769231,18.5933846 C23.0769231,21.0655897 21.065641,23.0769231 18.5933846,23.0769231 Z" id="Shape"></path>
            <path d="M20.9450769,16.6479487 C20.7446667,16.4906667 20.4545128,16.5254359 20.2970256,16.7259487 L18.1334872,19.4814359 L16.8531282,18.2010769 C16.6728718,18.0208718 16.3806667,18.0208718 16.2004103,18.2010769 C16.0201538,18.3813333 16.0201538,18.6735897 16.2004103,18.8538462 C16.2004103,18.8538462 17.8481538,20.5015897 17.8487692,20.5022051 C18.0417436,20.6951795 18.3699487,20.6751795 18.5381026,20.4608205 L21.0230256,17.2959487 C21.1804615,17.0954872 21.1455385,16.8053846 20.9450769,16.6479487 Z" id="Path"></path>
        </g>
    </g>
</svg>