<?xml version="1.0" encoding="UTF-8"?>
<svg width="80px" height="80px" viewBox="0 0 80 80" version="1.1" xmlns="http://www.w3.org/2000/svg" xmlns:xlink="http://www.w3.org/1999/xlink">
    <title>collapse left</title>
    <defs>
        <circle id="path-1" cx="24" cy="24" r="24"></circle>
        <filter x="-80.2%" y="-57.3%" width="260.4%" height="260.4%" filterUnits="objectBoundingBox" id="filter-2">
            <feOffset dx="0" dy="11" in="SourceAlpha" result="shadowOffsetOuter1"></feOffset>
            <feGaussianBlur stdDeviation="11" in="shadowOffsetOuter1" result="shadowBlurOuter1"></feGaussianBlur>
            <feComposite in="shadowBlurOuter1" in2="SourceAlpha" operator="out" result="shadowBlurOuter1"></feComposite>
            <feColorMatrix values="0 0 0 0 0   0 0 0 0 0   0 0 0 0 0  0 0 0 0.116118745 0" type="matrix" in="shadowBlurOuter1"></feColorMatrix>
        </filter>
    </defs>
    <g id="collapse-left" stroke="none" stroke-width="1" fill="none" fill-rule="evenodd">
        <g id="Group-16" transform="translate(16.000000, 16.000000)">
            <g id="Oval">
                <use fill="black" fill-opacity="1" filter="url(#filter-2)" xlink:href="#path-1"></use>
                <circle stroke="#EEEDED" stroke-width="1" stroke-linejoin="square" fill="#FFFFFF" fill-rule="evenodd" cx="24" cy="24" r="23.5"></circle>
            </g>
            <g id="Group" transform="translate(14.000000, 18.000000)" fill="#7B61E1" fill-rule="nonzero">
                <path d="M3.9276936,5.42561985 L18.8888889,5.42561985 C19.5025386,5.42561985 20,5.90663629 20,6.5 C20,7.09336374 19.5025386,7.57438018 18.8888889,7.57438018 L3.9276936,7.57438018 L7.54718014,11.0742143 C8.00279178,11.5147644 8.00279178,12.2290373 7.54718014,12.6695874 C7.09156846,13.1101375 6.35287599,13.1101375 5.89726431,12.6695874 L0.341708758,7.29768657 C-0.113902919,6.85713645 -0.113902919,6.14286358 0.341708758,5.70231346 L5.89726431,0.330412602 C6.35287599,-0.110137534 7.09156846,-0.110137534 7.54718014,0.330412602 C8.00279178,0.770962737 8.00279178,1.48523562 7.54718014,1.92578576 L3.9276936,5.42561985 Z" id="Path"></path>
            </g>
        </g>
    </g>
</svg>