<?xml version="1.0" encoding="UTF-8"?>
<svg width="422px" height="356px" viewBox="0 0 422 356" version="1.1" xmlns="http://www.w3.org/2000/svg" xmlns:xlink="http://www.w3.org/1999/xlink">
    <title>414342-PDTRPC-987 Copy</title>
    <g id="Page-1" stroke="none" stroke-width="1" fill="none" fill-rule="evenodd">
        <g id="414342-PDTRPC-987-Copy">
            <g id="Group" transform="translate(0.000000, 43.586902)" fill="#B8EABB" fill-rule="nonzero" opacity="0.289908709">
                <path d="M200.09,21.59 C200.09,21.59 202.03,9.11 207.5,9.6 C209.01,9.73 210.04,11.27 210.72,12.92 C211.14,13.94 212.59,13.86 212.89,12.81 C214.34,7.74 217.3,0 221.89,0 C226.48,0 226.79,8.85 226.45,14.25 C226.4,15.06 227.45,15.42 227.91,14.75 C229.16,12.91 230.99,11.14 233.21,11.65 C237.54,12.65 236.37,21.6 236.37,21.6 L200.09,21.6 L200.09,21.59 Z" id="Path"></path>
                <path d="M0,138.94 C0,138.94 1.94,126.46 7.41,126.95 C8.92,127.08 9.95,128.62 10.63,130.27 C11.05,131.29 12.5,131.21 12.8,130.16 C14.25,125.09 17.21,117.35 21.8,117.35 C26.39,117.35 26.7,126.2 26.36,131.6 C26.31,132.41 27.36,132.77 27.82,132.1 C29.07,130.26 30.9,128.49 33.12,129 C37.45,130 36.28,138.95 36.28,138.95 L0,138.95 L0,138.94 Z" id="Path"></path>
                <path d="M384.96,89.09 C384.96,89.09 386.9,76.61 392.37,77.1 C393.88,77.23 394.91,78.77 395.59,80.42 C396.01,81.44 397.46,81.36 397.76,80.31 C399.21,75.24 402.17,67.5 406.76,67.5 C411.35,67.5 411.66,76.35 411.32,81.75 C411.27,82.56 412.32,82.92 412.78,82.25 C414.03,80.41 415.86,78.64 418.08,79.15 C422.41,80.15 421.24,89.1 421.24,89.1 L384.96,89.1 L384.96,89.09 Z" id="Path"></path>
            </g>
            <g id="Group" transform="translate(185.878580, 50.044734)">
                <g transform="translate(0.000000, 97.542168)" fill-rule="nonzero" id="Path">
                    <g transform="translate(20.261420, 0.000000)">
                        <path d="M63.25,17.41 C63.25,17.41 57.54,22.37 49.31,25.5 C49.31,25.5 44.59,28.45 38.55,31.89 C38.55,31.89 38.55,31.89 38.55,31.89 C31.44,35.94 25.94,38.63 20.7,40.05 C16.28,41.25 12.36,42.75 9.4,44.03 C9.04,44.19 8.69,44.34 8.37,44.49 L8.37,44.49 C5.44,45.81 3.68,46.79 3.68,46.79 L-5.68434189e-14,38.13 C-5.68434189e-14,38.13 6.68,31.49 10.63,28.23 C15.52,24.18 24.38,15.47 34.77,11.72 L34.77,11.72 C35.6,11.42 36.39,11.18 37.15,11.03 C37.15,11.03 45.5,5.18 51.61,1.99 C53.64,0.93 55.41,0.17 56.56,0.01 C56.56,0.01 66.34,9 63.26,17.42 L63.25,17.41 Z" fill="#F9B587"></path>
                        <path d="M40.27,15.96 C40.27,15.96 36.79,12.1 34.77,11.72 L34.77,11.72 C35.6,11.42 36.39,11.18 37.15,11.03 C37.15,11.03 39.97,13.87 40.28,15.96 L40.27,15.96 Z" fill="#F39568"></path>
                        <path d="M63.25,17.41 C63.25,17.41 57.54,22.37 49.31,25.5 C49.31,25.5 44.59,28.45 38.55,31.89 C42.75,28.91 49.39,22.54 54.49,18.18 C57.97,15.2 56.05,11.4 54.63,7.84 C54.04,6.36 52.51,3.78 51.79,2.1 C51.76,2.03 51.66,2.02 51.59,1.98 C53.62,0.92 55.39,0.16 56.54,-2.84217094e-14 C56.54,-2.84217094e-14 66.32,8.99 63.24,17.41 L63.25,17.41 Z" fill="#F39568"></path>
                    </g>
                    <path d="M28.2714197,41.2 L29.3814197,51.62 C29.5014197,52.72 29.0814197,53.82 28.2614197,54.57 L22.1814197,60.13 C21.4614197,60.79 20.3314197,60.74 19.6714197,60.01 L19.6714197,60.01 C19.1214197,59.4 19.0514197,58.49 19.5214197,57.82 L24.0414197,51.21 L23.2614197,49.21 L20.6214197,53.23 L18.5014197,57.18 L17.4214197,63.33 C17.2614197,64.22 16.3914197,64.81 15.5114197,64.61 L15.5114197,64.61 C14.7414197,64.44 14.2114197,63.72 14.2714197,62.93 L14.8714197,55.55 L15.7614197,50.18 L13.5814197,55.71 L11.1914197,64.77 C11.0314197,65.37 10.5314197,65.81 9.91141972,65.89 L9.91141972,65.89 C8.96141972,66.01 8.14141972,65.24 8.19141972,64.29 L8.66141972,56.33 L10.2914197,50.61 L5.53141972,58.57 L2.95141972,64.19 C2.66141972,64.81 1.97141972,65.13 1.31141972,64.93 L1.31141972,64.93 C0.581419725,64.71 0.171419725,63.95 0.391419725,63.22 L2.39141972,56.61 L5.76141972,50.14 L2.48141972,55.29 L1.60141972,57.31 C1.42141972,57.73 0.921419725,57.92 0.501419725,57.74 L0.501419725,57.74 C0.131419725,57.58 -0.0685802751,57.18 0.0214197249,56.79 L0.541419725,54.48 L2.82141972,49.72 L20.3314197,38.11 C20.3314197,38.11 23.2614197,37.12 28.2514197,41.21 L28.2714197,41.2 Z" fill="#F9B587"></path>
                    <path d="M29.4614197,44.12 C29.1014197,44.28 28.9514197,44.34 28.6214197,44.49 L28.6214197,44.49 C28.6214197,44.49 28.3514197,43.11 26.2114197,41.34 C26.3214197,41.37 27.9214197,41.87 29.4614197,44.11 L29.4614197,44.12 Z" fill="#F39568"></path>
                </g>
                <path d="M190.58142,120.942168 C190.22142,121.652168 189.44142,122.122168 188.60142,122.442168 C189.29142,133.062168 189.04142,142.172168 187.45142,146.292168 C182.53142,158.952168 140.66142,165.142168 130.59142,155.952168 C120.52142,146.762168 115.04142,86.0621677 128.61142,76.4821677 C138.74142,69.3321677 159.99142,68.1621677 170.12142,68.0314371 C174.36142,67.9821677 178.21142,70.5021677 179.80142,74.4321677 C182.34142,80.7221677 184.61142,90.6921677 186.26142,101.322168 C186.86142,101.342168 187.51142,101.432168 188.12142,101.652168 C190.22142,102.402168 191.57142,119.012168 190.59142,120.952168 L190.58142,120.942168 Z" id="Path" fill="#2C2A40" fill-rule="nonzero"></path>
                <g transform="translate(74.390881, 226.504452)" fill-rule="nonzero" id="Path">
                    <path d="M39.3405388,19.7177158 C39.7005388,21.1977158 40.3805388,22.6877158 41.4705388,24.1377158 C41.4705388,24.1377158 37.0405388,25.9277158 32.9205388,27.6077158 C29.7905388,28.8877158 24.6605388,29.6477158 21.3305388,30.9177158 C20.5005388,31.2377158 19.7905388,31.5877158 19.2405388,31.9777158 C19.1005388,32.0777158 18.9705388,32.1877158 18.8505388,32.2877158 C17.0105388,33.9977158 7.38053876,38.0277158 4.34053876,38.7577158 C4.03053876,38.8277158 3.79053876,38.8677158 3.64053876,38.8677158 C2.73053876,38.8677158 1.46053876,38.4777158 0.680538759,37.2277158 L0.680538759,37.2277158 C-0.00946124117,36.1077158 -0.309461241,34.3077158 0.430538759,31.4977158 C1.14053876,28.7677158 3.45053876,25.4777158 5.73053876,22.7177158 C8.51053876,19.3477158 11.8805388,16.5177158 15.6505388,14.3177158 C19.1905388,12.2577158 23.6505388,9.56771583 24.5205388,8.60771583 C27.3005388,5.54771583 29.7805388,2.02771583 33.7305388,0.467715835 C34.7105388,0.0777158346 36.0005388,-0.0322841654 37.3705388,0.00771583463 C41.5505388,0.147715835 46.6005388,1.76771583 46.6005388,1.76771583 C46.6005388,1.76771583 37.1005388,10.6777158 39.3205388,19.7177158 L39.3405388,19.7177158 Z" fill="#B0B1CA"></path>
                    <path d="M37.3905388,0.0177158346 C35.4805388,1.39771583 32.4405388,3.81771583 31.1905388,6.02771583 C29.3005388,9.35771583 21.9005388,12.8077158 18.7005388,14.9077158 C15.5005388,17.0077158 3.14053876,26.6677158 1.92053876,31.9677158 C0.870538759,36.5777158 2.98053876,38.3277158 4.35053876,38.7677158 C4.04053876,38.8377158 3.80053876,38.8777158 3.65053876,38.8777158 C1.92053876,38.8777158 -1.11946124,37.4577158 0.440538759,31.5077158 C1.16053876,28.7777158 3.46053876,25.4877158 5.74053876,22.7277158 C8.52053876,19.3577158 11.8805388,16.5277158 15.6605388,14.3277158 C19.2005388,12.2677158 23.6605388,9.56771583 24.5305388,8.61771583 C27.3105388,5.55771583 29.7905388,2.03771583 33.7405388,0.477715835 C34.7205388,0.0877158346 36.0005388,-0.0222841654 37.3805388,0.0177158346 L37.3905388,0.0177158346 Z" fill="#2C2A40"></path>
                    <path d="M41.4805388,24.1377158 C41.4805388,24.1377158 37.0505388,25.9277158 32.9305388,27.6077158 C29.8005388,28.8877158 24.6705388,29.6477158 21.3405388,30.9177158 C20.5105388,31.2377158 19.8005388,31.5877158 19.2505388,31.9777158 C19.1105388,32.0777158 18.9805388,32.1877158 18.8605388,32.2877158 C17.0205388,33.9977158 7.39053876,38.0277158 4.35053876,38.7577158 C4.04053876,38.8277158 3.80053876,38.8677158 3.65053876,38.8677158 C2.74053876,38.8677158 1.47053876,38.4777158 0.690538759,37.2277158 L0.690538759,37.2277158 C0.690538759,37.2277158 6.98053876,35.8377158 10.2505388,33.7377158 C12.3605388,32.3877158 15.2405388,30.1977158 18.0105388,28.7177158 C17.3905388,27.5077158 16.4605388,25.9777158 15.0805388,24.1277158 C15.1705388,24.1977158 17.3705388,25.7877158 19.3305388,28.0677158 C20.3905388,27.5977158 21.4005388,27.2777158 22.3305388,27.1877158 C25.5605388,26.8977158 35.7205388,23.5177158 39.3405388,19.6977158 C39.7005388,21.1777158 40.3805388,22.6677158 41.4705388,24.1177158 L41.4805388,24.1377158 Z" fill="#2C2A40" opacity="0.2"></path>
                </g>
                <g transform="translate(67.826237, 202.500371)" fill-rule="nonzero" id="Path">
                    <path d="M24.3251823,14.9217969 C24.2351823,19.8617969 25.2751823,23.9217969 25.0951823,25.6217969 C24.7651823,28.7517969 19.5051823,34.9917969 19.5051823,34.9917969 C19.1051823,38.5617969 16.2651823,43.6117969 12.4851823,46.2917969 L12.4851823,46.2917969 C12.4851823,46.2917969 12.4451823,46.3217969 12.4351823,46.3317969 C12.3951823,46.3617969 12.3551823,46.3917969 12.3151823,46.4117969 C10.1051823,47.9217969 7.59518226,48.6217969 5.06518226,47.7517969 C4.78518226,47.6517969 4.50518226,47.5417969 4.22518226,47.4117969 C-0.614817741,45.0817969 -2.12481774,28.3617969 4.22518226,21.6717969 C10.3551823,15.2117969 12.9451823,1.93179688 19.0251823,0.451796881 C25.1051823,-1.02820312 28.2351823,1.60179688 28.2351823,1.60179688 C28.0751823,1.84179688 27.9251823,2.08179688 27.7751823,2.32179688 C25.1651823,6.58179688 24.4051823,11.0217969 24.3351823,14.9117969 L24.3251823,14.9217969 Z" fill="#B0B1CA"></path>
                    <path d="M28.2251823,1.61179688 C28.0651823,1.85179688 27.9151823,2.09179688 27.7651823,2.33179688 C27.1851823,2.12179688 21.4151823,0.0917968812 17.8651823,2.35179688 C14.1251823,4.73179688 12.0251823,13.7817969 10.0551823,16.2517969 C8.08518226,18.7217969 1.91518226,27.7617969 1.75518226,31.3017969 C1.58518226,34.8417969 0.765182259,43.5517969 4.13518226,46.1017969 C7.31518226,48.5117969 11.1751823,47.1417969 12.3151823,46.4217969 C9.86518226,48.1017969 7.03518226,48.7717969 4.21518226,47.4117969 C-0.624817741,45.0817969 -2.13481774,28.3617969 4.21518226,21.6717969 C10.3451823,15.2117969 12.9351823,1.93179688 19.0151823,0.451796881 C25.0951823,-1.02820312 28.2251823,1.60179688 28.2251823,1.60179688 L28.2251823,1.61179688 Z" fill="#2C2A40"></path>
                    <path d="M25.0951823,25.6317969 C24.7951823,28.5117969 20.2951823,34.0517969 19.5951823,34.8917969 L19.5351823,34.9617969 C19.5351823,34.9617969 19.5051823,35.0017969 19.5051823,35.0017969 C19.1051823,38.5717969 16.2651823,43.6217969 12.4851823,46.3017969 L12.4851823,46.3017969 C12.4851823,46.3017969 12.4451823,46.3317969 12.4351823,46.3417969 C12.3951823,46.3717969 12.3551823,46.4017969 12.3151823,46.4217969 C10.1051823,47.9317969 7.59518226,48.6317969 5.06518226,47.7617969 C5.46518226,47.5617969 5.95518226,47.3917969 6.58518226,47.2617969 C10.8951823,46.3817969 14.6051823,40.4017969 15.4251823,37.1317969 C15.6651823,36.1617969 16.4351823,34.9317969 17.3951823,33.6317969 C15.9251823,32.7817969 13.9651823,31.8517969 12.4451823,31.8317969 C12.4451823,31.8317969 14.4251823,31.1117969 18.0751823,32.7517969 C20.2951823,29.9317969 23.1051823,26.9817969 23.4251823,25.6217969 C23.9251823,23.4917969 24.3451823,14.9217969 24.3451823,14.9217969 C24.2551823,19.8617969 25.2951823,23.9217969 25.1151823,25.6217969 L25.0951823,25.6317969 Z" fill="#2C2A40" opacity="0.2"></path>
                </g>
                <g transform="translate(191.211272, 1.095178)" fill-rule="nonzero" id="Path">
                    <path d="M27.2001474,44.9369897 L14.8701474,51.8069897 L2.41014738,58.7469897 C2.41014738,58.7469897 -2.60985262,47.3969897 1.87014738,40.3669897 C1.87014738,40.3669897 2.92014738,39.7569897 4.45014738,38.9469897 C5.57014738,38.3569897 6.95014738,37.6669897 8.37014738,37.0369897 C9.18014738,36.6769897 10.0001474,36.3369897 10.8001474,36.0469897 C10.8001474,36.0469897 12.0301474,31.9469897 14.1301474,27.3369897 C15.2401474,24.8969897 15.3801474,23.2269897 15.2701474,22.1969897 C15.1701474,21.2869897 14.8701474,20.8769897 14.8701474,20.8769897 C14.8701474,20.8769897 21.2801474,17.6469897 24.9801474,14.5069897 C24.9801474,14.5069897 32.8701474,32.5969897 27.2001474,44.9269897 L27.2001474,44.9369897 Z" fill="#F9B587"></path>
                    <path d="M17.0801474,41.0269897 C17.0801474,41.0269897 11.7901474,42.3469897 8.36014738,37.0369897 C9.17014738,36.6769897 9.99014738,36.3369897 10.7901474,36.0469897 C10.7901474,36.0469897 13.2101474,40.3669897 17.0801474,41.0269897 L17.0801474,41.0269897 Z" fill="#F39568"></path>
                    <path d="M14.8601474,51.8069897 L2.40014738,58.7469897 C2.40014738,58.7469897 -2.61985262,47.3969897 1.86014738,40.3669897 C1.86014738,40.3669897 2.91014738,39.7569897 4.44014738,38.9469897 C4.44014738,38.9469897 4.58014738,48.5969897 5.90014738,50.9769897 C7.21014738,53.3569897 11.6601474,52.5469897 14.8601474,51.8069897 L14.8601474,51.8069897 Z" fill="#F39568"></path>
                    <g transform="translate(3.069694, -0.000000)">
                        <path d="M21.9104532,14.5169897 C20.4304532,16.1669897 13.9404532,20.8069897 12.9804532,21.2669897 C12.6504532,21.4269897 12.1904532,21.2269897 11.7304532,20.8969897 C11.2904532,20.9169897 8.38045316,21.0369897 6.79045316,20.3169897 C5.91045316,19.9169897 5.93045316,18.6769897 6.15045316,17.3669897 C4.05045316,16.8569897 -0.0495468392,13.6469897 0.000453160781,10.5869897 C0.0604531608,7.2569897 3.64045316,7.0069897 3.64045316,7.0069897 C3.70045316,3.1869897 7.34045316,3.7969897 7.34045316,3.7969897 C7.52045316,2.1269897 10.5504532,1.3869897 10.5504532,1.3869897 C10.8604532,-0.0330103037 12.8304532,-0.283010304 14.0004532,0.276989696 C15.1704532,0.836989696 22.1404532,8.9069897 22.4504532,10.3869897 C22.7604532,11.8669897 21.9004532,14.5069897 21.9004532,14.5069897 L21.9104532,14.5169897 Z" fill="#F9B587"></path>
                        <path d="M11.5604532,15.5169897 C12.0704532,17.4269897 10.4604532,17.6769897 10.4604532,17.6769897 C10.7904532,17.4269897 10.7604532,16.6069897 10.6704532,15.9069897 C10.6704532,15.9069897 10.6604532,15.4269897 10.4804532,14.8569897 C10.4804532,14.8569897 10.4804532,14.8569897 10.4804532,14.8569897 C10.2904532,14.2369897 9.89045316,13.4969897 9.09045316,13.1369897 C7.65045316,12.4969897 6.99045316,12.9369897 6.99045316,12.9369897 L4.12045316,9.0469897 C5.60045316,9.9369897 7.57045316,12.0669897 7.57045316,12.0669897 C10.1204532,11.9669897 11.0704532,13.8369897 11.4004532,14.8669897 C11.9004532,14.8269897 12.4604532,14.6069897 12.6604532,13.9169897 C13.0604532,12.5269897 12.1404532,11.1869897 12.1404532,11.1869897 L8.16045316,5.8969897 C8.16045316,5.8969897 13.5904532,10.9569897 13.7104532,12.9269897 C13.8704532,15.5469897 11.5604532,15.5169897 11.5604532,15.5169897 L11.5604532,15.5169897 Z" fill="#F39568"></path>
                        <path d="M12.1304532,4.2269897 C12.1304532,4.2269897 15.6804532,8.4669897 16.1504532,9.6269897 C16.6604532,10.8869897 15.8604532,12.1569897 14.9404532,12.4069897 C14.0204532,12.6569897 13.4904532,12.1769897 13.4904532,12.1769897 L13.4904532,13.5169897 C13.4904532,13.5169897 17.0804532,14.0669897 17.0404532,10.6669897 C17.0204532,8.9669897 12.1304532,4.2369897 12.1304532,4.2369897 L12.1304532,4.2269897 Z" fill="#F39568"></path>
                        <path d="M16.8204532,9.8769897 C16.8204532,9.8769897 17.6904532,10.7069897 18.7404532,10.3669897 C19.7904532,10.0269897 20.0004532,9.3169897 19.7604532,8.6669897 C19.7604532,8.6669897 20.4004532,9.2969897 19.8504532,10.2069897 C19.1404532,11.3969897 17.3804532,11.1869897 16.8204532,11.0369897 L16.8204532,9.8669897 L16.8204532,9.8769897 Z" fill="#F39568"></path>
                    </g>
                    <path d="M19.2201474,20.3069897 C19.2201474,20.3069897 18.1301474,22.4169897 15.2601474,22.1969897 C15.1601474,21.2869897 14.8601474,20.8769897 14.8601474,20.8769897 C14.8601474,20.8769897 17.2001474,21.0469897 19.2201474,20.3069897 L19.2201474,20.3069897 Z" fill="#F39568"></path>
                </g>
                <path d="M169.39142,182.452168 C169.39142,182.452168 165.77142,174.502168 166.43142,169.992168 C167.09142,165.482168 173.20142,172.572168 174.00142,174.492168 C174.80142,176.402168 173.66142,181.652168 169.39142,182.452168 Z" id="Path" fill="#6C8C31" fill-rule="nonzero"></path>
                <path d="M123.38142,228.852168 C119.79142,230.402168 116.00142,231.312168 112.89142,231.432168 C116.18142,229.022168 120.06142,228.132168 120.06142,228.132168 C121.10142,228.262168 122.23142,228.512168 123.38142,228.852168 Z" id="Path" fill="#2C2A40" fill-rule="nonzero"></path>
                <g transform="translate(79.288783, 155.535964)">
                    <path d="M58.2026371,48.5062041 C57.5026371,51.5562041 58.3526371,55.4062041 56.0626371,62.3862041 C54.5026371,67.1562041 49.5226371,70.9662041 44.0926371,73.3062041 C48.9526371,74.7262041 54.1626371,75.8862041 54.1626371,75.8862041 C62.6526371,75.5862041 78.6726371,79.0762041 78.6726371,79.0762041 C63.6226371,65.0162041 58.1926371,48.4962041 58.1926371,48.4962041 L58.2026371,48.5062041 Z" id="Path"></path>
                    <path d="M114.782637,91.1762041 C114.122637,76.8662041 90.5726371,40.4362041 86.9026371,12.8062041 L72.1426371,7.48620414 C70.1826371,6.92620414 71.0426371,7.24620414 68.7326371,6.55620414 C68.7326371,6.55620414 33.8626371,-11.4537959 18.2426371,12.2262041 C18.2426371,12.2262041 16.2726371,20.6162041 21.0326371,29.4962041 C23.0126371,33.1862041 24.4826371,44.6262041 23.0026371,46.9262041 C23.0026371,46.9262041 21.0326371,47.0862041 16.7526371,48.5662041 C14.1326371,49.4762041 10.0926371,51.1262041 7.35263715,52.2662041 C3.90263715,53.7062041 1.26263715,56.6362041 0.342637148,60.2562041 C-0.127362852,62.1262041 -0.187362852,64.2962041 0.632637148,66.6562041 C3.26263715,74.2162041 9.84263715,75.0462041 14.1126371,74.3862041 C14.1126371,74.3862041 23.3226371,74.3862041 30.5626371,75.6962041 C31.4626371,75.8562041 32.4826371,75.9162041 33.5926371,75.8762041 C31.5926371,77.3462041 29.8126371,79.3762041 29.2526371,82.1162041 C27.7726371,89.3562041 34.7726371,94.6162041 34.7726371,94.6162041 C34.7726371,94.6162041 35.5026371,96.0962041 41.0926371,95.7662041 C46.6826371,95.4362041 46.6726371,93.9362041 51.2926371,95.8162041 C55.9126371,97.6862041 88.2926371,111.066204 98.9826371,111.556204 C109.672637,112.046204 115.432637,105.466204 114.772637,91.1662041 L114.782637,91.1762041 Z M54.1726371,75.8962041 C54.1726371,75.8962041 48.9626371,74.7362041 44.1026371,73.3162041 C49.5326371,70.9762041 54.5126371,67.1662041 56.0726371,62.3962041 C58.3526371,55.4162041 57.5126371,51.5662041 58.2126371,48.5162041 C58.2126371,48.5162041 63.6426371,65.0362041 78.6926371,79.0962041 C78.6926371,79.0962041 62.6726371,75.6062041 54.1826371,75.9062041 L54.1726371,75.8962041 Z" id="Shape" fill="#292552" fill-rule="nonzero"></path>
                    <g transform="translate(2.592637, 9.926204)" fill="#5B5B6C" fill-rule="nonzero" id="Path">
                        <path d="M15.43,42.05 C14.93,42.15 14.42,42.26 13.91,42.37 L14.07,43.11 C14.58,43 15.09,42.9 15.59,42.79 C16.1,42.68 16.61,42.58 17.1,42.47 L16.94,41.73 C16.45,41.84 15.94,41.94 15.43,42.05 Z"></path>
                        <path d="M0,47.33 L0.37,47.99 C1.26,47.49 2.18,47 3.09,46.52 L2.74,45.85 C1.82,46.33 0.9,46.83 0,47.33 Z"></path>
                        <path d="M9.1,43.49 L9.29,44.22 C10.17,43.99 11.16,43.75 12.29,43.5 L12.13,42.76 C10.98,43.02 9.99,43.25 9.1,43.49 Z"></path>
                        <path d="M25.22,31.27 L25.97,31.23 C25.91,30.2 25.81,29.15 25.67,28.12 L24.92,28.22 C25.05,29.24 25.15,30.27 25.21,31.28 L25.22,31.27 Z"></path>
                        <path d="M19.02,0.05 L18.27,0 C18.2,1.05 18.16,2.1 18.14,3.12 L18.89,3.12 C18.9,2.13 18.95,1.09 19.02,0.05 Z"></path>
                        <path d="M24.66,26.44 L25.4,26.31 C25.21,25.25 24.98,24.22 24.72,23.25 L23.99,23.45 C24.25,24.39 24.47,25.4 24.66,26.44 Z"></path>
                        <path d="M4.39,45.05 L4.69,45.74 C5.52,45.38 6.46,45.04 7.57,44.7 L7.35,43.98 C6.22,44.32 5.25,44.67 4.39,45.05 L4.39,45.05 Z"></path>
                        <path d="M24.36,39.2 C24.18,39.45 23.82,39.7 23.31,39.95 L23.64,40.63 C24.27,40.32 24.7,40 24.96,39.64 C25.22,39.28 25.44,38.74 25.61,38.01 L24.88,37.84 C24.7,38.62 24.49,39 24.35,39.19 L24.36,39.2 Z"></path>
                        <path d="M24.18,21.5 C23.81,20.43 23.39,19.45 22.94,18.6 L22.27,18.95 C22.71,19.77 23.11,20.71 23.46,21.74 L24.17,21.49 L24.18,21.5 Z"></path>
                        <path d="M18.9,4.92 L18.15,4.92 C18.17,6.02 18.23,7.07 18.32,8.06 L19.07,7.99 C18.98,7.02 18.93,5.99 18.91,4.92 L18.9,4.92 Z"></path>
                        <path d="M26.04,33.05 L25.29,33.05 C25.29,33.17 25.29,33.28 25.29,33.39 C25.29,34.38 25.25,35.29 25.16,36.11 L25.91,36.19 C26,35.35 26.04,34.41 26.04,33.4 C26.04,33.29 26.04,33.17 26.04,33.05 L26.04,33.05 Z"></path>
                        <path d="M19.89,12.75 C19.64,11.85 19.43,10.84 19.27,9.76 L18.52,9.87 C18.68,10.98 18.9,12.02 19.16,12.95 L19.89,12.75 Z"></path>
                        <path d="M20.46,14.42 L19.76,14.71 C20.16,15.69 20.63,16.53 21.17,17.23 C21.23,17.31 21.29,17.39 21.35,17.47 L21.96,17.02 C21.9,16.93 21.83,16.85 21.77,16.77 C21.27,16.13 20.83,15.34 20.46,14.43 L20.46,14.42 Z"></path>
                        <path d="M18.7,41.35 L18.87,42.09 C20.14,41.8 21.1,41.55 21.9,41.3 L21.67,40.58 C20.89,40.82 19.94,41.07 18.7,41.35 L18.7,41.35 Z"></path>
                    </g>
                    <g transform="translate(36.592637, 45.286204)" fill="#5B5B6C" fill-rule="nonzero">
                        <path d="M23.72,1.67 C23.19,0.86 22.89,0.41 22.89,0.41 L23.52,0 C23.52,0 23.82,0.46 24.34,1.26 L23.71,1.67 L23.72,1.67 Z" id="Path"></path>
                        <g transform="translate(0.000000, 2.730000)">
                            <path d="M9.38,28.76 C10.18,28.95 11.13,29.19 12.29,29.5 L12.48,28.77 C11.32,28.46 10.36,28.22 9.55,28.02 L9.37,28.75 L9.38,28.76 Z" id="Path"></path>
                            <path d="M4.81,27.31 L4.71,28.06 C5.47,28.16 6.15,28.22 6.74,28.25 C6.95,28.26 7.27,28.31 7.68,28.38 L7.82,27.64 C7.37,27.56 7.03,27.51 6.79,27.49 C6.22,27.46 5.56,27.4 4.81,27.3 L4.81,27.31 Z" id="Path"></path>
                            <path d="M13.98,29.96 C14.9,30.21 15.87,30.48 16.88,30.76 L17.08,30.03 C16.07,29.75 15.1,29.48 14.18,29.23 L13.98,29.96 Z" id="Path"></path>
                            <rect id="Rectangle" transform="translate(20.112665, 31.248900) rotate(-74.330000) translate(-20.112665, -31.248900) " x="19.7326653" y="29.7439005" width="1" height="3.01"></rect>
                            <path d="M23.15,32.52 C24.11,32.79 25.08,33.06 26.05,33.33 L26.25,32.6 C25.29,32.33 24.32,32.06 23.35,31.79 L23.15,32.52 Z" id="Path"></path>
                            <path d="M35.05,14.26 C34.47,13.44 33.89,12.62 33.32,11.8 L32.7,12.23 C33.27,13.05 33.85,13.87 34.43,14.69 L35.05,14.25 L35.05,14.26 Z" id="Path"></path>
                            <path d="M49.63,33.12 C49.42,32.32 48.9,31.43 48.04,30.41 L47.46,30.9 C48.24,31.82 48.72,32.63 48.89,33.32 L49.62,33.13 L49.63,33.12 Z" id="Path"></path>
                            <path d="M37.82,18.12 C37.24,17.32 36.65,16.51 36.06,15.69 L35.45,16.13 C36.04,16.95 36.63,17.77 37.21,18.57 L37.82,18.12 Z" id="Path"></path>
                            <path d="M0.05,27 L0,27.26 C1.05,27.47 2.05,27.65 2.97,27.8 L3.09,27.05 C2.65,26.98 2.19,26.9 1.71,26.81 C1.16,26.88 0.61,26.94 0.05,26.99 L0.05,27 Z" id="Path"></path>
                            <path d="M24.68,0.41 C25.16,1.13 25.72,1.98 26.35,2.92 L26.98,2.5 C26.35,1.56 25.79,0.72 25.32,0 L24.69,0.42 L24.68,0.41 Z" id="Path"></path>
                            <path d="M42.83,36.36 C42.56,36.36 42.22,36.35 41.8,36.3 L41.72,37.05 C42.1,37.09 42.43,37.11 42.7,37.11 C42.76,37.11 42.81,37.11 42.86,37.11 C43.56,37.09 44.21,37.04 44.8,36.98 L44.72,36.23 C44.15,36.29 43.52,36.34 42.84,36.36 L42.83,36.36 Z" id="Path"></path>
                            <path d="M46.46,28.74 C45.97,28.27 45.4,27.67 44.76,26.96 L44.2,27.46 C44.85,28.19 45.44,28.81 45.94,29.29 C46.06,29.41 46.19,29.53 46.3,29.64 L46.83,29.1 C46.71,28.98 46.59,28.86 46.46,28.74 Z" id="Path"></path>
                            <path d="M43.62,25.64 C43.04,24.94 42.4,24.16 41.74,23.31 L41.15,23.78 C41.82,24.64 42.46,25.43 43.05,26.13 L43.63,25.65 L43.62,25.64 Z" id="Path"></path>
                            <path d="M38.26,19.98 C38.89,20.83 39.5,21.64 40.07,22.39 L40.67,21.93 C40.1,21.18 39.49,20.38 38.87,19.53 L38.26,19.98 L38.26,19.98 Z" id="Path"></path>
                            <path d="M46.39,35.95 L46.57,36.68 C47.97,36.34 48.89,35.83 49.37,35.1 L48.74,34.68 C48.37,35.23 47.59,35.65 46.4,35.94 L46.39,35.95 Z" id="Path"></path>
                            <path d="M27.75,33.79 C28.73,34.06 29.71,34.32 30.66,34.57 L30.85,33.84 C29.9,33.59 28.93,33.32 27.95,33.06 L27.75,33.79 L27.75,33.79 Z" id="Path"></path>
                            <path d="M36.99,36.17 C38.12,36.43 39.12,36.64 39.95,36.79 L40.09,36.05 C39.27,35.9 38.28,35.69 37.16,35.44 L36.99,36.18 L36.99,36.17 Z" id="Path"></path>
                            <path d="M30,8.31 C30.55,9.12 31.12,9.95 31.7,10.79 L32.32,10.36 C31.74,9.52 31.17,8.69 30.62,7.89 L30,8.32 L30,8.31 Z" id="Path"></path>
                            <path d="M29.63,6.44 C29.04,5.57 28.48,4.74 27.95,3.95 L27.32,4.37 C27.85,5.16 28.41,5.99 29,6.86 L29.62,6.44 L29.63,6.44 Z" id="Path"></path>
                            <path d="M32.35,35.02 C33.4,35.29 34.38,35.54 35.27,35.76 L35.45,35.03 C34.56,34.81 33.58,34.57 32.54,34.29 L32.35,35.02 Z" id="Path"></path>
                        </g>
                    </g>
                </g>
                <path d="M123.38142,228.852168 C119.79142,230.402168 116.00142,231.312168 112.89142,231.432168 C116.18142,229.022168 120.06142,228.132168 120.06142,228.132168 C121.10142,228.262168 122.23142,228.512168 123.38142,228.852168 Z" id="Path" fill="#2C2A40" fill-rule="nonzero"></path>
                <g transform="translate(72.041420, 41.462168)" fill-rule="nonzero" id="Path">
                    <path d="M122.82,20.23 C122.77,24.99 122.52,28.45 122.52,28.45 C121.64,28.77 120.69,29.19 119.71,29.69 C113.2,32.99 105.12,39.87 103.15,46.87 C102.37,49.66 102.01,55.42 101.86,61.93 C101.74,67.19 101.78,72.94 101.85,78.02 C101.85,78.29 101.85,78.57 101.86,78.84 C101.96,85.27 102.12,90.46 102.12,91.94 C102.12,96.05 101.3,108.22 101.13,113.48 C100.96,118.74 102.44,124.33 103.1,133.22 C103.76,142.1 97.34,141 97.34,141 C103.59,138.37 100.35,130.89 96.36,129.28 C95.77,129.04 95.08,128.78 94.31,128.51 L94.31,128.51 C84.76,125.13 62.62,119.42 51.34,117.77 C34.53,115.3 25.49,126.32 25.49,126.32 C25.49,126.32 28.78,108.06 31.58,104.45 C34.37,100.83 36.02,88.99 37.17,84.06 C37.33,83.4 37.41,82.57 37.44,81.61 C37.6,77.19 36.63,70.25 36.07,66.66 C35.85,65.23 35.69,64.33 35.69,64.33 C33.99,67.13 22.95,72.88 17.3,75.7 C15.3,76.7 13.98,77.32 13.98,77.32 L9.3,70.21 L0.01,56.1 C0.01,56.1 0.63,55.54 2.55,54.02 C3.92,52.94 5.95,51.38 8.89,49.19 C15.96,43.93 24.35,34.39 27.47,32.91 C30.6,31.43 31.09,31.6 35.2,27.65 C38.08,24.88 48.55,21.53 54.54,19.77 C57.09,19.02 58.83,18.56 58.83,18.56 C66.84,20.99 72.77,17.61 72.77,17.61 C72.77,17.61 74.96,16.17 77.93,14.38 C82.74,11.47 89.59,7.61 92.43,7.39 C96.04,7.11 111.55,2.75 118.1,0.87 C119.92,0.35 121.04,0.02 121.04,0.02 C122.61,5.85 122.89,14.12 122.82,20.25 L122.82,20.23 Z" fill="#C1F300"></path>
                    <g fill="#2C2A40">
                        <path d="M65.32,26.07 C58.23,26.43 55.22,21.17 54.53,19.75 C57.08,19 58.82,18.54 58.82,18.54 C66.83,20.97 72.76,17.59 72.76,17.59 C72.76,17.59 74.95,16.15 77.92,14.36 C78.78,21.6 73.31,25.66 65.32,26.06 L65.32,26.07 Z"></path>
                        <path d="M17.3,75.67 C15.3,76.67 13.98,77.29 13.98,77.29 L0,56.07 C0,56.07 0.62,55.51 2.54,53.99 L17.3,75.66 L17.3,75.67 Z"></path>
                        <path d="M122.52,28.45 C121.64,28.77 120.69,29.19 119.71,29.69 C120.94,17.75 119.03,5.73 118.09,0.85 C119.91,0.33 121.03,0 121.03,0 C123.83,10.36 122.51,28.45 122.51,28.45 L122.52,28.45 Z"></path>
                    </g>
                    <path d="M101.86,78.02 C90.33,72.98 62.24,63.93 37.44,81.59 C37.6,77.17 36.63,70.23 36.07,66.64 C39.83,64.26 57.89,53.47 75.16,54 C87.05,54.37 96.41,58.65 101.87,61.92 C101.75,67.18 101.79,72.93 101.86,78.01 L101.86,78.02 Z" fill="#837DC8" opacity="0.2"></path>
                </g>
                <g transform="translate(112.235127, 0.000000)" fill-rule="nonzero" id="Path">
                    <path d="M6.05629309,20.4321677 C6.05629309,20.4321677 1.49629309,19.4021677 0.926293093,24.7021677 C0.446293093,29.2421677 6.20629309,30.9421677 6.20629309,30.9421677 C6.20629309,30.9421677 8.05629309,23.2321677 6.04629309,20.4321677 L6.05629309,20.4321677 Z" fill="#2C2A40"></path>
                    <path d="M8.30629309,28.1221677 C8.30629309,28.1221677 3.74629309,27.0921677 3.17629309,32.3921677 C2.69629309,36.9321677 8.45629309,38.6321677 8.45629309,38.6321677 C8.45629309,38.6321677 10.3062931,30.9221677 8.29629309,28.1221677 L8.30629309,28.1221677 Z" fill="#2C2A40"></path>
                    <path d="M5.29629309,21.5021677 C5.29629309,21.5021677 -1.96370691,18.7121677 0.516293093,10.7021677 C2.99629309,2.69216773 12.4562931,5.88216773 12.4562931,5.88216773 C12.4562931,5.88216773 12.8062931,0.302167732 19.0462931,0.0121677322 C25.2862931,-0.277832268 27.5562931,4.71216773 27.5562931,4.71216773 C27.5562931,4.71216773 31.7762931,0.512167732 36.9162931,1.77216773 C42.0562931,3.03216773 43.7962931,9.26216773 42.2062931,12.2221677 C42.2062931,12.2221677 45.4762931,11.6421677 47.9562931,15.4421677 C50.4362931,19.2421677 51.0762931,24.8821677 47.9962931,26.9821677 C47.9962931,26.9821677 51.6562931,30.9921677 49.6562931,36.4321677 C47.6562931,41.8721677 42.2862931,41.7421677 42.2862931,41.7421677 C42.2862931,41.7421677 43.3162931,48.8321677 36.4362931,50.5621677 C29.5462931,52.2921677 30.1962931,46.1621677 30.1962931,46.1621677 C30.1962931,46.1621677 18.1162931,18.3221677 5.29629309,21.4821677 L5.29629309,21.5021677 Z" fill="#2C2A40"></path>
                    <g transform="translate(3.735623, 15.612261)">
                        <path d="M30.2906706,37.7799067 L31.2906706,42.6599067 C31.5406706,43.8999067 31.0606706,45.1799067 30.0306706,45.9299067 C21.1906706,52.3499067 14.4606706,47.9399067 13.0406706,45.7599067 C14.1106706,44.7599067 33.0806706,26.7999067 33.3906706,16.7099067 C33.3906706,16.7099067 35.5706706,29.2699067 30.2906706,37.7899067 L30.2906706,37.7799067 Z" fill="#F9B587"></path>
                        <path d="M2.06067056,19.4299067 C1.69067056,20.8799067 1.57067056,22.3699067 1.69067056,23.8399067 C1.79067056,25.1099067 2.08067056,26.3699067 2.54067056,27.5799067 L5.64067056,35.5899067 C6.79067056,38.5699067 9.71067056,40.4799067 12.9006706,40.3399067 C16.5606706,40.1799067 21.4406706,39.3499067 25.6806706,36.5299067 C33.6706706,31.2099067 33.7006706,18.9899067 33.7006706,18.9899067 C33.7006706,18.9899067 33.0406706,6.58990669 22.7506706,1.89990669 C12.4606706,-2.80009331 1.99067056,2.69990669 1.99067056,2.69990669 L0.790670558,11.3699067 C0.720670558,11.8499067 0.680670558,12.3399067 0.670670558,12.8199067 C0.620670558,14.4499067 0.880670558,16.0799067 1.42067056,17.6299067 L2.05067056,19.4299067 L2.06067056,19.4299067 Z" fill="#F9B587"></path>
                        <path d="M10.4406706,10.2799067 C10.4406706,10.2799067 16.2306706,4.62990669 20.2106706,9.71990669 L19.4906706,11.0199067 C19.4906706,11.0199067 15.4706706,7.51990669 10.8106706,11.8899067 L10.4406706,10.2699067 L10.4406706,10.2799067 Z" fill="#2C2A40"></path>
                        <path d="M2.06067056,19.4299067 C1.69067056,20.8799067 1.57067056,22.3699067 1.69067056,23.8399067 C2.93067056,22.9599067 5.43067056,22.2199067 10.4506706,22.9099067 C10.4506706,22.9099067 7.75067056,20.7199067 5.06067056,20.6699067 C4.34067056,20.6599067 3.83067056,19.9499067 4.06067056,19.2599067 L5.56067056,14.6599067 C5.56067056,14.6599067 5.02067056,13.7399067 3.87067056,13.3999067 C3.17067056,13.1899067 1.79067056,12.9399067 0.670670558,12.8299067 C0.620670558,14.4599067 0.880670558,16.0899067 1.42067056,17.6399067 L2.05067056,19.4399067 L2.06067056,19.4299067 Z" fill="#F39568"></path>
                        <path d="M0.930670558,11.4399067 C2.88067056,11.5699067 4.45067056,12.1299067 4.45067056,12.1299067 L4.63067056,13.6299067 C3.24067056,13.1599067 2.01067056,12.9999067 0.940670558,13.0399067 C0.410670558,13.0599067 -0.0193294418,12.6599067 0.000670558212,12.1899067 C0.000670558212,12.1899067 0.000670558212,12.1799067 0.000670558212,12.1699067 C0.0206705582,11.7399067 0.440670558,11.4099067 0.920670558,11.4399067 L0.930670558,11.4399067 Z" fill="#2C2A40"></path>
                        <path d="M4.36067056,26.5999067 L18.1006706,25.2999067 C18.1006706,25.2999067 16.5206706,32.7199067 9.21067056,32.5299067 C3.48067056,32.3799067 4.35067056,26.5999067 4.35067056,26.5999067 L4.36067056,26.5999067 Z" fill="#FFFFFF"></path>
                        <path d="M13.7206706,40.0899067 C13.7206706,40.0899067 22.2406706,39.0299067 26.8206706,27.1599067 C26.8206706,27.1599067 28.9406706,31.5299067 26.4506706,37.8199067 C23.9606706,44.1099067 13.0406706,45.7499067 13.0406706,45.7499067 L13.7206706,40.0899067 Z" fill="#F39568"></path>
                        <path d="M30.1706706,16.9799067 C30.1706706,16.9799067 32.7606706,12.0399067 36.5406706,14.2599067 C40.3206706,16.4799067 38.2106706,27.7399067 32.7306706,25.6299067 C27.2506706,23.5199067 30.1706706,16.9699067 30.1706706,16.9699067 L30.1706706,16.9799067 Z" fill="#F9B587"></path>
                    </g>
                    <path d="M15.8762931,30.2421677 C15.8762931,30.2421677 16.6762931,27.7921677 18.8762931,27.7821677 C22.0762931,27.7621677 22.6962931,30.4721677 22.6962931,30.4721677 C22.6962931,30.4721677 19.5862931,26.1921677 15.8762931,30.2421677 Z" fill="#2C2A40"></path>
                    <path d="M8.67629309,31.9521677 C8.67629309,31.9521677 6.46629309,29.3221677 5.15629309,32.5121677 C5.15629309,32.5121677 6.63629309,30.4721677 8.67629309,31.9521677 Z" fill="#2C2A40"></path>
                    <path d="M5.29629309,21.5021677 C5.29629309,21.5021677 9.02629309,22.4421677 12.1762931,20.2721677 C15.3262931,18.1021677 14.5562931,16.1721677 14.5562931,16.1721677 C14.5562931,16.1721677 15.8362931,19.3721677 20.0962931,19.0421677 C24.3562931,18.7121677 24.9462931,17.5321677 24.9462931,17.5321677 C24.9462931,17.5321677 24.7662931,22.3021677 28.2462931,23.0221677 C31.7262931,23.7521677 33.8362931,20.9221677 33.8362931,20.9221677 C33.8362931,20.9221677 18.3662931,7.29216773 13.0362931,10.9321677 C7.71629309,14.5721677 3.13629309,16.4821677 5.28629309,21.5021677 L5.29629309,21.5021677 Z" fill="#2C2A40"></path>
                    <path d="M32.0062931,21.5821677 C32.0062931,21.5821677 29.9062931,25.6621677 33.4762931,28.0221677 C33.4762931,28.0221677 33.3562931,31.5321677 32.2062931,34.4221677 L34.9262931,34.3821677 C34.9262931,34.3821677 36.9262931,30.8921677 36.7262931,27.9021677 C36.5362931,24.9121677 36.5062931,20.3721677 32.0062931,21.5721677 L32.0062931,21.5821677 Z" fill="#2C2A40"></path>
                </g>
                <path d="M216.19142,15.6121677 C216.19142,15.6121677 215.57142,17.2121677 214.67142,17.8221677 C214.67142,17.8221677 216.19142,17.7521677 216.70142,16.8821677 L216.19142,15.6021677 L216.19142,15.6121677 Z" id="Path" fill="#F39568" fill-rule="nonzero"></path>
                <path d="M80.2614197,248.842168 C80.2614197,248.842168 80.2914197,248.822168 80.3114197,248.802168 L80.3114197,248.802168 C80.3114197,248.802168 80.2814197,248.832168 80.2614197,248.842168 Z" id="Path" fill="#A5C723" fill-rule="nonzero"></path>
                <path d="M166.35142,169.962168 C156.80142,166.582168 134.66142,160.882168 123.38142,159.222168 C106.57142,156.752168 97.5314197,167.772168 97.5314197,167.772168 C97.5314197,167.772168 100.82142,149.512168 103.62142,145.902168 C106.41142,142.282168 108.06142,130.442168 109.21142,125.512168 C109.37142,124.852168 109.45142,124.022168 109.48142,123.062168 C109.64142,118.642168 108.67142,111.702168 108.11142,108.112168 C107.89142,106.682168 107.73142,105.782168 107.73142,105.782168 C106.03142,108.582168 94.9914197,114.332168 89.3414197,117.152168 C87.3414197,118.152168 86.0214197,118.772168 86.0214197,118.772168 L81.3414197,111.662168 L80.7014197,108.572168 C80.7014197,108.572168 92.9814197,101.912168 109.88142,92.7821677 C109.88142,92.7821677 117.53142,102.402168 117.41142,113.502168 C117.20142,133.252168 114.36142,146.722168 126.59142,151.332168 C138.44142,155.792168 164.74142,169.132168 166.37142,169.972168 L166.35142,169.962168 Z" id="Path" fill="#837DC8" fill-rule="nonzero" opacity="0.2"></path>
                <path d="M194.86142,61.6921677 C194.81142,66.4521677 194.56142,69.9121677 194.56142,69.9121677 C193.68142,70.2321677 192.73142,70.6521677 191.75142,71.1521677 C185.24142,74.4521677 177.16142,81.3321677 175.19142,88.3321677 C174.41142,91.1221677 174.05142,96.8821677 173.90142,103.392168 C173.78142,108.652168 173.82142,114.402168 173.89142,119.482168 C173.89142,119.752168 173.89142,120.032168 173.90142,120.302168 C173.90142,120.302168 169.55142,90.6421677 172.02142,81.9221677 C174.46142,73.3021677 194.41142,61.9421677 194.85142,61.6921677 L194.86142,61.6921677 Z" id="Path" fill="#2C2A40" fill-rule="nonzero" opacity="0.2"></path>
                <path d="M113.13142,68.7621677 C109.53142,90.1421677 110.19142,115.472168 110.19142,115.472168 C111.51142,122.212168 108.72142,127.772168 108.72142,127.772168 C95.0014197,112.942168 104.43142,68.7621677 109.53142,59.8421677 C115.79142,48.8821677 124.97142,61.6921677 124.97142,61.6921677 L120.28142,63.1721677 C120.28142,63.1721677 118.65142,60.8821677 116.64142,61.3621677 C114.63142,61.8521677 113.13142,68.7621677 113.13142,68.7621677 Z" id="Path" fill="#2C2A40" fill-rule="nonzero"></path>
                <path d="M151.90142,54.6721677 C151.90142,54.6721677 153.31142,43.8621677 161.19142,43.5921677 C173.69142,43.1521677 176.84142,76.0021677 177.82142,93.7721677 C178.81142,111.532168 173.90142,115.112168 173.90142,115.112168 L173.75142,105.002168 C173.75142,105.002168 167.28142,61.2921677 164.08142,53.6021677 C160.57142,45.1721677 157.56142,49.3421677 154.41142,53.5621677 L151.59142,54.8621677" id="Path" fill="#2C2A40" fill-rule="nonzero"></path>
            </g>
            <g id="Group" transform="translate(5.788336, 0.000000)">
                <g fill-rule="nonzero" id="Path">
                    <path d="M58.7916638,93.4969022 C38.5816638,88.2569022 22.7916638,69.2069022 18.6016638,64.6069022 C18.2316638,64.2069022 17.8216638,63.5269022 17.3916638,62.6269022 L17.3916638,62.6269022 C13.3816638,54.3169022 6.9116638,26.9869022 5.4716638,20.7969022 C5.3716638,20.3769022 5.3016638,20.0569022 5.2516638,19.8369022 C5.2016638,19.6369022 5.1816638,19.5369022 5.1816638,19.5369022 L16.6716638,14.5169022 C16.6716638,14.5169022 17.6116638,25.5369022 23.1416638,34.4269022 C28.6816638,43.3169022 33.7816638,57.4169022 33.7816638,57.4169022 C44.6016638,62.7469022 56.1816638,72.6369022 56.1816638,72.6369022 C62.2216638,85.2969022 58.7916638,93.4969022 58.7916638,93.4969022 L58.7916638,93.4969022 Z" fill="#F9B587"></path>
                    <path d="M58.7916638,93.4969022 C38.5816638,88.2569022 22.7916638,69.2069022 18.6016638,64.6069022 C18.2316638,64.2069022 17.8216638,63.5269022 17.3916638,62.6269022 C17.6216638,62.8269022 32.5716638,75.6469022 38.1916638,78.8969022 C43.8516638,82.1669022 50.2616638,85.0769022 53.4116638,82.8669022 C56.5616638,80.6569022 57.4416638,76.4469022 56.1816638,72.6369022 C62.2216638,85.2969022 58.7916638,93.4969022 58.7916638,93.4969022 L58.7916638,93.4969022 Z" fill="#F39568"></path>
                    <g transform="translate(-0.000000, -0.000000)">
                        <path d="M5.8716638,20.1169022 C8.0916638,20.0469022 15.8216638,18.0569022 16.7816638,17.6169022 C17.1116638,17.4669022 17.2516638,16.9769022 17.2916638,16.4169022 C17.5916638,16.0969022 19.5516638,13.9469022 20.0216638,12.2569022 C20.2816638,11.3269022 19.3216638,10.5469022 18.1716638,9.87690222 C19.1316638,7.93690222 19.3116638,2.73690222 16.9316638,0.816902221 C14.3416638,-1.27309778 11.8516638,1.30690222 11.8516638,1.30690222 C8.8816638,-1.10309778 7.0116638,2.07690222 7.0116638,2.07690222 C5.6216638,1.14690222 3.1116638,2.98690222 3.1116638,2.98690222 C1.8316638,2.30690222 0.371663801,3.66690222 0.0416638013,4.91690222 C-0.288336199,6.16690222 1.4216638,16.7069022 2.3616638,17.8869022 C3.3016638,19.0769022 5.8716638,20.1069022 5.8716638,20.1069022 L5.8716638,20.1169022 Z" fill="#F9B587"></path>
                        <path d="M13.2916638,12.8369022 C14.4316638,14.4569022 15.6516638,13.3769022 15.6516638,13.3769022 C15.2516638,13.4669022 14.6416638,12.9269022 14.1616638,12.3969022 C14.1616638,12.3969022 13.8016638,12.0769022 13.4816638,11.5769022 C13.4816638,11.5769022 13.4816638,11.5769022 13.4816638,11.5769022 C13.1316638,11.0269022 12.8216638,10.2469022 13.0616638,9.40690222 C13.4916638,7.88690222 14.2516638,7.66690222 14.2516638,7.66690222 L13.1216638,2.97690222 C12.8516638,4.68690222 13.2216638,7.56690222 13.2216638,7.56690222 C11.5016638,9.45690222 12.3316638,11.3869022 12.9116638,12.3069022 C12.5616638,12.6669022 12.0316638,12.9469022 11.3716638,12.6569022 C10.0516638,12.0669022 9.6216638,10.5069022 9.6216638,10.5069022 L8.1216638,4.05690222 C8.1216638,4.05690222 8.5116638,11.4669022 9.9416638,12.8269022 C11.8416638,14.6369022 13.3016638,12.8469022 13.3016638,12.8469022 L13.2916638,12.8369022 Z" fill="#F39568"></path>
                        <path d="M4.2816638,6.01690222 C4.2816638,6.01690222 5.2516638,11.4569022 5.8316638,12.5669022 C6.4716638,13.7769022 7.9516638,13.9669022 8.7416638,13.4169022 C9.5316638,12.8669022 9.5016638,12.1569022 9.5016638,12.1569022 L10.5216638,13.0169022 C10.5216638,13.0169022 8.6416638,16.1169022 6.0516638,13.9069022 C4.7616638,12.7969022 4.2816638,6.01690222 4.2816638,6.01690222 L4.2816638,6.01690222 Z" fill="#F39568"></path>
                        <path d="M5.5916638,13.2369022 C5.5916638,13.2369022 5.6716638,14.4369022 4.7316638,15.0169022 C3.8016638,15.6069022 3.1116638,15.3069022 2.7816638,14.7069022 C2.7816638,14.7069022 2.8516638,15.5969022 3.9016638,15.7669022 C5.2716638,15.9869022 6.2416638,14.4969022 6.4816638,13.9869022 L5.5816638,13.2369022 L5.5916638,13.2369022 Z" fill="#F39568"></path>
                    </g>
                    <path d="M7.9416638,20.1169022 C7.9416638,20.1169022 6.9116638,20.9369022 5.4616638,20.7869022 C5.3616638,20.3669022 5.2916638,20.0469022 5.2416638,19.8269022 C5.2416638,19.8269022 6.4316638,20.1869022 7.9416638,20.1069022 L7.9416638,20.1169022 Z" fill="#F39568"></path>
                    <path d="M17.0516638,17.3669022 C17.0516638,17.3669022 15.8416638,18.5169022 14.7716638,18.8369022 C14.7716638,18.8369022 16.2116638,18.9369022 17.2016638,18.2369022 L17.0516638,17.3769022 L17.0516638,17.3669022 Z" fill="#F39568"></path>
                    <path d="M33.7716638,57.4169022 C33.7716638,57.4169022 29.9116638,60.6469022 27.7316638,60.9869022 C27.7316638,60.9869022 32.1416638,62.4569022 35.8516638,58.4969022 L33.7716638,57.4269022 L33.7716638,57.4169022 Z" fill="#F39568"></path>
                </g>
                <path d="M46.1016638,155.136902 C46.5516638,155.796902 47.3816638,156.166902 48.2616638,156.366902 C48.9316638,166.986902 50.3416638,175.996902 52.4516638,179.866902 C58.9516638,191.796902 101.271664,192.586902 110.081664,182.186902 C118.891664,171.786902 116.581664,110.876902 101.901664,103.116902 C90.9416638,97.3169022 69.7116638,98.8769022 59.6616638,100.036902 C55.4516638,100.526902 51.9516638,103.516902 50.8816638,107.616902 C49.1616638,114.176902 48.1916638,124.366902 47.9116638,135.106902 C47.3216638,135.196902 46.6916638,135.376902 46.1016638,135.676902 C44.1216638,136.696902 44.8916638,153.336902 46.1216638,155.126902 L46.1016638,155.136902 Z" id="Path" fill="#2C2A40" fill-rule="nonzero"></path>
                <path d="M204.851664,96.0069022 C204.851664,96.0069022 201.621664,107.986902 196.501664,121.286902 C195.731664,123.296902 194.911664,125.336902 194.061664,127.366902 C190.581664,135.646902 186.461664,143.816902 182.021664,149.376902 C179.651664,152.336902 177.191664,154.566902 174.691664,155.666902 C174.691664,155.666902 167.521664,156.676902 162.481664,153.656902 C157.451664,150.636902 137.821664,140.906902 135.431664,136.716902 C135.431664,136.716902 142.981664,126.016902 150.151664,125.056902 C150.151664,125.056902 152.821664,126.436902 156.591664,128.626902 C160.651664,130.986902 166.001664,134.286902 170.711664,137.836902 C171.161664,138.176902 171.611664,138.516902 172.051664,138.866902 C172.051664,138.866902 172.421664,138.146902 173.091664,136.896902 C174.791664,133.706902 178.421664,127.076902 182.811664,120.066902 C183.751664,118.566902 184.731664,117.046902 185.721664,115.546902 C185.941664,115.216902 186.171664,114.876902 186.391664,114.546902 C194.191664,102.966902 195.201664,94.5069022 195.201664,94.5069022 C195.201664,94.5069022 202.721664,93.8769022 204.861664,96.0269022 L204.851664,96.0069022 Z" id="Path" fill="#F9B587" fill-rule="nonzero"></path>
                <path d="M196.501664,121.286902 C195.731664,123.296902 194.911664,125.336902 194.061664,127.366902 L182.801664,120.046902 C183.741664,118.546902 184.721664,117.026902 185.711664,115.526902 L196.501664,121.286902 Z" id="Path" fill="#F39568" fill-rule="nonzero"></path>
                <path d="M182.011664,149.376902 C179.641664,152.336902 177.181664,154.566902 174.681664,155.666902 C174.681664,155.666902 167.511664,156.676902 162.471664,153.656902 C157.441664,150.636902 137.811664,140.906902 135.421664,136.716902 C135.421664,136.716902 142.971664,126.016902 150.141664,125.056902 C150.141664,125.056902 152.811664,126.436902 156.581664,128.626902 C156.141664,130.136902 154.401664,135.536902 151.281664,138.156902 C147.631664,141.216902 156.061664,148.256902 163.361664,151.406902 C170.661664,154.556902 175.741664,154.416902 182.011664,149.386902 L182.011664,149.376902 Z" id="Path" fill="#F39568" fill-rule="nonzero"></path>
                <path d="M171.751664,146.996902 C172.591664,143.556902 170.701664,137.826902 170.701664,137.826902 C171.151664,138.166902 171.601664,138.506902 172.041664,138.856902 C172.041664,138.856902 172.411664,138.136902 173.081664,136.886902 C173.821664,144.216902 171.761664,146.996902 171.761664,146.996902 L171.751664,146.996902 Z" id="Path" fill="#F39568" fill-rule="nonzero"></path>
                <path d="M138.221664,325.226902 C131.511664,321.366902 129.161664,317.506902 125.131664,310.796902 C122.741664,306.806902 120.521664,303.476902 119.121664,301.426902 C118.151664,300.006902 118.041664,298.166902 118.831664,296.646902 C118.891664,296.526902 118.951664,296.406902 119.021664,296.286902 C120.601664,293.306902 123.221664,289.096902 125.481664,288.986902 L128.041664,290.376902 L136.881664,295.196902 C136.881664,295.196902 140.741664,304.066902 140.571664,307.936902 C140.431664,311.316902 146.951664,319.146902 148.931664,323.546902 C149.101664,323.916902 149.231664,324.266902 149.331664,324.586902 C149.401664,324.816902 149.451664,325.026902 149.471664,325.226902 C149.941664,328.946902 144.941664,329.086902 138.231664,325.226902 L138.221664,325.226902 Z" id="Path" fill="#B0B1CA" fill-rule="nonzero"></path>
                <path d="M138.221664,325.226902 C131.511664,321.366902 129.161664,317.506902 125.131664,310.796902 C122.741664,306.806902 120.521664,303.476902 119.121664,301.426902 C118.151664,300.006902 118.041664,298.166902 118.831664,296.646902 C118.891664,296.526902 118.951664,296.406902 119.021664,296.286902 C119.401664,297.846902 120.461664,301.346902 122.741664,304.006902 C125.761664,307.526902 130.191664,315.456902 131.251664,316.966902 C132.311664,318.476902 139.801664,324.946902 144.511664,325.896902 C148.331664,326.666902 149.031664,325.856902 149.321664,324.586902 C149.391664,324.816902 149.441664,325.026902 149.461664,325.226902 C149.931664,328.946902 144.931664,329.086902 138.221664,325.226902 L138.221664,325.226902 Z" id="Path" fill="#2C2A40" fill-rule="nonzero"></path>
                <path d="M138.221664,325.226902 C131.511664,321.366902 129.161664,317.506902 125.131664,310.796902 C122.741664,306.806902 120.521664,303.476902 119.121664,301.426902 C118.151664,300.006902 118.041664,298.166902 118.831664,296.646902 C118.891664,296.526902 118.951664,296.406902 119.021664,296.286902 C120.601664,293.306902 123.221664,289.096902 125.481664,288.986902 L128.041664,290.376902 C128.041664,290.376902 123.041664,294.856902 124.631664,299.806902 C126.221664,304.756902 131.571664,312.226902 134.351664,315.496902 C137.051664,318.666902 143.021664,324.206902 148.931664,323.546902 C149.101664,323.916902 149.231664,324.266902 149.331664,324.586902 C149.401664,324.816902 149.451664,325.026902 149.471664,325.226902 C149.941664,328.946902 144.941664,329.086902 138.231664,325.226902 L138.221664,325.226902 Z" id="Path" fill="#2C2A40" fill-rule="nonzero" opacity="0.2"></path>
                <path d="M135.781664,348.076902 C135.631664,352.526902 132.461664,356.626902 125.471664,355.426902 C117.601664,354.086902 115.391664,347.546902 113.551664,343.516902 C111.711664,339.486902 107.341664,325.566902 105.501664,320.026902 C104.501664,317.026902 104.801664,313.726902 105.281664,311.326902 C105.691664,309.306902 106.221664,307.926902 106.221664,307.926902 L109.061664,308.356902 L125.131664,310.796902 C125.131664,310.796902 128.151664,317.166902 128.821664,324.386902 C129.391664,330.556902 133.531664,338.576902 135.131664,343.906902 L135.131664,343.906902 C135.401664,344.816902 135.601664,345.636902 135.701664,346.356902 C135.781664,346.926902 135.811664,347.496902 135.781664,348.066902 L135.781664,348.076902 Z" id="Path" fill="#B0B1CA" fill-rule="nonzero"></path>
                <path d="M135.781664,348.076902 C135.631664,352.526902 132.461664,356.626902 125.471664,355.426902 C117.601664,354.086902 115.391664,347.546902 113.551664,343.516902 C111.711664,339.486902 107.341664,325.566902 105.501664,320.026902 C104.501664,317.026902 104.801664,313.726902 105.281664,311.326902 C105.691664,309.306902 106.221664,307.926902 106.221664,307.926902 L109.061664,308.356902 C108.791664,311.146902 110.001664,319.046902 112.221664,323.296902 C114.991664,328.576902 117.051664,340.196902 121.871664,345.356902 C126.691664,350.516902 135.331664,351.476902 135.151664,343.916902 C135.421664,344.816902 135.621664,345.636902 135.721664,346.366902 C135.801664,346.936902 135.831664,347.506902 135.801664,348.076902 L135.781664,348.076902 Z" id="Path" fill="#2C2A40" fill-rule="nonzero" opacity="0.2"></path>
                <path d="M135.781664,348.076902 C135.631664,352.526902 132.461664,356.626902 125.471664,355.426902 C117.601664,354.086902 115.391664,347.546902 113.551664,343.516902 C111.711664,339.486902 107.341664,325.566902 105.501664,320.026902 C104.501664,317.026902 104.801664,313.726902 105.281664,311.326902 C105.691664,313.786902 107.801664,321.736902 110.271664,328.066902 C114.291664,338.346902 117.511664,347.366902 120.311664,350.386902 C123.111664,353.396902 134.171664,355.416902 135.781664,348.066902 L135.781664,348.076902 Z" id="Path" fill="#2C2A40" fill-rule="nonzero"></path>
                <path d="M53.4516638,91.7669022 L59.7516638,93.7569022 C59.7516638,93.7569022 58.6816638,98.2069022 56.8616638,98.2069022 C55.0416638,98.2069022 52.9016638,97.2369022 53.4416638,91.7669022 L53.4516638,91.7669022 Z" id="Path" fill="#00497B" fill-rule="nonzero"></path>
                <g transform="translate(67.151664, 188.641160)">
                    <path d="M71.07,62.9357425 C72.29,65.9857425 71.15,69.1757425 69.8,74.2757425 C75.18,66.4557425 84.16,54.0457425 84.16,54.0457425 L57.99,45.9657425 C57.99,45.9657425 69.73,59.5757425 71.08,62.9357425 L71.07,62.9357425 Z" id="Path"></path>
                    <path d="M116.19,43.5457425 C115.87,42.3357425 115.25,41.2357425 114.44,40.2957425 C111.73,37.1757425 103.73,28.9157425 87.68,19.3057425 C67.21,7.05574248 63.35,8.06574248 53.12,0.515742482 C53.12,0.515742482 18.12,-3.42425752 3.75,10.4757425 C3.6,10.6157425 3.46,10.7657425 3.31,10.9157425 C2.01,12.2457425 0.89,13.7357425 0,15.4057425 C0,15.4057425 0,33.5657425 7.17,40.1857425 C14.34,46.8057425 36.84,70.2457425 39.02,70.0357425 C39.02,70.0357425 39.19,73.6757425 41.87,73.8457425 C41.87,73.8457425 38.18,88.7757425 39.69,95.1557425 C39.69,95.1557425 37.34,100.525742 38.52,104.385742 C39.69,108.245742 38.18,112.105742 38.18,114.455742 C38.18,116.805742 40.19,127.205742 46.74,129.385742 C53.28,131.565742 60.5,129.215742 61,123.515742 C61.5,117.815742 60.16,114.125742 60.67,110.935742 C60.81,110.075742 61.4,107.535742 62.22,104.185742 C64.64,105.695742 68.44,106.835742 69.73,106.575742 C71.41,106.245742 74.93,96.3357425 77.11,95.6757425 C79.29,95.0057425 87.01,85.4357425 92.54,80.0757425 C97.85,74.9257425 120.11,58.3957425 116.19,43.5757425 L116.19,43.5457425 Z M57.98,45.9657425 L84.15,54.0357425 C84.15,54.0357425 75.17,66.4457425 69.79,74.2657425 C71.14,69.1657425 72.28,65.9757425 71.06,62.9257425 C69.72,59.5657425 57.97,45.9557425 57.97,45.9557425 L57.98,45.9657425 Z" id="Shape" fill="#292552" fill-rule="nonzero"></path>
                    <g transform="translate(3.310000, 10.395742)" fill="#5B5B6C" fill-rule="nonzero">
                        <path d="M1.2,1.61 L0.21,1.78 C0.12,1.23 0.05,0.8 1.42108547e-14,0.52 C0.14,0.37 0.29,0.23 0.44,0.08 L0.94,0 C0.94,0 1.03,0.6 1.2,1.61 L1.2,1.61 Z" id="Path"></path>
                        <path d="M1.59,3.85 L0.6,4.03 C0.8,5.12 1.01,6.21 1.22,7.27 L2.21,7.07 C2,6.02 1.79,4.93 1.59,3.85 Z M2.67,9.3 L1.69,9.51 C1.93,10.63 2.18,11.71 2.42,12.73 L3.4,12.49 C3.16,11.48 2.91,10.41 2.67,9.3 Z M3.95,14.69 L2.98,14.95 C3.28,16.09 3.59,17.16 3.89,18.13 L4.85,17.83 C4.55,16.87 4.25,15.82 3.95,14.69 L3.95,14.69 Z M5.57,19.97 L4.62,20.31 C5.06,21.52 5.51,22.56 5.95,23.39 L6.84,22.92 C6.42,22.13 6,21.13 5.57,19.96 L5.57,19.97 Z M8.04,24.69 L7.31,25.38 C7.8,25.9 8.59,26.69 9.64,27.74 L10.35,27.03 C9.3,25.99 8.52,25.21 8.04,24.69 L8.04,24.69 Z M11.98,28.62 L11.28,29.34 C12.01,30.05 12.8,30.82 13.64,31.64 L14.34,30.92 C13.49,30.1 12.7,29.34 11.98,28.63 L11.98,28.62 Z M15.98,32.5 L15.28,33.22 C16.05,33.96 16.84,34.72 17.66,35.5 L18.35,34.77 C17.53,33.99 16.74,33.23 15.97,32.49 L15.98,32.5 Z M20.01,36.35 L19.32,37.08 C20.11,37.83 20.91,38.58 21.71,39.35 L22.4,38.62 C21.6,37.86 20.8,37.1 20.01,36.35 Z M24.06,40.18 L23.37,40.91 C24.18,41.66 24.98,42.42 25.78,43.16 L26.47,42.42 C25.67,41.68 24.87,40.93 24.07,40.17 L24.06,40.18 Z M28.13,43.98 L27.45,44.72 C28.27,45.49 29.09,46.23 29.87,46.95 L30.55,46.21 C29.76,45.49 28.95,44.74 28.13,43.98 Z M32.23,47.75 L31.55,48.49 C32.41,49.27 33.23,50.01 34,50.7 L34.67,49.95 C33.9,49.27 33.08,48.53 32.23,47.75 L32.23,47.75 Z M36.38,51.45 L35.72,52.21 C36.73,53.09 37.58,53.81 38.25,54.35 L38.88,53.56 C38.22,53.03 37.37,52.31 36.37,51.45 L36.38,51.45 Z M40.65,54.78 L40.24,55.7 C40.97,56.02 41.41,56.7 41.68,57.98 L42.67,57.77 C42.44,56.69 42,55.37 40.65,54.78 Z M43,60.07 L42,60.19 C42.11,61.17 42.26,62.38 42.59,63.51 L43.55,63.23 C43.24,62.19 43.11,61.02 43,60.08 L43,60.07 Z M42.71,65.58 C42.65,66.41 42.5,67.46 42.26,68.78 L43.25,68.96 C43.49,67.6 43.65,66.52 43.71,65.65 L42.71,65.57 L42.71,65.58 Z M41.83,71.01 C41.66,71.84 41.48,72.7 41.3,73.56 L41.16,74.22 L42.14,74.43 L42.28,73.77 C42.46,72.9 42.64,72.04 42.81,71.21 L41.82,71.01 L41.83,71.01 Z M40.7,76.46 C40.44,77.73 40.25,78.76 40.09,79.71 L41.08,79.88 C41.24,78.94 41.43,77.92 41.69,76.66 L40.7,76.46 Z M40.75,82.1 L39.75,81.98 C39.61,83.1 39.54,84.05 39.54,84.88 C39.54,85.04 39.54,85.19 39.54,85.34 L40.55,85.3 C40.55,85.16 40.55,85.02 40.55,84.88 C40.55,84.09 40.62,83.18 40.75,82.1 L40.75,82.1 Z M40.7,87.57 L39.7,87.61 C39.72,88.17 39.73,88.75 39.73,89.33 C39.73,89.82 39.73,90.32 39.71,90.86 L40.72,90.89 C40.74,90.35 40.74,89.84 40.74,89.33 C40.74,88.73 40.73,88.13 40.7,87.57 Z M39.61,93.12 C39.58,93.71 39.54,94.3 39.5,94.88 C39.47,95.39 39.43,95.9 39.41,96.4 L40.41,96.46 C40.44,95.96 40.47,95.46 40.5,94.95 C40.54,94.37 40.57,93.78 40.61,93.19 L39.61,93.13 L39.61,93.12 Z M40.34,101.44 C40.31,100.93 40.3,100.4 40.3,99.82 C40.3,99.46 40.3,99.09 40.32,98.72 L39.31,98.69 C39.3,99.07 39.29,99.44 39.29,99.81 C39.29,100.41 39.3,100.96 39.33,101.49 C39.33,101.65 39.34,101.81 39.35,101.99 L40.36,101.99 C40.36,101.8 40.36,101.61 40.34,101.44 Z M39.22,104.21 C39.12,105.15 38.96,106.24 38.74,107.42 L39.73,107.6 C39.95,106.39 40.12,105.28 40.22,104.31 L39.22,104.2 L39.22,104.21 Z M38.29,109.64 C38.07,110.65 37.82,111.72 37.55,112.83 L38.53,113.07 C38.81,111.96 39.06,110.87 39.28,109.85 L38.3,109.64 L38.29,109.64 Z" id="Shape"></path>
                    </g>
                    <g transform="translate(54.020000, 38.135742)" fill="#5B5B6C" fill-rule="nonzero">
                        <path d="M0,0.95 C0,0.95 1.18,1.35 3.12,2 L3.44,1.05 C1.5,0.4 0.32,5.68434189e-14 0.32,5.68434189e-14 L0,0.96 L0,0.95 Z" id="Path"></path>
                        <path d="M8.71,2.82 C7.6,2.44 6.55,2.09 5.6,1.77 L5.28,2.72 C6.23,3.04 7.27,3.39 8.39,3.77 L8.71,2.82 Z" id="Path"></path>
                        <polygon id="Path" points="15.02 42.95 15.84 43.53 17.73 40.85 16.9 40.27"></polygon>
                        <rect id="Rectangle" transform="translate(13.171769, 46.443271) rotate(-54.880000) translate(-13.171769, -46.443271) " x="11.5317688" y="45.9382705" width="3.28" height="1.01"></rect>
                        <path d="M10.08,49.96 C10.11,50.52 10.13,51.08 10.13,51.63 L11.33,49.92 L10.51,49.34 L10.08,49.95 L10.08,49.96 Z" id="Path"></path>
                        <path d="M13.96,4.6 C12.9,4.24 11.86,3.89 10.85,3.54 L10.53,4.49 C11.53,4.83 12.57,5.18 13.63,5.55 L13.96,4.6 Z" id="Path"></path>
                        <path d="M29.69,10.09 C28.73,9.74 27.69,9.37 26.6,8.99 L26.27,9.94 C27.36,10.33 28.39,10.69 29.35,11.04 L29.69,10.09 Z" id="Path"></path>
                        <path d="M19.21,6.41 C18.18,6.05 17.14,5.7 16.11,5.34 L15.79,6.29 C16.82,6.64 17.85,7 18.89,7.36 L19.22,6.41 L19.21,6.41 Z" id="Path"></path>
                        <path d="M28.46,25.25 L29.2,25.93 C29.87,25.2 30.64,24.34 31.39,23.49 L30.64,22.83 C29.89,23.68 29.12,24.53 28.45,25.26 L28.46,25.25 Z" id="Path"></path>
                        <path d="M32.12,21.12 L32.89,21.77 C33.71,20.79 34.38,19.94 34.94,19.16 L34.12,18.57 C33.58,19.33 32.92,20.16 32.12,21.11 L32.12,21.12 Z" id="Path"></path>
                        <path d="M34.91,12.06 C34.18,11.76 33.14,11.36 31.83,10.87 L31.48,11.82 C32.78,12.3 33.81,12.69 34.53,12.99 L34.91,12.06 Z" id="Path"></path>
                        <path d="M36.93,13.69 L35.98,14.02 C36.03,14.16 36.05,14.32 36.05,14.49 C36.05,15.06 35.8,15.8 35.31,16.71 L36.19,17.19 C36.77,16.12 37.06,15.23 37.06,14.49 C37.06,14.2 37.02,13.93 36.93,13.68 L36.93,13.69 Z" id="Path"></path>
                        <polygon id="Path" points="18.21 38.42 19.04 39 20.92 36.32 20.1 35.74"></polygon>
                        <path d="M24.75,29.4 L25.52,30.05 C26.09,29.38 26.75,28.63 27.68,27.6 L26.93,26.93 C26,27.96 25.32,28.72 24.75,29.4 Z" id="Path"></path>
                        <path d="M23.01,31.61 L21.41,33.89 L22.23,34.47 L23.83,32.2 C23.92,32.07 24.01,31.94 24.11,31.81 L23.3,31.21 C23.19,31.35 23.1,31.49 23,31.62 L23.01,31.61 Z" id="Path"></path>
                        <path d="M21.03,8.1 C22.08,8.46 23.12,8.82 24.13,9.18 L24.46,8.23 C23.45,7.88 22.42,7.52 21.36,7.15 L21.03,8.1 Z" id="Path"></path>
                    </g>
                </g>
                <path d="M154.831664,127.546902 C153.661664,132.796902 148.671664,137.586902 144.711664,140.666902 L144.711664,140.666902 C141.871664,142.876902 139.561664,144.206902 139.561664,144.206902 L137.211664,142.176902 L129.911664,135.896902 L126.401664,143.126902 C122.901664,150.356902 123.871664,168.866902 123.461664,174.126902 C123.111664,178.726902 130.191664,189.486902 131.611664,193.166902 C131.821664,193.706902 131.911664,194.086902 131.831664,194.286902 C131.241664,195.796902 113.731664,198.056902 102.341664,194.286902 C90.9516638,190.506902 67.8916638,204.306902 67.1416638,204.046902 C66.3916638,203.796902 65.7316638,170.116902 62.2016638,155.146902 C58.6816638,140.176902 64.5516638,100.906902 64.5516638,100.906902 L59.8116638,99.4069022 L57.6716638,98.7269022 C51.4616638,99.0669022 53.4416638,91.7669022 53.4416638,91.7669022 C53.4416638,91.7669022 53.6516638,99.1469022 57.4216638,97.2269022 C59.1116638,96.3669022 59.0416638,91.3569022 58.4416638,86.0769022 C57.7116638,79.6069022 56.1916638,72.7469022 56.1716638,72.6369022 C56.2416638,72.6569022 57.3816638,72.9569022 59.1716638,73.4669022 C65.1416638,75.1469022 78.3516638,79.0669022 83.3516638,82.0369022 C84.8516638,82.9269022 88.4716638,85.5269022 91.2816638,87.5769022 C93.3516638,89.0869022 94.9716638,90.2869022 94.9716638,90.2869022 C104.851664,95.7269022 108.021664,95.3669022 116.071664,97.7569022 C116.421664,97.8669022 116.781664,97.9669022 117.141664,98.0669022 C126.921664,100.976902 138.121664,104.426902 142.271664,111.426902 C145.481664,116.836902 150.891664,123.136902 153.431664,125.986902 C154.301664,126.956902 154.831664,127.536902 154.831664,127.536902 L154.831664,127.546902 Z" id="Path" fill="#10A8E9" fill-rule="nonzero"></path>
                <path d="M59.8216638,99.4069022 L57.6816638,98.7269022 C51.4716638,99.0669022 53.4516638,91.7669022 53.4516638,91.7669022 C53.4516638,91.7669022 53.6616638,99.1469022 57.4316638,97.2269022 C59.1216638,96.3669022 59.0516638,91.3569022 58.4516638,86.0769022 C57.7216638,79.6069022 56.2016638,72.7469022 56.1816638,72.6369022 C56.2516638,72.6569022 57.3916638,72.9569022 59.1816638,73.4669022 C60.6716638,79.4969022 63.3516638,92.8369022 59.8216638,99.4069022 Z" id="Path" fill="#2C2A40" fill-rule="nonzero"></path>
                <path d="M154.831664,127.546902 C153.661664,132.796902 148.671664,137.586902 144.711664,140.666902 L144.711664,140.666902 C141.871664,142.876902 139.561664,144.206902 139.561664,144.206902 L137.211664,142.176902 C145.191664,136.776902 150.841664,129.986902 153.041664,125.566902 C153.911664,126.536902 154.831664,127.556902 154.831664,127.556902 L154.831664,127.546902 Z" id="Path" fill="#2C2A40" fill-rule="nonzero"></path>
                <path d="M115.231664,97.5469022 C113.651664,101.746902 111.261664,105.526902 98.9516638,102.546902 C85.0916638,99.1969022 92.6716638,88.5969022 92.6716638,88.5969022 C94.7416638,90.1069022 94.9716638,90.2869022 94.9716638,90.2869022 C104.851664,95.7269022 105.111664,94.5669022 113.171664,96.9569022 C113.521664,97.0669022 114.881664,97.4369022 115.241664,97.5469022 L115.231664,97.5469022 Z" id="Path" fill="#2C2A40" fill-rule="nonzero"></path>
                <path d="M144.711664,140.656902 C141.871664,142.866902 139.561664,144.196902 139.561664,144.196902 L129.911664,135.886902 L126.401664,143.116902 C122.901664,150.346902 123.871664,168.856902 123.461664,174.116902 C116.551664,157.676902 128.651664,127.556902 128.651664,127.556902 C132.141664,134.346902 144.491664,140.506902 144.701664,140.656902 L144.711664,140.656902 Z" id="Path" fill="#2C2A40" fill-rule="nonzero" opacity="0.2"></path>
                <path d="M131.841664,194.276902 C131.251664,195.786902 113.741664,198.046902 102.351664,194.276902 C90.9616638,190.496902 67.9016638,204.296902 67.1516638,204.036902 C66.4016638,203.786902 65.7416638,170.106902 62.2116638,155.136902 C58.6916638,140.166902 64.5616638,100.896902 64.5616638,100.896902 L57.6816638,98.7169022 C51.4716638,99.0569022 53.4516638,91.7569022 53.4516638,91.7569022 C53.4516638,91.7569022 53.6616638,99.1369022 57.4316638,97.2169022 C59.1216638,96.3569022 59.0516638,91.3469022 58.4516638,86.0669022 C58.4516638,86.0669022 70.4416638,94.6969022 77.3216638,96.7069022 C77.3216638,96.7069022 75.3916638,109.036902 73.5516638,125.106902 C71.7016638,141.166902 72.8816638,152.216902 76.5716638,163.456902 C80.2616638,174.696902 88.5016638,185.466902 99.9416638,186.646902 C111.381664,187.816902 122.521664,195.826902 131.631664,193.166902 C131.841664,193.706902 131.931664,194.086902 131.851664,194.286902 L131.841664,194.276902 Z" id="Path" fill="#504B83" fill-rule="nonzero" opacity="0.2"></path>
                <g transform="translate(91.557704, 38.266902)" fill-rule="nonzero" id="Path">
                    <path d="M43.4439603,21.54 L43.4439603,21.54 C43.1639603,21.82 42.9739603,21.97 42.9739603,21.97 L5.31396028,35.15 C5.31396028,35.15 -0.316039719,32.56 0.0139602808,22.72 C0.253960281,15.62 4.82396028,12.37 7.36396028,11.11 C7.05396028,10.8 6.77396028,10.47 6.54396028,10.17 C6.20396028,9.73 6.51396028,9.09 7.07396028,9.07 C7.54396028,9.06 7.95396028,9.08 8.32396028,9.13 C8.21396028,8.66 8.15396028,8.18 8.12396028,7.77 C8.07396028,7.21 8.68396028,6.84 9.16396028,7.14 C9.93396028,7.61 10.4539603,8.08 10.8139603,8.52 C10.8339603,8.5 10.8439603,8.49 10.8639603,8.47 C14.5139603,4.79 19.4139603,2.6 24.5839603,2.31 C27.4139603,2.15 30.8639603,1.9 34.3039603,1.52 C40.8939603,0.79 46.0239603,1.98 47.9539603,-1.42108547e-14 C47.9539603,-1.42108547e-14 56.0739603,13.52 43.4739603,21.55 L43.4439603,21.54 Z" fill="#2C2A40"></path>
                    <path d="M42.7139603,19.15 C42.7139603,19.15 46.5639603,28.17 40.1839603,33.54 C40.1839603,33.54 39.2439603,22.74 42.7139603,19.15 L42.7139603,19.15 Z" fill="#2C2A40"></path>
                    <path d="M20.3239603,60.91 C20.2639603,60.96 20.1939603,61.01 20.1339603,61.07 C19.3539603,61.68 18.1939603,62.36 16.4639603,62.91 C13.1939603,63.95 5.97396028,60.75 2.83396028,59.24 C1.99396028,58.83 1.60396028,57.85 1.93396028,56.98 C3.68396028,52.32 4.52396028,47.37 4.52396028,42.37 C4.52396028,34.73 7.60396028,27.72 7.60396028,27.72 C6.82396028,31.32 8.18396028,36.53 10.2839603,41.76 C13.7339603,50.39 19.1839603,59.1 20.3439603,60.92 L20.3239603,60.91 Z" fill="#F9B587"></path>
                    <path d="M37.6939603,38.01 C37.7039603,39.52 37.4639603,41.01 36.9839603,42.43 C36.5739603,43.65 35.9839603,44.82 35.2339603,45.89 L30.2439603,53.01 C28.3839603,55.66 25.0539603,56.83 21.9539603,55.91 C18.4039603,54.86 13.8039603,52.86 10.3339603,49.06 C3.77396028,41.89 6.71396028,29.88 6.71396028,29.88 C6.71396028,29.88 10.3739603,17.86 21.6239603,15.75 C32.8739603,13.64 41.8239603,21.59 41.8239603,21.59 L40.8939603,30.4 C40.8439603,30.89 40.7639603,31.38 40.6539603,31.86 C40.3039603,33.47 39.6639603,35.01 38.7539603,36.4 L37.6939603,38.02 L37.6939603,38.01 Z" fill="#F9B587"></path>
                    <path d="M31.6839603,26.98 C31.6839603,26.98 27.3739603,20.03 22.2239603,24.06 L22.6139603,25.51 C22.6139603,25.51 27.4239603,23.05 30.9239603,28.48 L31.6839603,26.98 L31.6839603,26.98 Z" fill="#2C2A40"></path>
                    <path d="M37.6939603,38.01 C37.7039603,39.52 37.4639603,41.01 36.9839603,42.43 C35.9839603,41.26 33.7039603,39.93 28.6039603,39.38 C28.6039603,39.38 31.7839603,37.88 34.4439603,38.49 C35.1539603,38.65 35.8239603,38.08 35.7739603,37.35 L35.4139603,32.46 C35.4139603,32.46 36.1639603,31.69 37.3739603,31.63 C38.1139603,31.59 39.5339603,31.68 40.6539603,31.85 C40.3039603,33.46 39.6639603,35 38.7539603,36.39 L37.6939603,38.01 Z" fill="#F39568"></path>
                    <path d="M40.7439603,30.43 C38.7939603,30.08 37.1239603,30.25 37.1239603,30.25 L36.5839603,31.68 C38.0639603,31.56 39.3039603,31.7 40.3539603,31.99 C40.8739603,32.14 41.3939603,31.85 41.4839603,31.38 C41.4839603,31.38 41.4839603,31.37 41.4839603,31.36 C41.5639603,30.93 41.2339603,30.51 40.7539603,30.42 L40.7439603,30.43 Z" fill="#2C2A40"></path>
                    <path d="M33.6939603,44.49 L20.5139603,39.87 C20.5139603,39.87 20.2639603,47.54 27.4839603,49.13 C33.1539603,50.38 33.6939603,44.49 33.6939603,44.49 Z" fill="#FFFFFF"></path>
                    <path d="M21.2239603,55.47 L20.6139603,60.65 C20.5239603,60.73 20.4239603,60.82 20.3239603,60.91 C20.2639603,60.96 20.1939603,61.01 20.1339603,61.07 C18.1939603,60.18 10.0739603,56.12 9.26396028,50.15 C8.75396028,46.38 9.49396028,43.53 10.2639603,41.75 C10.8739603,40.33 11.4939603,39.59 11.4939603,39.59 C13.1139603,52.36 21.2239603,55.47 21.2239603,55.47 L21.2239603,55.47 Z" fill="#F39568"></path>
                    <path d="M10.6839603,28.76 C10.6839603,28.76 9.34396028,23.28 5.09396028,24.54 C0.843960281,25.8 0.173960281,37.38 6.07396028,36.64 C11.9739603,35.9 10.6939603,28.76 10.6939603,28.76 L10.6839603,28.76 Z" fill="#F9B587"></path>
                    <path d="M23.3939603,15.49 C23.3939603,15.49 20.9139603,15.75 20.6139603,18.89 C20.3139603,22.03 19.7739603,27.38 15.7339603,27.27 C11.6839603,27.16 11.2939603,32.07 11.2939603,32.07 L8.40396028,31.37 C8.40396028,31.37 8.11396028,22.63 10.0439603,19.66 C11.9739603,16.68 20.0839603,12.39 23.4039603,15.49 L23.3939603,15.49 Z" fill="#2C2A40"></path>
                    <path d="M22.9339603,29.31 C22.9339603,29.31 24.3239603,27.54 27.0939603,28.35 C29.8639603,29.16 29.7139603,32.12 29.7139603,32.12 C29.7139603,32.12 28.1639603,28.24 22.9339603,29.31 Z" fill="#2C2A40"></path>
                    <path d="M35.9939603,34.18 C35.9939603,34.18 36.9839603,33.58 38.1239603,34.02 C39.2639603,34.46 38.8539603,35.96 38.8539603,35.96 C38.8539603,35.96 38.5939603,34.04 35.9939603,34.18 L35.9939603,34.18 Z" fill="#2C2A40"></path>
                </g>
                <g transform="translate(158.661664, 68.776839)" fill-rule="nonzero">
                    <g>
                        <rect id="Rectangle" fill="#2C2A40" transform="translate(32.795343, 31.819882) rotate(32.290000) translate(-32.795343, -31.819882) " x="5.44534307" y="13.7098815" width="54.7" height="36.22"></rect>
                        <polygon id="Path" fill="#2C2A40" points="65.59 31.1100634 46.24 61.7300634 2.84217094e-14 32.5100634 2 32.3700634 64.76 27.9400634 65.32 30.0800634 65.32 30.0800634"></polygon>
                        <path d="M65.32,30.0800634 L46.82,59.4500634 C46.19,59.0500634 46.47,59.2300634 45.42,58.5600634 L32.75,29.2900634 L64.77,27.9400634 L65.32,30.0800634 Z" id="Path" fill="#FFFFFF"></path>
                        <rect id="Rectangle" fill="#2C2A40" transform="translate(32.978614, 29.281507) rotate(32.290000) translate(-32.978614, -29.281507) " x="6.82361399" y="11.1715075" width="52.31" height="36.22"></rect>
                    </g>
                    <path d="M50.39,15.7400634 C50.39,15.7400634 50.39,15.7400634 50.39,15.7400634 C49.95,14.9400634 49,14.2500634 48.34,14.1600634 C48.34,13.4700634 47.67,12.8200634 46.84,12.4600634 C46.36,12.2500634 45.81,12.2400634 45.31,12.3800634 C45.07,11.5400634 44.17,10.8800634 43.57,11.0600634 C43.57,11.0600634 43.43,11.0900634 43.18,11.1500634 C43.11,10.5400634 42.75,10.1600634 42.75,10.1600634 L42.75,10.1600634 C42.36,9.26006341 40.85,8.51006341 40.17,8.72006341 C40.17,8.72006341 34.41,9.75006341 33.05,13.7400634 C31.69,17.7300634 29.94,22.3400634 31.98,22.0500634 C32.56,21.9700634 33.24,21.4000634 33.91,20.5800634 C33.19,22.9900634 32.93,24.8600634 34.25,24.6700634 C34.98,24.5700634 35.86,23.7000634 36.68,22.5200634 C36.13,24.5800634 36.03,26.0700634 37.22,25.9100634 C38.29,25.7600634 39.67,23.9800634 40.73,21.9900634 C40.05,24.3200634 39.83,26.0900634 41.12,25.9100634 C42.7,25.6900634 43.81,22.4800634 45.39,20.0300634 C47.25,17.1600634 47.18,18.8500634 49.19,18.0800634 L50.65,19.0000634 C51.36,17.2500634 50.5,15.8600634 50.42,15.7400634 L50.39,15.7400634 Z" id="Path" fill="#F9B587"></path>
                </g>
                <path d="M92.6716638,88.5969022 C92.6716638,88.5969022 94.2716638,75.3069022 88.7616638,74.2269022 C78.0616638,72.1269022 66.1916638,87.9669022 59.7516638,104.436902 C50.0616638,129.226902 61.2516638,147.836902 61.2516638,147.836902 L61.4516638,138.346902 C61.4516638,138.346902 60.5716638,117.706902 70.1316638,101.386902 C79.6916638,85.0669022 86.3616638,80.6569022 87.7516638,81.7969022 C89.1416638,82.9369022 89.2016638,86.0869022 89.2016638,86.0869022 L92.6616638,88.6069022 L92.6716638,88.5969022 Z" id="Path" fill="#2C2A40" fill-rule="nonzero"></path>
                <path d="M117.141664,98.0769022 C117.141664,98.0769022 120.341664,89.8069022 130.591664,93.4869022 C139.561664,96.7069022 138.631664,106.276902 137.251664,118.856902 C135.871664,131.436902 123.681664,162.556902 123.681664,162.556902 C123.681664,162.556902 123.161664,151.596902 124.551664,145.046902 C124.551664,145.046902 132.941664,117.376902 129.921664,106.436902 C126.901664,95.4869022 120.171664,98.9769022 120.171664,98.9769022 L117.151664,98.0669022 L117.141664,98.0769022 Z" id="Path" fill="#2C2A40" fill-rule="nonzero"></path>
            </g>
        </g>
    </g>
</svg>