<?xml version="1.0" encoding="UTF-8"?>
<svg width="22px" height="22px" viewBox="0 0 22 22" version="1.1" xmlns="http://www.w3.org/2000/svg" xmlns:xlink="http://www.w3.org/1999/xlink">
    <title>add message</title>
    <g id="Page-1" stroke="none" stroke-width="1" fill="none" fill-rule="evenodd">
        <g id="22" transform="translate(-1212.000000, -127.000000)" fill="#FFFFFF">
            <g id="Group-2" transform="translate(1204.000000, 113.000000)">
                <g id="add-message" transform="translate(8.000000, 14.000000)">
                    <rect id="Rectangle" fill-opacity="0" x="0" y="0" width="22" height="22"></rect>
                    <g id="6973361_phone_massage_chat_communication_icon" transform="translate(2.000000, 2.000000)" fill-rule="nonzero">
                        <path d="M16.2,0 L1.8,0 C0.8073,0 0,0.8073 0,1.8 L0,18 L4.7997,14.4 L16.2,14.4 C17.1927,14.4 18,13.5927 18,12.6 L18,1.8 C18,0.8073 17.1927,0 16.2,0 Z M16.2,12.6 L4.2003,12.6 L1.8,14.4 L1.8,1.8 L16.2,1.8 L16.2,12.6 Z M14.4,6.3 L3.6,6.3 L3.6,4.5 L14.4,4.5 L14.4,6.3 Z M11.7,9.9 L3.6,9.9 L3.6,8.1 L11.7,8.1 L11.7,9.9 Z" id="Shape"></path>
                    </g>
                </g>
            </g>
        </g>
    </g>
</svg>