<?xml version="1.0" encoding="UTF-8"?>
<svg width="41px" height="53px" viewBox="0 0 41 53" version="1.1" xmlns="http://www.w3.org/2000/svg" xmlns:xlink="http://www.w3.org/1999/xlink">
    <title>CSV</title>
    <g id="CSV" stroke="none" stroke-width="1" fill="none" fill-rule="evenodd">
        <g id="8172157_csv_file_extention_format_icon" transform="translate(6.000000, 7.000000)" fill="#A1A8C1" fill-rule="nonzero">
            <path d="M28.5,21 L1.5,21 C0.757970751,20.92925 0.0938601169,21.4605385 0,22.2 L0,31.8 C0.0938601169,32.5394615 0.757970751,33.07075 1.5,33 L28.5,33 C29.2420292,33.07075 29.9061399,32.5394615 30,31.8 L30,22.2 C29.9061399,21.4605385 29.2420292,20.92925 28.5,21 Z M12.855,28.38 C12.855,28.38 12.855,28.47 12.855,28.5 C12.855,28.53 12.855,28.5 12.855,28.59 L12.855,28.665 C12.8076645,28.7145977 12.7517693,28.7552488 12.69,28.785 L12.42,28.92 L12.03,29.025 C11.8754274,29.0412779 11.7195726,29.0412779 11.565,29.025 C11.2670731,29.0266186 10.9716461,28.9705893 10.695,28.86 C10.4357467,28.7546458 10.2046286,28.5902951 10.02,28.38 C9.83024208,28.1444329 9.6876436,27.8745143 9.6,27.585 C9.50445801,27.2229132 9.45903465,26.8494322 9.465,26.475 C9.45621636,26.0846251 9.50679347,25.6951814 9.615,25.32 C9.70658031,25.0124205 9.85967453,24.7266446 10.065,24.48 C10.2542721,24.2507581 10.4961358,24.0706468 10.77,23.955 C11.0485997,23.8319817 11.3504811,23.7705821 11.655,23.775 C11.7795079,23.7593135 11.9054921,23.7593135 12.03,23.775 C12.1489652,23.786962 12.2653516,23.8173237 12.375,23.865 C12.476603,23.894483 12.5728235,23.9400611 12.66,24 L12.825,24.12 L12.825,24.21 C12.825,24.21 12.825,24.21 12.825,24.3 C12.825,24.39 12.825,24.3 12.825,24.435 L12.825,24.81 C12.828168,24.8549442 12.828168,24.9000558 12.825,24.945 L12.825,24.945 C12.7744738,24.9315892 12.7280796,24.9058146 12.69,24.87 L12.465,24.72 C12.3661921,24.6579175 12.2604772,24.607577 12.15,24.57 C12.0105429,24.5195978 11.8632836,24.4942083 11.715,24.495 C11.5378601,24.4937316 11.3629892,24.5348777 11.205,24.615 C11.0557803,24.7069138 10.9279253,24.8296545 10.83,24.975 C10.7179468,25.1444263 10.6366988,25.3323123 10.59,25.53 C10.5396475,25.7717468 10.5145129,26.0180655 10.515,26.265 C10.5106993,26.5278201 10.5409584,26.7900656 10.605,27.045 C10.6484019,27.2391333 10.7299848,27.4226948 10.845,27.585 C10.9496523,27.7179975 11.0829619,27.8256706 11.235,27.9 C11.3916848,27.9665943 11.5597727,28.0022493 11.73,28.005 C11.8832891,28.0072573 12.0357289,27.9818506 12.18,27.93 L12.495,27.795 L12.72,27.645 L12.855,27.645 L12.855,27.645 C12.858168,27.6899442 12.858168,27.7350558 12.855,27.78 L12.855,28.38 Z M16.215,28.17 C16.1301645,28.3618991 16.0017677,28.5313828 15.84,28.665 C15.6768249,28.8044952 15.4884265,28.911424 15.285,28.98 C15.0660221,29.0464142 14.8388049,29.0817591 14.61,29.085 C14.4553894,29.1005389 14.2996106,29.1005389 14.145,29.085 L13.77,28.98 L13.5,28.8 C13.4444154,28.7675293 13.3938803,28.7271012 13.35,28.68 C13.3391883,28.6356494 13.3391883,28.5893506 13.35,28.545 C13.3401639,28.4502546 13.3401639,28.3547454 13.35,28.26 C13.3419406,28.190232 13.3419406,28.119768 13.35,28.05 C13.35,28.05 13.35,27.96 13.35,27.93 C13.3442429,27.9053314 13.3442429,27.8796686 13.35,27.855 L13.35,27.855 C13.4005262,27.8684108 13.4469204,27.8941854 13.485,27.93 L13.725,28.065 L14.07,28.215 C14.2289627,28.240766 14.3910373,28.240766 14.55,28.215 C14.6543271,28.2318116 14.7606729,28.2318116 14.865,28.215 C14.9492346,28.1840982 15.0297378,28.1438466 15.105,28.095 C15.1633277,28.0313392 15.2136974,27.9608216 15.255,27.885 C15.2693002,27.795568 15.2693002,27.704432 15.255,27.615 C15.2572095,27.5080353 15.2257243,27.4030845 15.165,27.315 C15.0977122,27.2326651 15.0223349,27.1572878 14.94,27.09 L14.61,26.91 C14.4842798,26.8621961 14.3636753,26.8018938 14.25,26.73 C14.1172457,26.6748483 13.991392,26.6043702 13.875,26.52 C13.7530713,26.4455747 13.6462165,26.3488966 13.56,26.235 C13.4536865,26.1257702 13.376345,25.9917116 13.335,25.845 C13.2702862,25.6673265 13.2397498,25.4790191 13.245,25.29 C13.2355302,25.0735304 13.2766158,24.8578308 13.365,24.66 C13.4408474,24.4794628 13.5592081,24.3199332 13.71,24.195 C13.856449,24.0745187 14.0244159,23.9829004 14.205,23.925 C14.4093081,23.8636206 14.621678,23.8332821 14.835,23.835 C14.9445006,23.8201769 15.0554994,23.8201769 15.165,23.835 C15.2731724,23.844028 15.3793657,23.8693121 15.48,23.91 L15.735,24.015 C15.7924942,24.0302367 15.8444998,24.06144 15.885,24.105 L15.885,24.18 C15.885,24.18 15.885,24.18 15.885,24.18 C15.8935165,24.2195467 15.8935165,24.2604533 15.885,24.3 L15.885,24.66 C15.885,24.66 15.885,24.765 15.885,24.795 L15.885,24.87 L15.885,24.87 L15.75,24.87 L15.54,24.75 C15.335492,24.6432667 15.1103792,24.5818723 14.88,24.57 C14.7857467,24.5531557 14.6892533,24.5531557 14.595,24.57 C14.5219629,24.5951662 14.4553796,24.6361405 14.4,24.69 C14.3516895,24.7384477 14.3112059,24.7941126 14.28,24.855 C14.2726774,24.9298213 14.2726774,25.0051787 14.28,25.08 C14.2778208,25.1823154 14.3094555,25.2824921 14.37,25.365 C14.4250329,25.4576133 14.5023867,25.5349671 14.595,25.59 L14.925,25.77 L15.3,25.95 L15.675,26.16 C15.7901412,26.2431518 15.8957776,26.3387275 15.99,26.445 C16.0923617,26.5598379 16.1736124,26.6918703 16.23,26.835 C16.3879296,27.2349748 16.3879296,27.6800252 16.23,28.08 L16.215,28.17 Z M20.79,24.3 L19.38,28.8 L19.38,28.92 L19.275,28.92 L19.095,28.92 L18.255,28.92 L18.18,28.92 C18.18,28.92 18.18,28.92 18.18,28.92 C18.1719868,28.8956421 18.1719868,28.8693579 18.18,28.845 L16.77,24.345 C16.7599099,24.2703394 16.7599099,24.1946606 16.77,24.12 C16.754939,24.0814177 16.754939,24.0385823 16.77,24 C16.8236526,23.9827827 16.8813474,23.9827827 16.935,24 L17.505,24 L17.655,24 L17.655,24.105 L18.81,28.02 L19.95,24.12 C19.9411088,24.0855647 19.9411088,24.0494353 19.95,24.015 C19.9745967,24.0086492 20.0004033,24.0086492 20.025,24.015 L20.175,24.015 L20.715,24.015 C20.715,24.015 20.82,24.015 20.835,24.015 C20.850061,24.0535823 20.850061,24.0964177 20.835,24.135 C20.835,24.135 20.82,24.21 20.79,24.3 L20.79,24.3 Z M25.5,34.5 L28.5,34.5 L28.5,36 C28.5,37.6568542 27.1568542,39 25.5,39 L4.5,39 C2.84314575,39 1.5,37.6568542 1.5,36 L1.5,34.5 L4.5,34.5 L4.5,36 L25.5,36 L25.5,34.5 Z M4.5,19.5 L1.5,19.5 L1.5,3 C1.5,1.34314575 2.84314575,0 4.5,0 L21.615,0 L28.5,6.885 L28.5,19.5 L25.5,19.5 L25.5,9 L19.5,9 C18.6715729,9 18,8.32842712 18,7.5 L18,3 L4.5,3 L4.5,19.5 Z M28.5,21 L1.5,21 C0.757970751,20.92925 0.0938601169,21.4605385 0,22.2 L0,31.8 C0.0938601169,32.5394615 0.757970751,33.07075 1.5,33 L28.5,33 C29.2420292,33.07075 29.9061399,32.5394615 30,31.8 L30,22.2 C29.9061399,21.4605385 29.2420292,20.92925 28.5,21 Z M12.855,28.38 C12.855,28.38 12.855,28.47 12.855,28.5 C12.855,28.53 12.855,28.5 12.855,28.59 L12.855,28.665 C12.8076645,28.7145977 12.7517693,28.7552488 12.69,28.785 L12.42,28.92 L12.03,29.025 C11.8754274,29.0412779 11.7195726,29.0412779 11.565,29.025 C11.2670731,29.0266186 10.9716461,28.9705893 10.695,28.86 C10.4357467,28.7546458 10.2046286,28.5902951 10.02,28.38 C9.83024208,28.1444329 9.6876436,27.8745143 9.6,27.585 C9.50445801,27.2229132 9.45903465,26.8494322 9.465,26.475 C9.45621636,26.0846251 9.50679347,25.6951814 9.615,25.32 C9.70658031,25.0124205 9.85967453,24.7266446 10.065,24.48 C10.2542721,24.2507581 10.4961358,24.0706468 10.77,23.955 C11.0485997,23.8319817 11.3504811,23.7705821 11.655,23.775 C11.7795079,23.7593135 11.9054921,23.7593135 12.03,23.775 C12.1489652,23.786962 12.2653516,23.8173237 12.375,23.865 C12.476603,23.894483 12.5728235,23.9400611 12.66,24 L12.825,24.12 L12.825,24.21 C12.825,24.21 12.825,24.21 12.825,24.3 C12.825,24.39 12.825,24.3 12.825,24.435 L12.825,24.81 C12.828168,24.8549442 12.828168,24.9000558 12.825,24.945 L12.825,24.945 C12.7744738,24.9315892 12.7280796,24.9058146 12.69,24.87 L12.465,24.72 C12.3661921,24.6579175 12.2604772,24.607577 12.15,24.57 C12.0105429,24.5195978 11.8632836,24.4942083 11.715,24.495 C11.5378601,24.4937316 11.3629892,24.5348777 11.205,24.615 C11.0557803,24.7069138 10.9279253,24.8296545 10.83,24.975 C10.7179468,25.1444263 10.6366988,25.3323123 10.59,25.53 C10.5396475,25.7717468 10.5145129,26.0180655 10.515,26.265 C10.5106993,26.5278201 10.5409584,26.7900656 10.605,27.045 C10.6484019,27.2391333 10.7299848,27.4226948 10.845,27.585 C10.9496523,27.7179975 11.0829619,27.8256706 11.235,27.9 C11.3916848,27.9665943 11.5597727,28.0022493 11.73,28.005 C11.8832891,28.0072573 12.0357289,27.9818506 12.18,27.93 L12.495,27.795 L12.72,27.645 L12.855,27.645 L12.855,27.645 C12.858168,27.6899442 12.858168,27.7350558 12.855,27.78 L12.855,28.38 Z M16.215,28.17 C16.1301645,28.3618991 16.0017677,28.5313828 15.84,28.665 C15.6768249,28.8044952 15.4884265,28.911424 15.285,28.98 C15.0660221,29.0464142 14.8388049,29.0817591 14.61,29.085 C14.4553894,29.1005389 14.2996106,29.1005389 14.145,29.085 L13.77,28.98 L13.5,28.8 C13.4444154,28.7675293 13.3938803,28.7271012 13.35,28.68 C13.3391883,28.6356494 13.3391883,28.5893506 13.35,28.545 C13.3401639,28.4502546 13.3401639,28.3547454 13.35,28.26 C13.3419406,28.190232 13.3419406,28.119768 13.35,28.05 C13.35,28.05 13.35,27.96 13.35,27.93 C13.3442429,27.9053314 13.3442429,27.8796686 13.35,27.855 L13.35,27.855 C13.4005262,27.8684108 13.4469204,27.8941854 13.485,27.93 L13.725,28.065 L14.07,28.215 C14.2289627,28.240766 14.3910373,28.240766 14.55,28.215 C14.6543271,28.2318116 14.7606729,28.2318116 14.865,28.215 C14.9492346,28.1840982 15.0297378,28.1438466 15.105,28.095 C15.1633277,28.0313392 15.2136974,27.9608216 15.255,27.885 C15.2693002,27.795568 15.2693002,27.704432 15.255,27.615 C15.2572095,27.5080353 15.2257243,27.4030845 15.165,27.315 C15.0977122,27.2326651 15.0223349,27.1572878 14.94,27.09 L14.61,26.91 C14.4842798,26.8621961 14.3636753,26.8018938 14.25,26.73 C14.1172457,26.6748483 13.991392,26.6043702 13.875,26.52 C13.7530713,26.4455747 13.6462165,26.3488966 13.56,26.235 C13.4536865,26.1257702 13.376345,25.9917116 13.335,25.845 C13.2702862,25.6673265 13.2397498,25.4790191 13.245,25.29 C13.2355302,25.0735304 13.2766158,24.8578308 13.365,24.66 C13.4408474,24.4794628 13.5592081,24.3199332 13.71,24.195 C13.856449,24.0745187 14.0244159,23.9829004 14.205,23.925 C14.4093081,23.8636206 14.621678,23.8332821 14.835,23.835 C14.9445006,23.8201769 15.0554994,23.8201769 15.165,23.835 C15.2731724,23.844028 15.3793657,23.8693121 15.48,23.91 L15.735,24.015 C15.7924942,24.0302367 15.8444998,24.06144 15.885,24.105 L15.885,24.18 C15.885,24.18 15.885,24.18 15.885,24.18 C15.8935165,24.2195467 15.8935165,24.2604533 15.885,24.3 L15.885,24.66 C15.885,24.66 15.885,24.765 15.885,24.795 L15.885,24.87 L15.885,24.87 L15.75,24.87 L15.54,24.75 C15.335492,24.6432667 15.1103792,24.5818723 14.88,24.57 C14.7857467,24.5531557 14.6892533,24.5531557 14.595,24.57 C14.5219629,24.5951662 14.4553796,24.6361405 14.4,24.69 C14.3516895,24.7384477 14.3112059,24.7941126 14.28,24.855 C14.2726774,24.9298213 14.2726774,25.0051787 14.28,25.08 C14.2778208,25.1823154 14.3094555,25.2824921 14.37,25.365 C14.4250329,25.4576133 14.5023867,25.5349671 14.595,25.59 L14.925,25.77 L15.3,25.95 L15.675,26.16 C15.7901412,26.2431518 15.8957776,26.3387275 15.99,26.445 C16.0923617,26.5598379 16.1736124,26.6918703 16.23,26.835 C16.3879296,27.2349748 16.3879296,27.6800252 16.23,28.08 L16.215,28.17 Z M20.79,24.3 L19.38,28.8 L19.38,28.92 L19.275,28.92 L19.095,28.92 L18.255,28.92 L18.18,28.92 C18.18,28.92 18.18,28.92 18.18,28.92 C18.1719868,28.8956421 18.1719868,28.8693579 18.18,28.845 L16.77,24.345 C16.7599099,24.2703394 16.7599099,24.1946606 16.77,24.12 C16.754939,24.0814177 16.754939,24.0385823 16.77,24 C16.8236526,23.9827827 16.8813474,23.9827827 16.935,24 L17.505,24 L17.655,24 L17.655,24.105 L18.81,28.02 L19.95,24.12 C19.9411088,24.0855647 19.9411088,24.0494353 19.95,24.015 C19.9745967,24.0086492 20.0004033,24.0086492 20.025,24.015 L20.175,24.015 L20.715,24.015 C20.715,24.015 20.82,24.015 20.835,24.015 C20.850061,24.0535823 20.850061,24.0964177 20.835,24.135 C20.835,24.135 20.82,24.21 20.79,24.3 L20.79,24.3 Z" id="Shape"></path>
        </g>
    </g>
</svg>