<?xml version="1.0" encoding="UTF-8"?>
<svg width="30px" height="30px" viewBox="0 0 30 30" version="1.1" xmlns="http://www.w3.org/2000/svg" xmlns:xlink="http://www.w3.org/1999/xlink">
    <title>parent</title>
    <g id="parent" stroke="none" stroke-width="1" fill="none" fill-rule="evenodd">
        <g id="Parent-Management_Disabled" transform="translate(7.000000, 4.000000)" fill="#FFFFFF" fill-rule="nonzero" stroke="#FFFFFF" stroke-width="0.7">
            <g id="4574385_female_mother_parent_woman_icon">
                <path d="M16.3844021,7.35326429 C15.64595,5.84335714 14.3221924,4.70244762 12.6273365,4.00297857 C12.8205832,3.68399315 12.9257432,3.31694585 12.9315414,2.94119048 C12.9315414,1.29210714 10.9861788,0 8.50250958,0 C6.01983378,0 4.07449665,1.29210714 4.07449665,2.94119048 C4.08543418,3.27413353 4.17565818,3.59923233 4.33725612,3.88797619 C2.69490116,4.4783881 1.44241859,5.4461 0.705214605,6.77115476 C-0.378021823,8.71867857 -0.207502007,11.1429738 1.17647493,13.6060833 C2.03605375,18.8318952 4.74111348,22 8.50250958,22 C12.2596771,22 14.9630046,18.8393857 15.8259205,13.6241024 C17.1586701,11.7073786 17.3736158,9.37378095 16.3844021,7.35326429 Z M5.09343788,2.94119048 C5.09343788,1.91452381 6.65468512,1.04761905 8.50250958,1.04761905 C10.351353,1.04761905 11.9126002,1.91468095 11.9126002,2.94119048 C11.8970344,3.20720378 11.792361,3.45946942 11.6163685,3.65511667 C10.6021827,3.36709892 9.55467169,3.22191866 8.50250958,3.22355 C7.43411861,3.21848026 6.36883763,3.34229069 5.32850762,3.59244286 C5.18405485,3.407008 5.10161834,3.17862056 5.09343788,2.94119048 Z M1.58983391,7.29142857 C2.65753149,5.37216429 5.17701654,4.27135238 8.50250958,4.27135238 C11.7802397,4.27135238 14.3863093,5.59920952 15.4749207,7.82393333 C15.9623319,8.81801454 16.0993005,9.95513682 15.862475,11.0414333 C15.0715218,9.51335 14.1746498,9.26359762 13.3762584,9.05719048 C12.6319473,8.86484762 11.9891482,8.69861667 11.3095144,7.30059524 C11.2231391,7.12323419 11.0467661,7.01121646 10.8538438,7.01119048 L10.8487491,7.01119048 C10.6536847,7.01316669 10.4767878,7.12932063 10.3930022,7.31044286 C9.38514195,9.49404762 6.2566612,9.87310238 3.97199116,10.1503548 C2.67029373,10.3080214 1.63838646,10.439419 1.18801444,10.9016548 C0.861181104,9.6902341 1.00527208,8.39562034 1.58983391,7.29142857 L1.58983391,7.29142857 Z M8.50250958,20.952381 C4.82576202,20.952381 2.38389482,17.4581 1.96197673,11.6005476 C2.23362646,11.4158786 3.30132403,11.2864714 4.09141107,11.1907976 C6.3442392,10.917631 9.34035948,10.55395 10.8438837,8.54817857 C11.6160628,9.68222619 12.4419657,9.89554762 13.1275603,10.0730405 C13.8559504,10.2617952 14.4370526,10.4116833 15.0380751,11.66495 C14.6032419,17.4836881 12.1653486,20.952381 8.50250958,20.952381 Z" id="Shape"></path>
                <path d="M6.97409772,14.1750976 C7.15010324,14.1751609 7.31365416,14.081744 7.40658854,13.9280676 C7.49952293,13.7743913 7.50865463,13.5822602 7.43073624,13.42 C7.18117864,12.8129797 6.61608592,12.4060478 5.97594289,12.372381 L5.96203434,12.372381 C5.31758659,12.4024828 4.74507515,12.8045838 4.48344871,13.4108595 C4.35430561,13.6679461 4.45231921,13.9839936 4.70236823,14.1167714 C4.95241726,14.2495492 5.25981321,14.1487771 5.38895631,13.8916905 C5.48188934,13.6386521 5.70161783,13.4578416 5.96211076,13.4200524 L5.96600821,13.4200524 C6.21960585,13.4556248 6.43247567,13.6342028 6.51725542,13.8824976 C6.60268599,14.0617322 6.77996201,14.1752746 6.97409772,14.1750976 L6.97409772,14.1750976 Z" id="Path"></path>
                <path d="M11.0709038,12.372381 L11.0569698,12.372381 C10.4124379,12.4023953 9.83981788,12.8045103 9.57815489,13.4108595 C9.44901179,13.6679461 9.5470254,13.9839936 9.79707442,14.1167714 C10.0471234,14.2495492 10.3545194,14.1487771 10.4836625,13.8916905 C10.5766001,13.6386556 10.7963263,13.457847 11.0568169,13.4200524 L11.0607144,13.4200524 C11.3143144,13.4556328 11.5271883,13.634206 11.6119871,13.8824976 C11.7362062,14.1418407 12.0413896,14.2485461 12.2936333,14.120831 C12.545877,13.9931158 12.6496615,13.6793431 12.5254424,13.42 C12.2759295,12.8130575 11.7109551,12.4061395 11.0709038,12.372381 Z" id="Path"></path>
                <path d="M10.2747286,17.119981 C10.0279614,16.9816454 9.71884526,17.0750677 9.58414117,17.3286929 C9.43489175,17.6085119 9.00502592,17.7957214 8.51147626,17.7957214 C8.02587434,17.8289833 7.56615353,17.6039024 7.42187145,17.3307357 C7.33682954,17.163345 7.17068634,17.0560267 6.98710191,17.0499013 C6.80351748,17.043776 6.63095625,17.1397932 6.53553743,17.3011628 C6.44011861,17.4625323 6.43663672,17.6642341 6.52642589,17.8289833 C6.85480518,18.45305 7.61302482,18.8418214 8.50571924,18.8433405 L8.51170552,18.8433405 C9.39331895,18.8433405 10.1465967,18.4557214 10.477931,17.8310262 C10.542998,17.7090953 10.558139,17.5655369 10.5200055,17.4321002 C10.481872,17.2986635 10.3936061,17.1863436 10.2747286,17.119981 L10.2747286,17.119981 Z" id="Path"></path>
            </g>
        </g>
    </g>
</svg>